{"glyphs":{"0":{"ha":543,"x_min":51,"x_max":507,"o":"m 256 5 q 105 -59 158 5 q 51 -242 51 -123 l 51 -242 q 83 -420 51 -343 q 171 -541 114 -498 q 302 -584 227 -584 l 302 -584 q 454 -520 400 -584 q 507 -337 507 -456 l 507 -337 q 476 -158 507 -236 q 388 -38 444 -81 q 256 5 331 5 l 256 5 z m 266 -107 q 351 -167 320 -107 q 382 -330 382 -227 l 382 -330 q 359 -435 382 -399 q 292 -472 336 -472 l 292 -472 q 207 -411 238 -472 q 176 -248 176 -351 l 176 -248 q 199 -143 176 -179 q 266 -107 221 -107 l 266 -107 z"},"1":{"ha":376,"x_min":56,"x_max":331,"o":"m 196 5 q 152 -10 171 5 q 133 -57 133 -25 l 133 -57 l 134 -68 q 161 -282 145 -171 q 187 -454 176 -394 l 187 -454 l 109 -432 l 97 -430 q 67 -445 78 -430 q 56 -479 56 -460 l 56 -479 l 57 -488 q 69 -519 59 -507 q 108 -543 79 -531 q 193 -569 136 -555 l 193 -569 l 235 -579 q 273 -584 258 -584 l 273 -584 q 317 -569 302 -584 q 331 -527 331 -554 l 331 -527 q 328 -501 331 -515 l 328 -501 q 267 -57 312 -423 l 267 -57 q 196 5 259 5 l 196 5 z"},"2":{"ha":560,"x_min":46,"x_max":519,"o":"m 476 -112 q 508 -98 497 -112 q 519 -63 519 -84 l 519 -63 q 503 -16 519 -37 q 458 4 486 4 l 458 4 q 315 -3 410 4 l 315 -3 q 245 -7 296 -4 q 165 -10 194 -10 l 165 -10 q 127 -1 152 -10 l 127 -1 q 108 4 122 0 q 83 8 93 8 l 83 8 q 57 -6 67 8 q 46 -50 46 -21 l 46 -50 q 61 -99 46 -82 q 108 -131 76 -117 l 108 -131 q 237 -207 176 -161 q 334 -308 297 -254 q 370 -411 370 -362 l 370 -411 q 353 -468 370 -450 q 297 -487 335 -487 l 297 -487 q 227 -463 253 -487 q 200 -396 200 -439 l 200 -396 q 141 -337 200 -337 l 141 -337 q 98 -353 113 -337 q 82 -399 82 -369 l 82 -399 q 108 -491 82 -449 q 186 -558 134 -533 q 313 -584 238 -584 l 313 -584 q 454 -539 403 -584 q 505 -414 505 -494 l 505 -414 q 439 -255 505 -338 q 247 -108 372 -172 l 247 -108 l 476 -112 z"},"3":{"ha":520,"x_min":28,"x_max":486,"o":"m 355 -285 q 441 -243 406 -278 q 475 -155 475 -208 l 475 -155 q 444 -68 475 -104 q 361 -13 413 -32 q 246 5 308 5 l 246 5 q 83 -33 137 5 q 28 -128 28 -71 l 28 -128 q 44 -179 28 -161 q 87 -198 60 -198 l 87 -198 q 122 -186 110 -198 q 141 -147 133 -175 l 141 -147 q 170 -106 148 -120 q 238 -92 192 -92 l 238 -92 q 311 -108 282 -92 q 339 -159 339 -125 l 339 -159 q 312 -210 339 -194 q 228 -229 285 -227 l 228 -229 q 197 -243 207 -230 q 186 -276 186 -257 l 186 -276 q 195 -310 186 -300 q 224 -325 203 -321 l 224 -325 q 320 -363 290 -335 q 349 -432 349 -392 l 349 -432 q 273 -487 349 -487 l 273 -487 q 174 -421 189 -487 l 174 -421 q 154 -382 167 -394 q 116 -371 140 -371 l 116 -371 q 75 -386 89 -371 q 60 -428 60 -402 l 60 -428 q 88 -504 60 -468 q 168 -562 116 -540 q 288 -584 219 -584 l 288 -584 q 435 -547 384 -584 q 486 -437 486 -510 l 486 -437 q 450 -347 486 -389 q 355 -285 413 -306 l 355 -285 z"},"4":{"ha":577,"x_min":48,"x_max":552,"o":"m 499 -225 q 552 -180 552 -225 l 552 -180 q 532 -130 552 -144 q 469 -116 512 -116 l 469 -116 l 448 -116 l 444 -63 q 425 -1 441 -17 q 371 15 408 15 l 371 15 q 318 -50 318 15 l 318 -50 q 319 -67 318 -61 l 319 -67 l 324 -116 q 104 -117 179 -116 l 104 -117 q 65 -137 82 -117 q 48 -189 48 -157 l 48 -189 q 55 -229 48 -208 l 55 -229 q 187 -520 99 -357 l 187 -520 q 226 -569 206 -555 q 286 -584 245 -584 l 286 -584 q 320 -574 308 -584 q 331 -548 331 -564 l 331 -548 q 321 -514 331 -531 l 321 -514 q 183 -225 223 -335 l 183 -225 l 337 -225 q 370 -402 349 -318 l 370 -402 q 396 -449 378 -433 q 446 -466 414 -466 l 446 -466 q 497 -422 497 -466 l 497 -422 q 495 -402 497 -409 l 495 -402 q 463 -225 477 -317 l 463 -225 l 499 -225 z"},"5":{"ha":518,"x_min":46,"x_max":500,"o":"m 284 -477 q 242 -476 255 -477 l 242 -476 q 213 -356 229 -432 l 213 -356 q 409 -303 342 -349 q 476 -178 476 -257 l 476 -178 q 450 -84 476 -126 q 372 -19 423 -43 q 252 5 321 5 l 252 5 q 103 -31 159 5 q 46 -128 46 -67 l 46 -128 q 62 -179 46 -161 q 105 -198 77 -198 l 105 -198 q 139 -186 127 -198 q 159 -147 151 -175 l 159 -147 q 262 -86 176 -86 l 262 -86 q 323 -108 299 -86 q 347 -164 347 -131 l 347 -164 q 160 -258 347 -252 l 160 -258 q 103 -271 120 -259 q 85 -308 85 -283 l 85 -308 q 88 -333 85 -320 l 88 -333 l 99 -381 q 119 -470 105 -410 l 119 -470 l 117 -470 q 85 -479 97 -470 q 73 -506 73 -489 l 73 -506 q 121 -570 73 -555 l 121 -570 q 283 -584 166 -584 l 283 -584 q 405 -581 367 -584 q 464 -574 443 -579 l 464 -574 q 492 -560 484 -569 q 500 -535 500 -552 l 500 -535 q 487 -486 500 -501 q 441 -472 473 -472 l 441 -472 q 379 -474 425 -472 l 379 -474 q 284 -477 295 -477 l 284 -477 z"},"6":{"ha":541,"x_min":50,"x_max":515,"o":"m 320 -485 q 226 -439 262 -485 q 180 -304 189 -394 l 180 -304 q 239 -346 206 -334 q 312 -359 272 -359 l 312 -359 q 402 -338 362 -359 q 463 -279 441 -317 q 485 -196 485 -242 l 485 -196 q 459 -93 485 -139 q 382 -21 432 -48 q 262 5 331 5 l 262 5 q 105 -59 159 5 q 50 -238 50 -124 l 50 -238 q 85 -418 50 -340 q 183 -540 119 -497 q 331 -584 246 -584 l 331 -584 q 458 -548 408 -584 q 514 -455 507 -513 l 514 -455 l 515 -444 q 499 -403 515 -418 q 452 -389 482 -389 l 452 -389 q 417 -400 430 -389 q 393 -440 403 -412 l 393 -440 q 367 -473 385 -461 q 320 -485 348 -485 l 320 -485 z m 282 -259 q 215 -235 239 -259 q 191 -171 191 -211 l 191 -171 q 211 -114 191 -135 q 267 -93 231 -93 l 267 -93 q 332 -118 307 -93 q 356 -185 356 -144 l 356 -185 q 336 -239 356 -219 q 282 -259 316 -259 l 282 -259 z"},"7":{"ha":497,"x_min":45,"x_max":518,"o":"m 481 -582 q 508 -567 497 -582 q 518 -524 518 -553 l 518 -524 q 507 -483 518 -497 q 480 -459 496 -470 q 456 -443 463 -448 l 456 -443 q 309 -276 350 -370 q 258 -75 267 -182 l 258 -75 q 236 -14 254 -33 q 189 5 217 5 l 189 5 q 142 -14 161 5 q 123 -83 123 -34 l 123 -83 q 145 -208 123 -140 q 214 -345 166 -277 q 334 -466 261 -413 l 334 -466 l 88 -462 q 56 -476 67 -462 q 45 -511 45 -490 l 45 -511 q 62 -557 45 -537 q 106 -578 78 -578 l 106 -578 q 249 -571 155 -578 l 249 -571 q 319 -567 268 -570 q 399 -564 370 -564 l 399 -564 q 437 -573 412 -564 l 437 -573 q 457 -578 442 -574 q 481 -582 471 -582 l 481 -582 z"},"8":{"ha":512,"x_min":40,"x_max":488,"o":"m 378 -297 q 476 -163 476 -247 l 476 -163 q 448 -75 476 -113 q 367 -16 419 -37 q 246 5 315 5 l 246 5 q 95 -33 149 5 q 40 -139 40 -71 l 40 -139 q 66 -218 40 -182 q 150 -285 92 -254 l 150 -285 q 96 -342 114 -309 q 77 -413 77 -376 l 77 -413 q 137 -538 77 -493 q 300 -584 197 -584 l 300 -584 q 437 -547 385 -584 q 488 -447 488 -510 l 488 -447 q 462 -364 488 -401 q 378 -297 436 -328 l 378 -297 z m 292 -487 q 225 -469 250 -487 q 200 -419 200 -452 l 200 -419 q 276 -339 200 -374 l 276 -339 q 348 -386 327 -364 q 368 -432 368 -408 l 368 -432 q 292 -487 368 -487 l 292 -487 z m 251 -92 q 325 -108 298 -92 q 352 -152 352 -124 l 352 -152 q 329 -194 352 -174 q 242 -242 305 -214 l 242 -242 q 178 -199 196 -221 q 160 -151 160 -177 l 160 -151 q 185 -107 160 -123 q 251 -92 209 -92 l 251 -92 z"},"9":{"ha":541,"x_min":40,"x_max":505,"o":"m 293 -584 q 451 -519 396 -584 q 505 -341 505 -455 l 505 -341 q 471 -160 505 -239 q 373 -38 436 -82 q 224 5 309 5 l 224 5 q 98 -30 147 5 q 41 -124 48 -66 l 41 -124 l 40 -135 q 57 -175 40 -161 q 103 -190 73 -190 l 103 -190 q 139 -178 125 -190 q 162 -139 152 -167 l 162 -139 q 189 -106 170 -118 q 235 -94 207 -94 l 235 -94 q 330 -139 293 -94 q 375 -275 366 -185 l 375 -275 q 316 -232 349 -245 q 243 -220 283 -220 l 243 -220 q 154 -241 193 -220 q 92 -299 114 -262 q 70 -383 70 -337 l 70 -383 q 97 -485 70 -440 q 174 -557 123 -531 q 293 -584 224 -584 l 293 -584 z m 273 -320 q 340 -344 316 -320 q 364 -408 364 -368 l 364 -408 q 344 -465 364 -444 q 288 -486 324 -486 l 288 -486 q 224 -460 248 -486 q 199 -394 199 -435 l 199 -394 q 219 -340 199 -360 q 273 -320 239 -320 l 273 -320 z"}," ":{"ha":265,"x_min":0,"x_max":0,"o":""},"A":{"ha":786,"x_min":56,"x_max":915,"o":"m 300 5 q 176 -29 231 5 q 88 -127 120 -63 q 56 -280 56 -192 l 56 -280 q 121 -561 56 -432 q 313 -769 186 -691 q 618 -848 440 -848 l 618 -848 q 717 -841 664 -848 q 812 -820 769 -834 l 812 -820 q 840 -780 840 -812 l 840 -780 q 821 -731 840 -754 q 775 -708 801 -708 l 775 -708 q 763 -709 767 -708 l 763 -709 q 674 -726 711 -721 q 596 -732 637 -732 l 596 -732 q 380 -670 469 -732 q 247 -508 291 -609 q 203 -290 203 -407 l 203 -290 q 237 -158 203 -205 q 324 -112 270 -112 l 324 -112 q 431 -162 385 -112 q 515 -324 477 -212 q 590 -628 553 -436 l 590 -628 q 614 -666 596 -656 q 662 -676 632 -676 l 662 -676 q 733 -630 733 -676 l 733 -630 q 730 -610 733 -622 l 730 -610 q 683 -395 704 -513 q 661 -217 661 -278 l 661 -217 q 677 -138 661 -163 q 726 -114 693 -114 l 726 -114 q 787 -135 758 -114 q 860 -209 816 -157 l 860 -209 q 887 -223 872 -223 l 887 -223 q 908 -211 900 -223 q 915 -178 915 -199 l 915 -178 q 896 -116 915 -139 l 896 -116 q 800 -26 847 -57 q 685 5 753 5 l 685 5 q 572 -35 615 5 q 518 -150 529 -76 l 518 -150 q 300 5 444 5 l 300 5 z"},"Á":{"ha":786,"x_min":56,"x_max":915,"o":"m 300 5 q 176 -29 231 5 q 88 -127 120 -63 q 56 -280 56 -192 l 56 -280 q 121 -561 56 -432 q 313 -769 186 -691 q 618 -848 440 -848 l 618 -848 q 717 -841 664 -848 q 812 -820 769 -834 l 812 -820 q 840 -780 840 -812 l 840 -780 q 821 -731 840 -754 q 775 -708 801 -708 l 775 -708 q 763 -709 767 -708 l 763 -709 q 674 -726 711 -721 q 596 -732 637 -732 l 596 -732 q 380 -670 469 -732 q 247 -508 291 -609 q 203 -290 203 -407 l 203 -290 q 237 -158 203 -205 q 324 -112 270 -112 l 324 -112 q 431 -162 385 -112 q 515 -324 477 -212 q 590 -628 553 -436 l 590 -628 q 614 -666 596 -656 q 662 -676 632 -676 l 662 -676 q 733 -630 733 -676 l 733 -630 q 730 -610 733 -622 l 730 -610 q 683 -395 704 -513 q 661 -217 661 -278 l 661 -217 q 677 -138 661 -163 q 726 -114 693 -114 l 726 -114 q 787 -135 758 -114 q 860 -209 816 -157 l 860 -209 q 887 -223 872 -223 l 887 -223 q 908 -211 900 -223 q 915 -178 915 -199 l 915 -178 q 896 -116 915 -139 l 896 -116 q 800 -26 847 -57 q 685 5 753 5 l 685 5 q 572 -35 615 5 q 518 -150 529 -76 l 518 -150 q 300 5 444 5 l 300 5 z m 600 -912 q 573 -922 584 -912 q 562 -948 562 -933 l 562 -948 q 581 -984 562 -968 l 581 -984 l 753 -1131 q 797 -1148 773 -1148 l 797 -1148 q 842 -1129 823 -1148 q 861 -1085 861 -1111 l 861 -1085 q 808 -1014 861 -1042 l 808 -1014 l 621 -917 q 600 -912 612 -912 l 600 -912 z"},"Â":{"ha":786,"x_min":56,"x_max":915,"o":"m 300 5 q 176 -29 231 5 q 88 -127 120 -63 q 56 -280 56 -192 l 56 -280 q 121 -561 56 -432 q 313 -769 186 -691 q 618 -848 440 -848 l 618 -848 q 717 -841 664 -848 q 812 -820 769 -834 l 812 -820 q 840 -780 840 -812 l 840 -780 q 821 -731 840 -754 q 775 -708 801 -708 l 775 -708 q 763 -709 767 -708 l 763 -709 q 674 -726 711 -721 q 596 -732 637 -732 l 596 -732 q 380 -670 469 -732 q 247 -508 291 -609 q 203 -290 203 -407 l 203 -290 q 237 -158 203 -205 q 324 -112 270 -112 l 324 -112 q 431 -162 385 -112 q 515 -324 477 -212 q 590 -628 553 -436 l 590 -628 q 614 -666 596 -656 q 662 -676 632 -676 l 662 -676 q 733 -630 733 -676 l 733 -630 q 730 -610 733 -622 l 730 -610 q 683 -395 704 -513 q 661 -217 661 -278 l 661 -217 q 677 -138 661 -163 q 726 -114 693 -114 l 726 -114 q 787 -135 758 -114 q 860 -209 816 -157 l 860 -209 q 887 -223 872 -223 l 887 -223 q 908 -211 900 -223 q 915 -178 915 -199 l 915 -178 q 896 -116 915 -139 l 896 -116 q 800 -26 847 -57 q 685 5 753 5 l 685 5 q 572 -35 615 5 q 518 -150 529 -76 l 518 -150 q 300 5 444 5 l 300 5 z m 665 -948 l 624 -1093 l 544 -951 q 515 -921 533 -931 q 478 -911 497 -911 l 478 -911 q 442 -922 457 -911 q 427 -953 427 -934 l 427 -953 q 440 -990 427 -970 l 440 -990 l 532 -1127 q 637 -1183 569 -1183 l 637 -1183 q 687 -1167 668 -1183 q 720 -1114 705 -1151 l 720 -1114 l 767 -993 q 773 -965 773 -978 l 773 -965 q 756 -926 773 -941 q 716 -912 739 -912 l 716 -912 q 685 -921 699 -912 q 665 -948 670 -931 l 665 -948 z"},"Ä":{"ha":786,"x_min":56,"x_max":915,"o":"m 300 5 q 176 -29 231 5 q 88 -127 120 -63 q 56 -280 56 -192 l 56 -280 q 121 -561 56 -432 q 313 -769 186 -691 q 618 -848 440 -848 l 618 -848 q 717 -841 664 -848 q 812 -820 769 -834 l 812 -820 q 840 -780 840 -812 l 840 -780 q 821 -731 840 -754 q 775 -708 801 -708 l 775 -708 q 763 -709 767 -708 l 763 -709 q 674 -726 711 -721 q 596 -732 637 -732 l 596 -732 q 380 -670 469 -732 q 247 -508 291 -609 q 203 -290 203 -407 l 203 -290 q 237 -158 203 -205 q 324 -112 270 -112 l 324 -112 q 431 -162 385 -112 q 515 -324 477 -212 q 590 -628 553 -436 l 590 -628 q 614 -666 596 -656 q 662 -676 632 -676 l 662 -676 q 733 -630 733 -676 l 733 -630 q 730 -610 733 -622 l 730 -610 q 683 -395 704 -513 q 661 -217 661 -278 l 661 -217 q 677 -138 661 -163 q 726 -114 693 -114 l 726 -114 q 787 -135 758 -114 q 860 -209 816 -157 l 860 -209 q 887 -223 872 -223 l 887 -223 q 908 -211 900 -223 q 915 -178 915 -199 l 915 -178 q 896 -116 915 -139 l 896 -116 q 800 -26 847 -57 q 685 5 753 5 l 685 5 q 572 -35 615 5 q 518 -150 529 -76 l 518 -150 q 300 5 444 5 l 300 5 z m 501 -912 q 450 -930 469 -912 q 431 -986 431 -949 l 431 -986 q 453 -1050 431 -1027 q 512 -1073 475 -1073 l 512 -1073 q 563 -1054 544 -1073 q 582 -999 582 -1036 l 582 -999 q 560 -935 582 -958 q 501 -912 538 -912 l 501 -912 z m 709 -912 q 658 -930 677 -912 q 639 -986 639 -949 l 639 -986 q 661 -1050 639 -1027 q 720 -1073 683 -1073 l 720 -1073 q 771 -1054 752 -1073 q 790 -999 790 -1036 l 790 -999 q 768 -935 790 -958 q 709 -912 746 -912 l 709 -912 z"},"À":{"ha":786,"x_min":56,"x_max":915,"o":"m 300 5 q 176 -29 231 5 q 88 -127 120 -63 q 56 -280 56 -192 l 56 -280 q 121 -561 56 -432 q 313 -769 186 -691 q 618 -848 440 -848 l 618 -848 q 717 -841 664 -848 q 812 -820 769 -834 l 812 -820 q 840 -780 840 -812 l 840 -780 q 821 -731 840 -754 q 775 -708 801 -708 l 775 -708 q 763 -709 767 -708 l 763 -709 q 674 -726 711 -721 q 596 -732 637 -732 l 596 -732 q 380 -670 469 -732 q 247 -508 291 -609 q 203 -290 203 -407 l 203 -290 q 237 -158 203 -205 q 324 -112 270 -112 l 324 -112 q 431 -162 385 -112 q 515 -324 477 -212 q 590 -628 553 -436 l 590 -628 q 614 -666 596 -656 q 662 -676 632 -676 l 662 -676 q 733 -630 733 -676 l 733 -630 q 730 -610 733 -622 l 730 -610 q 683 -395 704 -513 q 661 -217 661 -278 l 661 -217 q 677 -138 661 -163 q 726 -114 693 -114 l 726 -114 q 787 -135 758 -114 q 860 -209 816 -157 l 860 -209 q 887 -223 872 -223 l 887 -223 q 908 -211 900 -223 q 915 -178 915 -199 l 915 -178 q 896 -116 915 -139 l 896 -116 q 800 -26 847 -57 q 685 5 753 5 l 685 5 q 572 -35 615 5 q 518 -150 529 -76 l 518 -150 q 300 5 444 5 l 300 5 z m 587 -912 q 566 -917 575 -912 l 566 -917 l 379 -1014 q 326 -1085 326 -1042 l 326 -1085 q 345 -1129 326 -1111 q 390 -1148 364 -1148 l 390 -1148 q 434 -1131 414 -1148 l 434 -1131 l 606 -984 q 625 -948 625 -968 l 625 -948 q 614 -922 625 -933 q 587 -912 603 -912 l 587 -912 z"},"Å":{"ha":786,"x_min":56,"x_max":915,"o":"m 300 5 q 176 -29 231 5 q 88 -127 120 -63 q 56 -280 56 -192 l 56 -280 q 121 -561 56 -432 q 313 -769 186 -691 q 618 -848 440 -848 l 618 -848 q 717 -841 664 -848 q 812 -820 769 -834 l 812 -820 q 840 -780 840 -812 l 840 -780 q 821 -731 840 -754 q 775 -708 801 -708 l 775 -708 q 763 -709 767 -708 l 763 -709 q 674 -726 711 -721 q 596 -732 637 -732 l 596 -732 q 380 -670 469 -732 q 247 -508 291 -609 q 203 -290 203 -407 l 203 -290 q 237 -158 203 -205 q 324 -112 270 -112 l 324 -112 q 431 -162 385 -112 q 515 -324 477 -212 q 590 -628 553 -436 l 590 -628 q 614 -666 596 -656 q 662 -676 632 -676 l 662 -676 q 733 -630 733 -676 l 733 -630 q 730 -610 733 -622 l 730 -610 q 683 -395 704 -513 q 661 -217 661 -278 l 661 -217 q 677 -138 661 -163 q 726 -114 693 -114 l 726 -114 q 787 -135 758 -114 q 860 -209 816 -157 l 860 -209 q 887 -223 872 -223 l 887 -223 q 908 -211 900 -223 q 915 -178 915 -199 l 915 -178 q 896 -116 915 -139 l 896 -116 q 800 -26 847 -57 q 685 5 753 5 l 685 5 q 572 -35 615 5 q 518 -150 529 -76 l 518 -150 q 300 5 444 5 l 300 5 z m 611 -912 q 520 -947 558 -912 q 482 -1044 482 -983 l 482 -1044 q 502 -1122 482 -1089 q 554 -1174 521 -1156 q 623 -1192 586 -1192 l 623 -1192 q 714 -1156 676 -1192 q 752 -1060 752 -1121 l 752 -1060 q 733 -981 752 -1015 q 681 -930 713 -948 q 611 -912 648 -912 l 611 -912 z m 615 -1000 q 649 -1015 635 -1000 q 663 -1055 663 -1030 l 663 -1055 q 650 -1090 663 -1077 q 619 -1104 637 -1104 l 619 -1104 q 585 -1089 599 -1104 q 571 -1049 571 -1074 l 571 -1049 q 584 -1013 571 -1027 q 615 -1000 597 -1000 l 615 -1000 z"},"Ã":{"ha":786,"x_min":56,"x_max":915,"o":"m 300 5 q 176 -29 231 5 q 88 -127 120 -63 q 56 -280 56 -192 l 56 -280 q 121 -561 56 -432 q 313 -769 186 -691 q 618 -848 440 -848 l 618 -848 q 717 -841 664 -848 q 812 -820 769 -834 l 812 -820 q 840 -780 840 -812 l 840 -780 q 821 -731 840 -754 q 775 -708 801 -708 l 775 -708 q 763 -709 767 -708 l 763 -709 q 674 -726 711 -721 q 596 -732 637 -732 l 596 -732 q 380 -670 469 -732 q 247 -508 291 -609 q 203 -290 203 -407 l 203 -290 q 237 -158 203 -205 q 324 -112 270 -112 l 324 -112 q 431 -162 385 -112 q 515 -324 477 -212 q 590 -628 553 -436 l 590 -628 q 614 -666 596 -656 q 662 -676 632 -676 l 662 -676 q 733 -630 733 -676 l 733 -630 q 730 -610 733 -622 l 730 -610 q 683 -395 704 -513 q 661 -217 661 -278 l 661 -217 q 677 -138 661 -163 q 726 -114 693 -114 l 726 -114 q 787 -135 758 -114 q 860 -209 816 -157 l 860 -209 q 887 -223 872 -223 l 887 -223 q 908 -211 900 -223 q 915 -178 915 -199 l 915 -178 q 896 -116 915 -139 l 896 -116 q 800 -26 847 -57 q 685 5 753 5 l 685 5 q 572 -35 615 5 q 518 -150 529 -76 l 518 -150 q 300 5 444 5 l 300 5 z m 701 -912 q 671 -917 685 -912 q 635 -938 657 -923 l 635 -938 l 528 -1012 l 484 -949 q 464 -932 476 -938 q 438 -927 451 -927 l 438 -927 q 406 -937 419 -927 q 392 -966 392 -947 l 392 -966 q 429 -1047 392 -993 l 429 -1047 q 526 -1111 473 -1111 l 526 -1111 q 557 -1106 543 -1111 q 592 -1085 570 -1101 l 592 -1085 l 699 -1011 l 743 -1074 q 764 -1090 751 -1085 q 789 -1096 776 -1096 l 789 -1096 q 822 -1086 808 -1096 q 835 -1057 835 -1076 l 835 -1057 q 827 -1027 835 -1044 q 798 -976 819 -1011 l 798 -976 q 753 -927 778 -943 q 701 -912 728 -912 l 701 -912 z"},"Æ":{"ha":1015,"x_min":56,"x_max":1141,"o":"m 1091 -182 q 1111 -187 1100 -187 l 1111 -187 q 1133 -175 1125 -187 q 1141 -146 1141 -164 l 1141 -146 q 1132 -104 1141 -123 q 1099 -69 1122 -86 l 1099 -69 q 981 -16 1054 -37 q 839 5 907 5 l 839 5 q 644 -43 716 5 q 550 -173 572 -92 l 550 -173 q 312 5 471 5 l 312 5 q 179 -29 237 5 q 89 -127 121 -63 q 56 -280 56 -192 l 56 -280 q 115 -548 56 -426 q 277 -748 173 -671 q 511 -842 381 -826 l 511 -842 q 532 -843 519 -843 l 532 -843 q 597 -780 597 -843 l 597 -780 q 588 -745 597 -759 q 559 -730 578 -732 l 559 -730 q 365 -656 445 -717 q 244 -499 284 -595 q 203 -290 203 -404 l 203 -290 q 237 -158 203 -205 q 324 -112 270 -112 l 324 -112 q 458 -194 407 -112 q 550 -431 508 -277 l 550 -431 l 631 -727 q 681 -810 646 -782 q 766 -840 715 -838 l 766 -840 l 818 -843 q 1016 -849 944 -849 l 1016 -849 q 1066 -836 1052 -849 q 1080 -795 1080 -824 l 1080 -795 q 1062 -742 1080 -764 q 1008 -720 1044 -720 l 1008 -720 q 871 -717 941 -720 q 768 -710 800 -714 l 768 -710 q 710 -483 744 -638 l 710 -483 q 776 -485 756 -485 l 776 -485 q 957 -490 883 -490 l 957 -490 q 999 -477 987 -490 q 1010 -441 1010 -465 l 1010 -441 q 993 -389 1010 -410 q 944 -368 975 -369 l 944 -368 l 831 -365 q 686 -361 779 -363 l 686 -361 q 675 -274 675 -312 l 675 -274 q 862 -115 675 -115 l 862 -115 q 968 -131 914 -115 q 1091 -182 1022 -148 l 1091 -182 z"},"B":{"ha":827,"x_min":20,"x_max":868,"o":"m 868 -640 q 808 -493 868 -555 q 633 -405 748 -432 l 633 -405 q 727 -349 695 -388 q 759 -261 759 -311 l 759 -261 q 710 -124 759 -182 q 565 -34 660 -66 q 336 -3 470 -3 l 336 -3 q 256 -6 286 -3 l 256 -6 q 232 36 255 22 q 173 50 209 50 l 173 50 q 124 34 137 50 q 112 -13 110 18 l 112 -13 q 147 -306 121 -153 q 213 -603 173 -460 l 213 -603 q 241 -638 220 -628 q 296 -648 262 -648 l 296 -648 q 357 -614 357 -648 l 357 -614 q 351 -582 357 -600 l 351 -582 q 299 -370 325 -504 q 262 -116 273 -237 l 262 -116 q 340 -112 310 -112 l 340 -112 q 546 -152 480 -112 q 611 -256 611 -193 l 611 -256 q 574 -330 611 -300 q 448 -363 536 -360 l 448 -363 q 420 -373 428 -364 q 412 -402 412 -382 l 412 -402 q 424 -449 412 -431 q 468 -468 436 -467 l 468 -468 q 597 -489 539 -470 q 687 -542 654 -508 q 720 -623 720 -577 l 720 -623 q 663 -714 720 -681 q 488 -748 606 -748 l 488 -748 q 281 -720 381 -748 q 111 -651 181 -693 l 111 -651 q 57 -632 79 -632 l 57 -632 q 30 -644 39 -632 q 20 -676 20 -657 l 20 -676 q 31 -719 20 -701 q 81 -760 41 -737 l 81 -760 q 278 -835 165 -808 q 509 -862 391 -862 l 509 -862 q 779 -801 690 -862 q 868 -640 868 -740 l 868 -640 z"},"C":{"ha":686,"x_min":64,"x_max":812,"o":"m 453 5 q 246 -38 334 5 q 111 -162 158 -82 q 64 -348 64 -242 l 64 -348 q 120 -609 64 -495 q 270 -785 175 -723 q 481 -848 365 -848 l 481 -848 q 645 -792 589 -848 q 701 -646 701 -737 l 701 -646 q 680 -548 701 -585 q 618 -511 658 -511 l 618 -511 q 574 -524 590 -511 q 558 -562 558 -537 l 558 -562 q 562 -595 558 -571 l 562 -595 q 568 -643 568 -625 l 568 -643 q 471 -734 568 -734 l 471 -734 q 345 -691 405 -734 q 248 -564 285 -648 q 211 -366 211 -481 l 211 -366 q 278 -180 211 -246 q 476 -115 345 -115 l 476 -115 q 608 -131 541 -115 q 755 -182 674 -148 l 755 -182 q 780 -188 770 -188 l 780 -188 q 804 -176 796 -188 q 812 -145 812 -164 l 812 -145 q 746 -55 812 -84 l 746 -55 q 599 -9 675 -24 q 453 5 522 5 l 453 5 z"},"Ç":{"ha":686,"x_min":64,"x_max":812,"o":"m 755 -182 q 780 -188 770 -188 l 780 -188 q 804 -176 796 -188 q 812 -145 812 -164 l 812 -145 q 746 -55 812 -84 l 746 -55 q 466 5 617 1 l 466 5 q 496 86 496 37 l 496 86 q 445 208 496 161 q 305 254 393 254 l 305 254 q 243 249 267 254 l 243 249 q 214 234 223 245 q 204 202 204 223 l 204 202 q 214 167 204 178 q 244 156 224 156 l 244 156 q 257 157 252 156 l 257 157 q 310 161 284 161 l 310 161 q 373 145 350 161 q 395 94 395 128 l 395 94 q 374 55 395 69 q 315 40 352 40 l 315 40 q 275 33 289 40 q 261 9 261 26 l 261 9 q 274 -26 261 -13 l 274 -26 q 119 -149 174 -65 q 64 -348 64 -233 l 64 -348 q 120 -609 64 -495 q 270 -785 175 -723 q 481 -848 365 -848 l 481 -848 q 645 -792 589 -848 q 701 -646 701 -737 l 701 -646 q 680 -548 701 -585 q 618 -511 658 -511 l 618 -511 q 574 -524 590 -511 q 558 -562 558 -537 l 558 -562 q 562 -595 558 -571 l 562 -595 q 568 -643 568 -625 l 568 -643 q 471 -734 568 -734 l 471 -734 q 345 -691 405 -734 q 248 -564 285 -648 q 211 -366 211 -481 l 211 -366 q 278 -180 211 -246 q 476 -115 345 -115 l 476 -115 q 608 -131 541 -115 q 755 -182 674 -148 l 755 -182 z"},"D":{"ha":836,"x_min":45,"x_max":817,"o":"m 308 5 q 177 -5 250 5 l 177 -5 q 122 -26 137 -10 q 109 -78 107 -42 l 109 -78 q 142 -322 116 -177 q 205 -603 168 -468 l 205 -603 q 233 -638 212 -628 q 288 -648 254 -648 l 288 -648 q 349 -614 349 -648 l 349 -614 q 343 -582 349 -600 l 343 -582 q 291 -367 317 -502 q 254 -111 265 -233 l 254 -111 q 322 -108 284 -108 l 322 -108 q 584 -214 497 -108 q 670 -497 670 -320 l 670 -497 q 602 -681 670 -616 q 410 -746 534 -746 l 410 -746 q 252 -721 330 -746 q 110 -655 173 -696 l 110 -655 q 82 -646 97 -646 l 82 -646 q 55 -660 65 -646 q 45 -696 45 -675 l 45 -696 q 53 -735 45 -720 q 80 -764 61 -751 l 80 -764 q 242 -835 149 -811 q 421 -860 335 -860 l 421 -860 q 632 -817 543 -860 q 769 -693 721 -775 q 817 -495 817 -611 l 817 -495 q 757 -231 817 -344 q 582 -57 697 -119 q 308 5 467 5 l 308 5 z"},"Ð":{"ha":821,"x_min":15,"x_max":803,"o":"m 424 -860 q 629 -814 543 -860 q 759 -686 714 -769 q 803 -494 803 -604 l 803 -494 q 743 -237 803 -351 q 567 -59 682 -124 q 294 5 452 5 l 294 5 q 155 -5 228 5 l 155 -5 q 101 -26 116 -10 q 89 -78 86 -42 l 89 -78 q 134 -383 102 -216 l 134 -383 l 65 -383 q 15 -429 15 -383 l 15 -429 q 45 -487 15 -470 q 138 -505 74 -505 l 138 -505 l 161 -505 q 243 -798 197 -660 l 243 -798 q 261 -830 250 -818 q 291 -848 271 -843 l 291 -848 q 424 -860 340 -860 l 424 -860 z m 307 -108 q 503 -159 424 -108 q 619 -297 581 -211 q 656 -489 656 -383 l 656 -489 q 589 -683 656 -618 q 411 -748 522 -748 l 411 -748 q 367 -747 378 -748 l 367 -747 q 300 -504 334 -647 l 300 -504 q 391 -503 329 -503 l 391 -503 q 478 -490 455 -503 q 500 -448 500 -477 l 500 -448 q 487 -399 500 -417 q 437 -381 474 -381 l 437 -381 q 327 -383 405 -381 l 327 -383 l 275 -384 q 234 -111 245 -234 l 234 -111 q 307 -108 265 -108 l 307 -108 z"},"E":{"ha":686,"x_min":31,"x_max":812,"o":"m 755 -182 q 780 -188 770 -188 l 780 -188 q 804 -176 796 -188 q 812 -145 812 -164 l 812 -145 q 798 -94 812 -115 q 748 -56 783 -73 l 748 -56 q 595 -11 689 -28 q 410 5 501 5 l 410 5 q 199 -23 284 5 q 73 -102 114 -52 q 31 -215 31 -152 l 31 -215 q 87 -361 31 -301 q 250 -449 142 -422 l 250 -449 q 160 -509 191 -466 q 128 -605 128 -552 l 128 -605 q 174 -732 128 -677 q 296 -818 219 -788 q 465 -848 373 -848 l 465 -848 q 651 -794 589 -848 q 713 -656 713 -741 l 713 -656 q 692 -560 713 -597 q 630 -524 670 -524 l 630 -524 q 586 -536 602 -524 q 570 -574 570 -549 l 570 -574 q 575 -611 570 -591 l 575 -611 q 580 -656 580 -644 l 580 -656 q 553 -714 580 -692 q 463 -737 526 -737 l 463 -737 q 327 -701 378 -737 q 276 -604 276 -665 l 276 -604 q 315 -526 276 -557 q 440 -493 353 -496 l 440 -493 q 471 -483 462 -492 q 480 -453 480 -474 l 480 -453 q 420 -386 480 -387 l 420 -386 q 283 -363 337 -384 q 204 -309 228 -342 q 179 -240 179 -277 l 179 -240 q 237 -146 179 -178 q 421 -115 295 -115 l 421 -115 q 597 -134 504 -115 q 755 -182 689 -154 l 755 -182 z"},"É":{"ha":686,"x_min":31,"x_max":812,"o":"m 755 -182 q 780 -188 770 -188 l 780 -188 q 804 -176 796 -188 q 812 -145 812 -164 l 812 -145 q 798 -94 812 -115 q 748 -56 783 -73 l 748 -56 q 595 -11 689 -28 q 410 5 501 5 l 410 5 q 199 -23 284 5 q 73 -102 114 -52 q 31 -215 31 -152 l 31 -215 q 87 -361 31 -301 q 250 -449 142 -422 l 250 -449 q 160 -509 191 -466 q 128 -605 128 -552 l 128 -605 q 174 -732 128 -677 q 296 -818 219 -788 q 465 -848 373 -848 l 465 -848 q 651 -794 589 -848 q 713 -656 713 -741 l 713 -656 q 692 -560 713 -597 q 630 -524 670 -524 l 630 -524 q 586 -536 602 -524 q 570 -574 570 -549 l 570 -574 q 575 -611 570 -591 l 575 -611 q 580 -656 580 -644 l 580 -656 q 553 -714 580 -692 q 463 -737 526 -737 l 463 -737 q 327 -701 378 -737 q 276 -604 276 -665 l 276 -604 q 315 -526 276 -557 q 440 -493 353 -496 l 440 -493 q 471 -483 462 -492 q 480 -453 480 -474 l 480 -453 q 420 -386 480 -387 l 420 -386 q 283 -363 337 -384 q 204 -309 228 -342 q 179 -240 179 -277 l 179 -240 q 237 -146 179 -178 q 421 -115 295 -115 l 421 -115 q 597 -134 504 -115 q 755 -182 689 -154 l 755 -182 z m 474 -912 q 447 -922 458 -912 q 436 -948 436 -933 l 436 -948 q 455 -984 436 -968 l 455 -984 l 627 -1131 q 671 -1148 647 -1148 l 671 -1148 q 716 -1129 697 -1148 q 735 -1085 735 -1111 l 735 -1085 q 682 -1014 735 -1042 l 682 -1014 l 495 -917 q 474 -912 486 -912 l 474 -912 z"},"Ê":{"ha":686,"x_min":31,"x_max":812,"o":"m 755 -182 q 780 -188 770 -188 l 780 -188 q 804 -176 796 -188 q 812 -145 812 -164 l 812 -145 q 798 -94 812 -115 q 748 -56 783 -73 l 748 -56 q 595 -11 689 -28 q 410 5 501 5 l 410 5 q 199 -23 284 5 q 73 -102 114 -52 q 31 -215 31 -152 l 31 -215 q 87 -361 31 -301 q 250 -449 142 -422 l 250 -449 q 160 -509 191 -466 q 128 -605 128 -552 l 128 -605 q 174 -732 128 -677 q 296 -818 219 -788 q 465 -848 373 -848 l 465 -848 q 651 -794 589 -848 q 713 -656 713 -741 l 713 -656 q 692 -560 713 -597 q 630 -524 670 -524 l 630 -524 q 586 -536 602 -524 q 570 -574 570 -549 l 570 -574 q 575 -611 570 -591 l 575 -611 q 580 -656 580 -644 l 580 -656 q 553 -714 580 -692 q 463 -737 526 -737 l 463 -737 q 327 -701 378 -737 q 276 -604 276 -665 l 276 -604 q 315 -526 276 -557 q 440 -493 353 -496 l 440 -493 q 471 -483 462 -492 q 480 -453 480 -474 l 480 -453 q 420 -386 480 -387 l 420 -386 q 283 -363 337 -384 q 204 -309 228 -342 q 179 -240 179 -277 l 179 -240 q 237 -146 179 -178 q 421 -115 295 -115 l 421 -115 q 597 -134 504 -115 q 755 -182 689 -154 l 755 -182 z m 539 -948 l 498 -1093 l 418 -951 q 389 -921 407 -931 q 352 -911 371 -911 l 352 -911 q 316 -922 331 -911 q 301 -953 301 -934 l 301 -953 q 314 -990 301 -970 l 314 -990 l 406 -1127 q 511 -1183 443 -1183 l 511 -1183 q 561 -1167 542 -1183 q 594 -1114 579 -1151 l 594 -1114 l 641 -993 q 647 -965 647 -978 l 647 -965 q 630 -926 647 -941 q 590 -912 613 -912 l 590 -912 q 559 -921 573 -912 q 539 -948 544 -931 l 539 -948 z"},"Ë":{"ha":686,"x_min":31,"x_max":812,"o":"m 755 -182 q 780 -188 770 -188 l 780 -188 q 804 -176 796 -188 q 812 -145 812 -164 l 812 -145 q 798 -94 812 -115 q 748 -56 783 -73 l 748 -56 q 595 -11 689 -28 q 410 5 501 5 l 410 5 q 199 -23 284 5 q 73 -102 114 -52 q 31 -215 31 -152 l 31 -215 q 87 -361 31 -301 q 250 -449 142 -422 l 250 -449 q 160 -509 191 -466 q 128 -605 128 -552 l 128 -605 q 174 -732 128 -677 q 296 -818 219 -788 q 465 -848 373 -848 l 465 -848 q 651 -794 589 -848 q 713 -656 713 -741 l 713 -656 q 692 -560 713 -597 q 630 -524 670 -524 l 630 -524 q 586 -536 602 -524 q 570 -574 570 -549 l 570 -574 q 575 -611 570 -591 l 575 -611 q 580 -656 580 -644 l 580 -656 q 553 -714 580 -692 q 463 -737 526 -737 l 463 -737 q 327 -701 378 -737 q 276 -604 276 -665 l 276 -604 q 315 -526 276 -557 q 440 -493 353 -496 l 440 -493 q 471 -483 462 -492 q 480 -453 480 -474 l 480 -453 q 420 -386 480 -387 l 420 -386 q 283 -363 337 -384 q 204 -309 228 -342 q 179 -240 179 -277 l 179 -240 q 237 -146 179 -178 q 421 -115 295 -115 l 421 -115 q 597 -134 504 -115 q 755 -182 689 -154 l 755 -182 z m 375 -912 q 324 -930 343 -912 q 305 -986 305 -949 l 305 -986 q 327 -1050 305 -1027 q 386 -1073 349 -1073 l 386 -1073 q 437 -1054 418 -1073 q 456 -999 456 -1036 l 456 -999 q 434 -935 456 -958 q 375 -912 412 -912 l 375 -912 z m 583 -912 q 532 -930 551 -912 q 513 -986 513 -949 l 513 -986 q 535 -1050 513 -1027 q 594 -1073 557 -1073 l 594 -1073 q 645 -1054 626 -1073 q 664 -999 664 -1036 l 664 -999 q 642 -935 664 -958 q 583 -912 620 -912 l 583 -912 z"},"È":{"ha":686,"x_min":31,"x_max":812,"o":"m 755 -182 q 780 -188 770 -188 l 780 -188 q 804 -176 796 -188 q 812 -145 812 -164 l 812 -145 q 798 -94 812 -115 q 748 -56 783 -73 l 748 -56 q 595 -11 689 -28 q 410 5 501 5 l 410 5 q 199 -23 284 5 q 73 -102 114 -52 q 31 -215 31 -152 l 31 -215 q 87 -361 31 -301 q 250 -449 142 -422 l 250 -449 q 160 -509 191 -466 q 128 -605 128 -552 l 128 -605 q 174 -732 128 -677 q 296 -818 219 -788 q 465 -848 373 -848 l 465 -848 q 651 -794 589 -848 q 713 -656 713 -741 l 713 -656 q 692 -560 713 -597 q 630 -524 670 -524 l 630 -524 q 586 -536 602 -524 q 570 -574 570 -549 l 570 -574 q 575 -611 570 -591 l 575 -611 q 580 -656 580 -644 l 580 -656 q 553 -714 580 -692 q 463 -737 526 -737 l 463 -737 q 327 -701 378 -737 q 276 -604 276 -665 l 276 -604 q 315 -526 276 -557 q 440 -493 353 -496 l 440 -493 q 471 -483 462 -492 q 480 -453 480 -474 l 480 -453 q 420 -386 480 -387 l 420 -386 q 283 -363 337 -384 q 204 -309 228 -342 q 179 -240 179 -277 l 179 -240 q 237 -146 179 -178 q 421 -115 295 -115 l 421 -115 q 597 -134 504 -115 q 755 -182 689 -154 l 755 -182 z m 461 -912 q 440 -917 449 -912 l 440 -917 l 253 -1014 q 200 -1085 200 -1042 l 200 -1085 q 219 -1129 200 -1111 q 264 -1148 238 -1148 l 264 -1148 q 308 -1131 288 -1148 l 308 -1131 l 480 -984 q 499 -948 499 -968 l 499 -948 q 488 -922 499 -933 q 461 -912 477 -912 l 461 -912 z"},"F":{"ha":712,"x_min":-1,"x_max":936,"o":"m 887 -829 q 926 -812 915 -825 q 936 -778 936 -799 l 936 -778 q 862 -714 936 -709 l 862 -714 l 827 -717 q 710 -725 768 -722 q 587 -728 651 -728 l 587 -728 l 542 -728 q 517 -458 530 -580 l 517 -458 l 689 -461 q 739 -448 726 -461 q 751 -413 751 -435 l 751 -413 q 731 -359 751 -379 q 674 -340 711 -340 l 674 -340 l 503 -340 l 497 -297 q 408 -62 476 -132 q 219 8 339 8 l 219 8 q 94 -21 151 8 q 10 -93 37 -51 l 10 -93 q -1 -134 -1 -110 l -1 -134 q 11 -176 -1 -158 q 39 -194 22 -194 l 39 -194 q 63 -186 51 -194 q 92 -155 74 -178 l 92 -155 q 211 -92 140 -92 l 211 -92 q 307 -138 268 -92 q 356 -285 345 -185 l 356 -285 l 362 -340 l 314 -340 q 275 -353 291 -340 q 258 -390 258 -366 l 258 -390 q 274 -437 258 -421 q 321 -454 290 -454 l 321 -454 q 376 -455 349 -454 l 376 -455 q 402 -722 388 -565 l 402 -722 q 250 -687 294 -712 q 206 -613 206 -662 l 206 -613 q 226 -548 206 -579 l 226 -548 q 232 -530 232 -539 l 232 -530 q 212 -498 232 -512 q 167 -485 192 -485 l 167 -485 q 121 -501 140 -485 l 121 -501 q 98 -542 109 -511 q 87 -611 87 -573 l 87 -611 q 215 -791 87 -735 q 587 -847 342 -847 l 587 -847 q 887 -829 757 -847 l 887 -829 z"},"G":{"ha":811,"x_min":64,"x_max":920,"o":"m 892 -221 q 913 -208 905 -221 q 920 -177 920 -196 l 920 -177 q 913 -141 920 -154 q 891 -118 906 -128 l 891 -118 q 703 10 832 -79 l 703 10 q 602 336 664 217 q 445 455 540 455 l 445 455 q 362 424 394 455 q 330 341 330 392 l 330 341 q 351 246 330 294 q 430 135 372 198 q 592 -9 487 72 l 592 -9 l 595 -28 q 440 5 516 5 l 440 5 q 243 -38 328 5 q 111 -162 158 -82 q 64 -348 64 -242 l 64 -348 q 120 -609 64 -496 q 275 -785 176 -723 q 495 -848 373 -848 l 495 -848 q 671 -793 612 -848 q 729 -649 729 -739 l 729 -649 q 708 -554 729 -590 q 646 -519 686 -519 l 646 -519 q 603 -532 619 -519 q 586 -568 586 -545 l 586 -568 q 590 -602 586 -578 l 590 -602 q 596 -646 596 -630 l 596 -646 q 571 -711 596 -688 q 485 -734 545 -734 l 485 -734 q 350 -692 412 -734 q 249 -566 287 -650 q 211 -366 211 -483 l 211 -366 q 277 -180 211 -246 q 466 -115 342 -115 l 466 -115 q 610 -146 535 -115 l 610 -146 l 624 -268 l 522 -268 q 479 -281 494 -268 q 464 -326 464 -295 l 464 -326 q 479 -370 464 -354 q 519 -386 494 -386 l 519 -386 l 706 -386 q 743 -371 728 -386 q 754 -330 757 -357 l 754 -330 q 734 -185 751 -298 l 734 -185 l 723 -109 q 869 -213 803 -169 l 869 -213 q 892 -221 882 -221 l 892 -221 z m 456 358 q 513 299 482 358 q 571 109 544 240 l 571 109 q 462 227 495 174 q 428 319 428 279 l 428 319 q 456 358 428 358 l 456 358 z"},"H":{"ha":873,"x_min":-16,"x_max":1002,"o":"m 974 -223 q 995 -211 987 -223 q 1002 -178 1002 -199 l 1002 -178 q 983 -116 1002 -139 l 983 -116 q 772 5 884 5 l 772 5 q 617 -70 675 5 q 559 -285 559 -145 l 559 -285 q 562 -353 559 -319 l 562 -353 q 418 -335 496 -341 l 418 -335 q 347 -330 366 -331 l 347 -330 q 291 -80 327 -228 l 291 -80 q 211 7 270 7 l 211 7 q 147 -51 147 7 l 147 -51 q 152 -87 147 -64 l 152 -87 q 206 -319 186 -224 l 206 -319 l 158 -317 q 110 -328 125 -317 q 95 -366 95 -340 l 95 -366 q 114 -414 95 -399 q 177 -432 133 -430 l 177 -432 l 230 -434 q 256 -649 256 -575 l 256 -649 q 242 -713 256 -696 q 205 -730 228 -730 l 205 -730 q 47 -613 135 -730 l 47 -613 q 18 -596 34 -596 l 18 -596 q -6 -609 4 -596 q -16 -642 -16 -622 l -16 -642 q 9 -708 -16 -673 l 9 -708 q 120 -808 53 -769 q 256 -848 187 -848 l 256 -848 q 357 -803 321 -848 q 392 -665 392 -759 l 392 -665 q 368 -440 392 -582 l 368 -440 l 466 -445 q 574 -455 529 -448 l 574 -455 q 629 -661 592 -565 q 721 -817 666 -757 q 844 -877 776 -877 l 844 -877 q 923 -837 894 -877 q 952 -734 952 -798 l 952 -734 q 699 -390 952 -486 l 699 -390 q 696 -307 696 -350 l 696 -307 q 722 -158 696 -202 q 795 -114 748 -114 l 795 -114 q 870 -135 836 -114 q 947 -209 904 -157 l 947 -209 q 974 -223 959 -223 l 974 -223 z m 839 -790 q 793 -750 817 -790 q 746 -641 768 -710 q 711 -490 724 -572 l 711 -490 q 829 -584 791 -523 q 867 -741 867 -645 l 867 -741 q 859 -777 867 -764 q 839 -790 851 -790 l 839 -790 z"},"I":{"ha":495,"x_min":-17,"x_max":556,"o":"m 494 -842 q 538 -829 520 -842 q 556 -799 556 -817 l 556 -799 q 536 -747 556 -767 q 479 -728 516 -728 l 479 -728 q 391 -727 421 -728 l 391 -727 q 373 -619 389 -715 l 373 -619 q 351 -488 355 -512 l 351 -488 l 330 -357 q 295 -111 308 -210 l 295 -111 q 352 -112 316 -112 l 352 -112 q 424 -98 405 -112 q 443 -56 443 -84 l 443 -56 q 423 -12 443 -30 q 365 6 402 6 l 365 6 q 286 4 340 6 l 286 4 q 220 2 236 2 l 220 2 q 82 13 157 2 l 82 13 q 35 18 49 18 l 35 18 q -2 6 13 18 q -17 -29 -17 -6 l -17 -29 q 15 -85 -17 -65 q 105 -106 47 -105 l 105 -106 l 152 -107 l 155 -129 q 190 -355 179 -289 l 190 -355 l 212 -486 q 248 -725 232 -602 l 248 -725 l 164 -724 q 115 -735 128 -724 q 101 -768 101 -747 l 101 -768 q 199 -841 101 -836 l 199 -841 q 311 -843 245 -843 l 311 -843 l 494 -842 z"},"Í":{"ha":495,"x_min":-17,"x_max":607,"o":"m 494 -842 q 538 -829 520 -842 q 556 -799 556 -817 l 556 -799 q 536 -747 556 -767 q 479 -728 516 -728 l 479 -728 q 391 -727 421 -728 l 391 -727 q 373 -619 389 -715 l 373 -619 q 351 -488 355 -512 l 351 -488 l 330 -357 q 295 -111 308 -210 l 295 -111 q 352 -112 316 -112 l 352 -112 q 424 -98 405 -112 q 443 -56 443 -84 l 443 -56 q 423 -12 443 -30 q 365 6 402 6 l 365 6 q 286 4 340 6 l 286 4 q 220 2 236 2 l 220 2 q 82 13 157 2 l 82 13 q 35 18 49 18 l 35 18 q -2 6 13 18 q -17 -29 -17 -6 l -17 -29 q 15 -85 -17 -65 q 105 -106 47 -105 l 105 -106 l 152 -107 l 155 -129 q 190 -355 179 -289 l 190 -355 l 212 -486 q 248 -725 232 -602 l 248 -725 l 164 -724 q 115 -735 128 -724 q 101 -768 101 -747 l 101 -768 q 199 -841 101 -836 l 199 -841 q 311 -843 245 -843 l 311 -843 l 494 -842 z m 346 -912 q 319 -922 330 -912 q 308 -948 308 -933 l 308 -948 q 327 -984 308 -968 l 327 -984 l 499 -1131 q 543 -1148 519 -1148 l 543 -1148 q 588 -1129 569 -1148 q 607 -1085 607 -1111 l 607 -1085 q 554 -1014 607 -1042 l 554 -1014 l 367 -917 q 346 -912 358 -912 l 346 -912 z"},"Î":{"ha":495,"x_min":-17,"x_max":556,"o":"m 494 -842 q 538 -829 520 -842 q 556 -799 556 -817 l 556 -799 q 536 -747 556 -767 q 479 -728 516 -728 l 479 -728 q 391 -727 421 -728 l 391 -727 q 373 -619 389 -715 l 373 -619 q 351 -488 355 -512 l 351 -488 l 330 -357 q 295 -111 308 -210 l 295 -111 q 352 -112 316 -112 l 352 -112 q 424 -98 405 -112 q 443 -56 443 -84 l 443 -56 q 423 -12 443 -30 q 365 6 402 6 l 365 6 q 286 4 340 6 l 286 4 q 220 2 236 2 l 220 2 q 82 13 157 2 l 82 13 q 35 18 49 18 l 35 18 q -2 6 13 18 q -17 -29 -17 -6 l -17 -29 q 15 -85 -17 -65 q 105 -106 47 -105 l 105 -106 l 152 -107 l 155 -129 q 190 -355 179 -289 l 190 -355 l 212 -486 q 248 -725 232 -602 l 248 -725 l 164 -724 q 115 -735 128 -724 q 101 -768 101 -747 l 101 -768 q 199 -841 101 -836 l 199 -841 q 311 -843 245 -843 l 311 -843 l 494 -842 z m 411 -948 l 370 -1093 l 290 -951 q 261 -921 279 -931 q 224 -911 243 -911 l 224 -911 q 188 -922 203 -911 q 173 -953 173 -934 l 173 -953 q 186 -990 173 -970 l 186 -990 l 278 -1127 q 383 -1183 315 -1183 l 383 -1183 q 433 -1167 414 -1183 q 466 -1114 451 -1151 l 466 -1114 l 513 -993 q 519 -965 519 -978 l 519 -965 q 502 -926 519 -941 q 462 -912 485 -912 l 462 -912 q 431 -921 445 -912 q 411 -948 416 -931 l 411 -948 z"},"Ï":{"ha":495,"x_min":-17,"x_max":556,"o":"m 494 -842 q 538 -829 520 -842 q 556 -799 556 -817 l 556 -799 q 536 -747 556 -767 q 479 -728 516 -728 l 479 -728 q 391 -727 421 -728 l 391 -727 q 373 -619 389 -715 l 373 -619 q 351 -488 355 -512 l 351 -488 l 330 -357 q 295 -111 308 -210 l 295 -111 q 352 -112 316 -112 l 352 -112 q 424 -98 405 -112 q 443 -56 443 -84 l 443 -56 q 423 -12 443 -30 q 365 6 402 6 l 365 6 q 286 4 340 6 l 286 4 q 220 2 236 2 l 220 2 q 82 13 157 2 l 82 13 q 35 18 49 18 l 35 18 q -2 6 13 18 q -17 -29 -17 -6 l -17 -29 q 15 -85 -17 -65 q 105 -106 47 -105 l 105 -106 l 152 -107 l 155 -129 q 190 -355 179 -289 l 190 -355 l 212 -486 q 248 -725 232 -602 l 248 -725 l 164 -724 q 115 -735 128 -724 q 101 -768 101 -747 l 101 -768 q 199 -841 101 -836 l 199 -841 q 311 -843 245 -843 l 311 -843 l 494 -842 z m 247 -912 q 196 -930 215 -912 q 177 -986 177 -949 l 177 -986 q 199 -1050 177 -1027 q 258 -1073 221 -1073 l 258 -1073 q 309 -1054 290 -1073 q 328 -999 328 -1036 l 328 -999 q 306 -935 328 -958 q 247 -912 284 -912 l 247 -912 z m 455 -912 q 404 -930 423 -912 q 385 -986 385 -949 l 385 -986 q 407 -1050 385 -1027 q 466 -1073 429 -1073 l 466 -1073 q 517 -1054 498 -1073 q 536 -999 536 -1036 l 536 -999 q 514 -935 536 -958 q 455 -912 492 -912 l 455 -912 z"},"Ì":{"ha":495,"x_min":-17,"x_max":556,"o":"m 494 -842 q 538 -829 520 -842 q 556 -799 556 -817 l 556 -799 q 536 -747 556 -767 q 479 -728 516 -728 l 479 -728 q 391 -727 421 -728 l 391 -727 q 373 -619 389 -715 l 373 -619 q 351 -488 355 -512 l 351 -488 l 330 -357 q 295 -111 308 -210 l 295 -111 q 352 -112 316 -112 l 352 -112 q 424 -98 405 -112 q 443 -56 443 -84 l 443 -56 q 423 -12 443 -30 q 365 6 402 6 l 365 6 q 286 4 340 6 l 286 4 q 220 2 236 2 l 220 2 q 82 13 157 2 l 82 13 q 35 18 49 18 l 35 18 q -2 6 13 18 q -17 -29 -17 -6 l -17 -29 q 15 -85 -17 -65 q 105 -106 47 -105 l 105 -106 l 152 -107 l 155 -129 q 190 -355 179 -289 l 190 -355 l 212 -486 q 248 -725 232 -602 l 248 -725 l 164 -724 q 115 -735 128 -724 q 101 -768 101 -747 l 101 -768 q 199 -841 101 -836 l 199 -841 q 311 -843 245 -843 l 311 -843 l 494 -842 z m 333 -912 q 312 -917 321 -912 l 312 -917 l 125 -1014 q 72 -1085 72 -1042 l 72 -1085 q 91 -1129 72 -1111 q 136 -1148 110 -1148 l 136 -1148 q 180 -1131 160 -1148 l 180 -1131 l 352 -984 q 371 -948 371 -968 l 371 -948 q 360 -922 371 -933 q 333 -912 349 -912 l 333 -912 z"},"J":{"ha":743,"x_min":71,"x_max":766,"o":"m 766 -767 q 754 -722 766 -737 q 713 -707 741 -707 l 713 -707 q 704 -634 711 -686 l 704 -634 q 693 -556 694 -564 l 693 -556 q 322 107 604 107 l 322 107 q 193 60 239 107 q 146 -58 146 13 l 146 -58 q 254 -282 146 -185 q 538 -444 362 -380 l 538 -444 q 555 -571 549 -515 l 555 -571 l 573 -722 q 461 -728 513 -728 l 461 -728 q 256 -701 322 -728 q 190 -613 190 -674 l 190 -613 q 210 -548 190 -583 l 210 -548 q 216 -527 216 -538 l 216 -527 q 195 -489 216 -506 q 148 -473 173 -473 l 148 -473 q 99 -500 116 -473 l 99 -500 q 71 -607 71 -546 l 71 -607 q 491 -847 71 -847 l 491 -847 q 709 -823 613 -847 l 709 -823 q 766 -767 766 -809 l 766 -767 z m 335 0 q 433 -74 384 0 q 519 -333 482 -148 l 519 -333 q 275 -71 275 -226 l 275 -71 q 291 -18 275 -37 q 335 0 307 0 l 335 0 z"},"K":{"ha":937,"x_min":26,"x_max":1066,"o":"m 1038 -223 q 1059 -211 1051 -223 q 1066 -178 1066 -199 l 1066 -178 q 1047 -116 1066 -139 l 1047 -116 q 950 -26 999 -58 q 834 5 901 5 l 834 5 q 713 -38 760 5 q 625 -174 666 -82 l 625 -174 q 576 -272 595 -240 q 537 -318 556 -305 q 489 -335 518 -332 l 489 -335 l 478 -261 q 397 -55 457 -118 q 230 8 336 8 l 230 8 q 108 -25 161 8 q 33 -111 54 -59 l 33 -111 q 26 -150 26 -129 l 26 -150 q 40 -202 26 -180 q 76 -224 54 -224 l 76 -224 q 98 -217 89 -224 q 115 -195 107 -211 l 115 -195 q 170 -114 146 -137 q 228 -91 193 -91 l 228 -91 q 297 -127 268 -91 q 337 -240 325 -164 l 337 -240 l 351 -335 l 335 -335 q 299 -348 312 -335 q 286 -384 286 -361 l 286 -384 q 300 -425 286 -410 q 333 -441 313 -441 l 333 -441 l 366 -441 q 376 -509 373 -490 l 376 -509 l 407 -734 q 358 -737 381 -737 l 358 -737 q 229 -707 273 -737 q 185 -623 185 -678 l 185 -623 q 191 -582 185 -598 q 205 -548 196 -567 l 205 -548 q 209 -530 209 -540 l 209 -530 q 189 -491 209 -508 q 143 -475 168 -475 l 143 -475 q 96 -503 111 -475 l 96 -503 q 66 -617 66 -556 l 66 -617 q 101 -732 66 -680 q 205 -815 135 -784 q 378 -847 275 -847 l 378 -847 q 461 -842 423 -847 q 543 -823 498 -837 l 543 -823 q 592 -767 592 -808 l 592 -767 q 545 -712 592 -712 l 545 -712 l 506 -443 q 697 -543 623 -455 q 819 -784 770 -632 l 819 -784 q 850 -827 828 -812 q 904 -842 871 -842 l 904 -842 q 948 -829 932 -842 q 963 -794 963 -817 l 963 -794 q 959 -771 963 -787 l 959 -771 q 816 -509 909 -606 q 613 -380 723 -412 l 613 -380 q 676 -353 651 -371 q 717 -308 700 -335 q 756 -235 734 -282 l 756 -235 q 814 -141 787 -169 q 877 -114 841 -114 l 877 -114 q 938 -135 909 -114 q 1011 -209 967 -157 l 1011 -209 q 1038 -223 1023 -223 l 1038 -223 z"},"L":{"ha":673,"x_min":-41,"x_max":802,"o":"m 774 -223 q 795 -211 787 -223 q 802 -178 802 -199 l 802 -178 q 783 -116 802 -139 l 783 -116 q 675 -22 727 -49 q 548 5 622 5 l 548 5 q 452 -8 496 5 q 345 -47 408 -21 l 345 -47 q 235 -88 288 -72 l 235 -88 q 82 5 184 5 l 82 5 q -7 -20 26 5 q -41 -86 -41 -46 l -41 -86 q 6 -167 -41 -135 q 131 -200 53 -200 l 131 -200 l 144 -200 l 162 -491 q 198 -656 168 -591 q 281 -767 228 -721 l 281 -767 q 386 -827 327 -807 q 511 -848 445 -848 l 511 -848 q 677 -792 619 -848 q 735 -646 735 -736 l 735 -646 q 713 -547 735 -585 q 652 -510 691 -510 l 652 -510 q 608 -523 624 -510 q 592 -562 592 -537 l 592 -562 q 596 -595 592 -571 l 596 -595 q 602 -645 602 -623 l 602 -645 q 578 -711 602 -687 q 503 -736 553 -736 l 503 -736 q 367 -678 415 -736 q 306 -498 319 -621 l 306 -498 l 283 -271 q 270 -188 278 -223 l 270 -188 q 430 -153 334 -177 l 430 -153 q 516 -133 486 -139 q 569 -127 546 -127 l 569 -127 q 669 -146 627 -127 q 747 -209 710 -166 l 747 -209 q 774 -223 759 -223 l 774 -223 z"},"M":{"ha":1232,"x_min":-1,"x_max":1361,"o":"m 232 5 q 179 -11 195 5 q 163 -74 163 -28 l 163 -74 q 170 -153 163 -105 q 191 -287 176 -202 l 191 -287 q 232 -559 217 -444 l 232 -559 q 241 -679 241 -631 l 241 -679 q 208 -724 241 -724 l 208 -724 q 146 -697 182 -724 q 65 -613 109 -671 l 65 -613 q 34 -594 51 -594 l 34 -594 q 10 -607 20 -594 q -1 -638 -1 -621 l -1 -638 q 6 -670 -1 -654 q 27 -708 12 -687 l 27 -708 q 134 -811 75 -775 q 252 -848 193 -848 l 252 -848 q 337 -813 307 -848 q 366 -711 366 -778 l 366 -711 q 361 -647 366 -684 q 352 -588 356 -611 q 346 -556 348 -565 l 346 -556 q 474 -783 403 -719 q 630 -848 545 -848 l 630 -848 q 733 -802 695 -848 q 770 -672 770 -756 l 770 -672 q 761 -590 770 -639 l 761 -590 q 878 -788 811 -728 q 1032 -848 945 -848 l 1032 -848 q 1140 -803 1102 -848 q 1177 -677 1177 -758 l 1177 -677 q 1164 -570 1177 -633 l 1164 -570 l 1103 -284 q 1093 -198 1093 -234 l 1093 -198 q 1113 -135 1093 -156 q 1167 -114 1132 -114 l 1167 -114 q 1232 -136 1200 -114 q 1306 -209 1263 -158 l 1306 -209 q 1333 -223 1318 -223 l 1333 -223 q 1354 -211 1346 -223 q 1361 -178 1361 -199 l 1361 -178 q 1342 -116 1361 -139 l 1342 -116 q 1239 -24 1290 -53 q 1132 5 1188 5 l 1132 5 q 999 -45 1047 5 q 951 -181 951 -96 l 951 -181 q 975 -352 951 -240 l 975 -352 l 1015 -535 q 1022 -567 1017 -544 q 1030 -610 1027 -590 q 1033 -651 1033 -631 l 1033 -651 q 1020 -703 1033 -686 q 981 -721 1006 -721 l 981 -721 q 883 -660 934 -721 q 785 -460 831 -600 q 709 -96 738 -320 l 709 -96 q 685 -15 702 -36 q 628 5 667 5 l 628 5 q 579 -11 594 5 q 563 -71 563 -27 l 563 -71 q 574 -178 563 -112 q 602 -335 585 -245 l 602 -335 q 648 -647 648 -577 l 648 -647 q 634 -703 648 -685 q 590 -721 619 -721 l 590 -721 q 489 -665 541 -721 q 388 -468 437 -610 q 305 -86 338 -327 l 305 -86 q 285 -15 298 -35 q 232 5 271 5 l 232 5 z"},"N":{"ha":884,"x_min":-1,"x_max":1013,"o":"m 232 5 q 179 -11 195 5 q 163 -74 163 -28 l 163 -74 q 169 -149 163 -105 q 190 -282 175 -193 l 190 -282 q 206 -379 192 -294 q 231 -559 220 -465 l 231 -559 q 241 -679 241 -639 l 241 -679 q 208 -724 241 -724 l 208 -724 q 146 -697 183 -724 q 65 -613 108 -671 l 65 -613 q 34 -594 51 -594 l 34 -594 q 10 -607 20 -594 q -1 -638 -1 -621 l -1 -638 q 5 -670 -1 -655 q 27 -708 11 -686 l 27 -708 q 136 -811 76 -775 q 262 -848 196 -848 l 262 -848 q 345 -814 317 -848 q 372 -715 372 -780 l 372 -715 q 356 -547 372 -657 l 356 -547 q 483 -771 406 -695 q 664 -848 560 -848 l 664 -848 q 788 -801 746 -848 q 829 -677 829 -755 l 829 -677 q 816 -570 829 -633 l 816 -570 l 755 -284 q 745 -198 745 -234 l 745 -198 q 765 -135 745 -156 q 819 -114 784 -114 l 819 -114 q 884 -136 852 -114 q 958 -209 915 -158 l 958 -209 q 985 -223 970 -223 l 985 -223 q 1006 -211 998 -223 q 1013 -178 1013 -199 l 1013 -178 q 994 -116 1013 -139 l 994 -116 q 891 -24 942 -53 q 784 5 840 5 l 784 5 q 651 -45 699 5 q 603 -181 603 -96 l 603 -181 q 609 -253 603 -214 q 627 -352 614 -292 l 627 -352 l 667 -535 q 674 -567 669 -544 q 682 -610 679 -590 q 685 -651 685 -631 l 685 -651 q 667 -702 685 -683 q 616 -721 649 -721 l 616 -721 q 496 -657 556 -721 q 385 -450 436 -593 q 305 -86 334 -308 l 305 -86 q 285 -15 298 -35 q 232 5 271 5 l 232 5 z"},"Ñ":{"ha":884,"x_min":-1,"x_max":1013,"o":"m 232 5 q 179 -11 195 5 q 163 -74 163 -28 l 163 -74 q 169 -149 163 -105 q 190 -282 175 -193 l 190 -282 q 206 -379 192 -294 q 231 -559 220 -465 l 231 -559 q 241 -679 241 -639 l 241 -679 q 208 -724 241 -724 l 208 -724 q 146 -697 183 -724 q 65 -613 108 -671 l 65 -613 q 34 -594 51 -594 l 34 -594 q 10 -607 20 -594 q -1 -638 -1 -621 l -1 -638 q 5 -670 -1 -655 q 27 -708 11 -686 l 27 -708 q 136 -811 76 -775 q 262 -848 196 -848 l 262 -848 q 345 -814 317 -848 q 372 -715 372 -780 l 372 -715 q 356 -547 372 -657 l 356 -547 q 483 -771 406 -695 q 664 -848 560 -848 l 664 -848 q 788 -801 746 -848 q 829 -677 829 -755 l 829 -677 q 816 -570 829 -633 l 816 -570 l 755 -284 q 745 -198 745 -234 l 745 -198 q 765 -135 745 -156 q 819 -114 784 -114 l 819 -114 q 884 -136 852 -114 q 958 -209 915 -158 l 958 -209 q 985 -223 970 -223 l 985 -223 q 1006 -211 998 -223 q 1013 -178 1013 -199 l 1013 -178 q 994 -116 1013 -139 l 994 -116 q 891 -24 942 -53 q 784 5 840 5 l 784 5 q 651 -45 699 5 q 603 -181 603 -96 l 603 -181 q 609 -253 603 -214 q 627 -352 614 -292 l 627 -352 l 667 -535 q 674 -567 669 -544 q 682 -610 679 -590 q 685 -651 685 -631 l 685 -651 q 667 -702 685 -683 q 616 -721 649 -721 l 616 -721 q 496 -657 556 -721 q 385 -450 436 -593 q 305 -86 334 -308 l 305 -86 q 285 -15 298 -35 q 232 5 271 5 l 232 5 z m 660 -912 q 630 -917 644 -912 q 594 -938 616 -923 l 594 -938 l 487 -1012 l 443 -949 q 423 -932 435 -938 q 397 -927 410 -927 l 397 -927 q 365 -937 378 -927 q 351 -966 351 -947 l 351 -966 q 388 -1047 351 -993 l 388 -1047 q 485 -1111 432 -1111 l 485 -1111 q 516 -1106 502 -1111 q 551 -1085 529 -1101 l 551 -1085 l 658 -1011 l 702 -1074 q 723 -1090 710 -1085 q 748 -1096 735 -1096 l 748 -1096 q 781 -1086 767 -1096 q 794 -1057 794 -1076 l 794 -1057 q 786 -1027 794 -1044 q 757 -976 778 -1011 l 757 -976 q 712 -927 737 -943 q 660 -912 687 -912 l 660 -912 z"},"O":{"ha":816,"x_min":64,"x_max":798,"o":"m 380 5 q 220 -35 291 5 q 106 -152 148 -75 q 64 -338 64 -230 l 64 -338 q 120 -606 64 -490 q 271 -785 175 -722 q 482 -848 366 -848 l 482 -848 q 643 -808 571 -848 q 756 -690 714 -768 q 798 -505 798 -613 l 798 -505 q 743 -237 798 -353 q 592 -58 687 -121 q 380 5 496 5 l 380 5 z m 390 -113 q 528 -161 468 -113 q 619 -294 587 -209 q 651 -488 651 -380 l 651 -488 q 601 -668 651 -607 q 472 -730 551 -730 l 472 -730 q 336 -682 395 -730 q 244 -549 277 -635 q 211 -355 211 -464 l 211 -355 q 261 -174 211 -236 q 390 -113 311 -113 l 390 -113 z"},"Ó":{"ha":816,"x_min":64,"x_max":798,"o":"m 380 5 q 220 -35 291 5 q 106 -152 148 -75 q 64 -338 64 -230 l 64 -338 q 120 -606 64 -490 q 271 -785 175 -722 q 482 -848 366 -848 l 482 -848 q 643 -808 571 -848 q 756 -690 714 -768 q 798 -505 798 -613 l 798 -505 q 743 -237 798 -353 q 592 -58 687 -121 q 380 5 496 5 l 380 5 z m 390 -113 q 528 -161 468 -113 q 619 -294 587 -209 q 651 -488 651 -380 l 651 -488 q 601 -668 651 -607 q 472 -730 551 -730 l 472 -730 q 336 -682 395 -730 q 244 -549 277 -635 q 211 -355 211 -464 l 211 -355 q 261 -174 211 -236 q 390 -113 311 -113 l 390 -113 z m 490 -907 q 463 -917 474 -907 q 452 -943 452 -928 l 452 -943 q 471 -979 452 -963 l 471 -979 l 643 -1126 q 687 -1143 663 -1143 l 687 -1143 q 732 -1124 713 -1143 q 751 -1080 751 -1106 l 751 -1080 q 698 -1009 751 -1037 l 698 -1009 l 511 -912 q 490 -907 502 -907 l 490 -907 z"},"Ô":{"ha":816,"x_min":64,"x_max":798,"o":"m 380 5 q 220 -35 291 5 q 106 -152 148 -75 q 64 -338 64 -230 l 64 -338 q 120 -606 64 -490 q 271 -785 175 -722 q 482 -848 366 -848 l 482 -848 q 643 -808 571 -848 q 756 -690 714 -768 q 798 -505 798 -613 l 798 -505 q 743 -237 798 -353 q 592 -58 687 -121 q 380 5 496 5 l 380 5 z m 390 -113 q 528 -161 468 -113 q 619 -294 587 -209 q 651 -488 651 -380 l 651 -488 q 601 -668 651 -607 q 472 -730 551 -730 l 472 -730 q 336 -682 395 -730 q 244 -549 277 -635 q 211 -355 211 -464 l 211 -355 q 261 -174 211 -236 q 390 -113 311 -113 l 390 -113 z m 555 -943 l 514 -1088 l 434 -946 q 405 -916 423 -926 q 368 -906 387 -906 l 368 -906 q 332 -917 347 -906 q 317 -948 317 -929 l 317 -948 q 330 -985 317 -965 l 330 -985 l 422 -1122 q 527 -1178 459 -1178 l 527 -1178 q 577 -1162 558 -1178 q 610 -1109 595 -1146 l 610 -1109 l 657 -988 q 663 -960 663 -973 l 663 -960 q 646 -921 663 -936 q 606 -907 629 -907 l 606 -907 q 575 -916 589 -907 q 555 -943 560 -926 l 555 -943 z"},"Ö":{"ha":816,"x_min":64,"x_max":798,"o":"m 380 5 q 220 -35 291 5 q 106 -152 148 -75 q 64 -338 64 -230 l 64 -338 q 120 -606 64 -490 q 271 -785 175 -722 q 482 -848 366 -848 l 482 -848 q 643 -808 571 -848 q 756 -690 714 -768 q 798 -505 798 -613 l 798 -505 q 743 -237 798 -353 q 592 -58 687 -121 q 380 5 496 5 l 380 5 z m 390 -113 q 528 -161 468 -113 q 619 -294 587 -209 q 651 -488 651 -380 l 651 -488 q 601 -668 651 -607 q 472 -730 551 -730 l 472 -730 q 336 -682 395 -730 q 244 -549 277 -635 q 211 -355 211 -464 l 211 -355 q 261 -174 211 -236 q 390 -113 311 -113 l 390 -113 z m 391 -907 q 340 -925 359 -907 q 321 -981 321 -944 l 321 -981 q 343 -1045 321 -1022 q 402 -1068 365 -1068 l 402 -1068 q 453 -1049 434 -1068 q 472 -994 472 -1031 l 472 -994 q 450 -930 472 -953 q 391 -907 428 -907 l 391 -907 z m 599 -907 q 548 -925 567 -907 q 529 -981 529 -944 l 529 -981 q 551 -1045 529 -1022 q 610 -1068 573 -1068 l 610 -1068 q 661 -1049 642 -1068 q 680 -994 680 -1031 l 680 -994 q 658 -930 680 -953 q 599 -907 636 -907 l 599 -907 z"},"Ò":{"ha":816,"x_min":64,"x_max":798,"o":"m 380 5 q 220 -35 291 5 q 106 -152 148 -75 q 64 -338 64 -230 l 64 -338 q 120 -606 64 -490 q 271 -785 175 -722 q 482 -848 366 -848 l 482 -848 q 643 -808 571 -848 q 756 -690 714 -768 q 798 -505 798 -613 l 798 -505 q 743 -237 798 -353 q 592 -58 687 -121 q 380 5 496 5 l 380 5 z m 390 -113 q 528 -161 468 -113 q 619 -294 587 -209 q 651 -488 651 -380 l 651 -488 q 601 -668 651 -607 q 472 -730 551 -730 l 472 -730 q 336 -682 395 -730 q 244 -549 277 -635 q 211 -355 211 -464 l 211 -355 q 261 -174 211 -236 q 390 -113 311 -113 l 390 -113 z m 477 -907 q 456 -912 465 -907 l 456 -912 l 269 -1009 q 216 -1080 216 -1037 l 216 -1080 q 235 -1124 216 -1106 q 280 -1143 254 -1143 l 280 -1143 q 324 -1126 304 -1143 l 324 -1126 l 496 -979 q 515 -943 515 -963 l 515 -943 q 504 -917 515 -928 q 477 -907 493 -907 l 477 -907 z"},"Ø":{"ha":816,"x_min":64,"x_max":798,"o":"m 595 -830 q 743 -713 687 -797 q 798 -505 798 -630 l 798 -505 q 743 -237 798 -353 q 592 -58 687 -121 q 380 5 496 5 l 380 5 l 373 5 l 352 84 q 335 105 348 98 q 303 112 321 112 l 303 112 q 264 101 281 112 q 247 70 247 89 l 247 70 q 249 57 247 65 l 249 57 l 268 -13 q 120 -129 175 -45 q 64 -338 64 -213 l 64 -338 q 120 -606 64 -490 q 271 -785 175 -722 q 482 -848 366 -848 l 482 -848 l 489 -848 l 508 -921 q 526 -942 512 -935 q 557 -949 539 -949 l 557 -949 q 597 -937 579 -949 q 614 -906 614 -926 l 614 -906 q 612 -893 614 -901 l 612 -893 l 595 -830 z m 211 -355 q 235 -219 211 -274 q 301 -137 259 -164 l 301 -137 l 387 -455 l 458 -730 q 329 -676 385 -726 q 242 -543 273 -627 q 211 -355 211 -460 l 211 -355 z m 403 -113 q 534 -166 478 -117 q 621 -299 590 -216 q 651 -488 651 -383 l 651 -488 q 627 -624 651 -569 q 561 -706 603 -679 l 561 -706 l 491 -451 l 403 -113 z"},"Õ":{"ha":816,"x_min":64,"x_max":798,"o":"m 380 5 q 220 -35 291 5 q 106 -152 148 -75 q 64 -338 64 -230 l 64 -338 q 120 -606 64 -490 q 271 -785 175 -722 q 482 -848 366 -848 l 482 -848 q 643 -808 571 -848 q 756 -690 714 -768 q 798 -505 798 -613 l 798 -505 q 743 -237 798 -353 q 592 -58 687 -121 q 380 5 496 5 l 380 5 z m 390 -113 q 528 -161 468 -113 q 619 -294 587 -209 q 651 -488 651 -380 l 651 -488 q 601 -668 651 -607 q 472 -730 551 -730 l 472 -730 q 336 -682 395 -730 q 244 -549 277 -635 q 211 -355 211 -464 l 211 -355 q 261 -174 211 -236 q 390 -113 311 -113 l 390 -113 z m 591 -907 q 561 -912 575 -907 q 525 -933 547 -918 l 525 -933 l 418 -1007 l 374 -944 q 354 -927 366 -933 q 328 -922 341 -922 l 328 -922 q 296 -932 309 -922 q 282 -961 282 -942 l 282 -961 q 319 -1042 282 -988 l 319 -1042 q 416 -1106 363 -1106 l 416 -1106 q 447 -1101 433 -1106 q 482 -1080 460 -1096 l 482 -1080 l 589 -1006 l 633 -1069 q 654 -1085 641 -1080 q 679 -1091 666 -1091 l 679 -1091 q 712 -1081 698 -1091 q 725 -1052 725 -1071 l 725 -1052 q 717 -1022 725 -1039 q 688 -971 709 -1006 l 688 -971 q 643 -922 668 -938 q 591 -907 618 -907 l 591 -907 z"},"P":{"ha":805,"x_min":46,"x_max":823,"o":"m 823 -596 q 779 -440 823 -511 q 651 -324 735 -369 q 451 -271 567 -279 l 451 -271 l 408 -30 q 272 109 383 109 l 272 109 q 160 73 211 109 q 77 -37 108 37 q 46 -219 46 -111 l 46 -219 q 112 -563 46 -422 q 288 -775 177 -705 q 531 -846 398 -846 l 531 -846 q 691 -813 625 -846 q 790 -723 756 -780 q 823 -596 823 -667 l 823 -596 z m 469 -374 q 674 -587 674 -400 l 674 -587 q 631 -694 674 -653 q 496 -736 587 -736 l 496 -736 q 317 -671 393 -736 q 199 -490 240 -606 q 157 -227 157 -375 l 157 -227 q 170 -117 157 -165 q 202 -42 182 -69 q 239 -16 221 -16 l 239 -16 q 277 -85 264 -16 l 277 -85 l 310 -274 q 276 -279 271 -280 l 276 -279 q 237 -297 246 -284 q 228 -332 228 -311 l 228 -332 q 241 -367 228 -354 q 275 -380 253 -380 l 275 -380 q 290 -379 285 -380 l 290 -379 q 327 -374 314 -375 l 327 -374 q 364 -583 340 -452 l 364 -583 q 392 -631 370 -617 q 442 -646 413 -646 l 442 -646 q 490 -633 475 -646 q 504 -594 504 -621 l 504 -594 q 502 -568 504 -578 l 502 -568 l 469 -374 z"},"Þ":{"ha":776,"x_min":42,"x_max":781,"o":"m 781 -506 q 738 -360 781 -427 q 611 -251 695 -293 q 407 -205 527 -209 l 407 -205 q 374 -30 393 -126 l 374 -30 q 328 75 360 41 q 240 109 296 109 l 240 109 q 140 70 185 109 q 68 -39 94 31 q 42 -202 42 -110 l 42 -202 q 79 -441 42 -335 q 184 -617 115 -547 q 347 -715 253 -687 l 347 -715 l 371 -885 q 397 -925 374 -912 q 448 -938 420 -938 l 448 -938 q 497 -926 482 -938 q 511 -891 511 -915 l 511 -891 q 510 -874 511 -880 l 510 -874 l 491 -733 q 650 -701 585 -731 q 748 -620 715 -671 q 781 -506 781 -570 l 781 -506 z m 425 -308 q 584 -368 537 -318 q 631 -487 631 -419 l 631 -487 q 594 -584 631 -548 q 475 -625 556 -621 l 475 -625 q 425 -308 451 -458 l 425 -308 z m 207 -16 q 245 -85 232 -16 l 245 -85 q 268 -213 261 -171 l 268 -213 q 254 -215 262 -213 l 254 -215 q 216 -232 224 -220 q 208 -266 208 -245 l 208 -266 q 220 -303 208 -290 q 253 -316 231 -316 l 253 -316 q 268 -315 263 -316 l 268 -315 l 285 -312 q 330 -599 311 -469 l 330 -599 q 198 -458 243 -559 q 153 -207 153 -358 l 153 -207 q 168 -77 153 -138 q 207 -16 183 -16 l 207 -16 z"},"Q":{"ha":816,"x_min":64,"x_max":881,"o":"m 860 96 q 876 107 870 96 q 881 134 881 117 l 881 134 q 864 197 881 166 l 864 197 q 775 293 830 259 q 661 326 719 326 l 661 326 q 562 308 602 326 q 494 253 522 289 q 440 156 466 216 l 440 156 q 396 64 413 94 q 359 19 378 33 q 310 -1 340 5 l 310 -1 q 132 -111 199 -23 q 64 -338 64 -199 l 64 -338 q 120 -606 64 -490 q 271 -785 175 -722 q 482 -848 366 -848 l 482 -848 q 643 -808 571 -848 q 756 -690 714 -768 q 798 -505 798 -613 l 798 -505 q 760 -278 798 -379 q 655 -110 722 -177 q 501 -15 588 -43 l 501 -15 q 545 26 526 -1 q 584 104 563 53 l 584 104 q 634 184 607 160 q 699 208 660 208 l 699 208 q 763 186 732 208 q 833 112 794 163 l 833 112 q 860 96 845 96 l 860 96 z m 390 -113 q 528 -161 468 -113 q 619 -294 587 -209 q 651 -488 651 -380 l 651 -488 q 601 -668 651 -607 q 472 -730 551 -730 l 472 -730 q 337 -681 396 -730 q 244 -548 277 -633 q 211 -355 211 -463 l 211 -355 q 261 -174 211 -236 q 390 -113 311 -113 l 390 -113 z"},"R":{"ha":880,"x_min":55,"x_max":1009,"o":"m 981 -223 q 1002 -211 994 -223 q 1009 -178 1009 -199 l 1009 -178 q 990 -116 1009 -139 l 990 -116 q 893 -26 942 -58 q 777 5 844 5 l 777 5 q 667 -30 712 5 q 580 -150 621 -65 l 580 -150 q 528 -250 547 -218 q 491 -297 509 -283 q 445 -314 472 -311 l 445 -314 q 422 -182 441 -293 l 422 -182 q 412 -121 414 -132 l 412 -121 q 372 -27 402 -60 q 281 5 342 5 l 281 5 q 163 -34 214 5 q 83 -144 111 -74 q 55 -305 55 -215 l 55 -305 q 114 -595 55 -473 q 278 -781 172 -717 q 521 -846 383 -846 l 521 -846 q 682 -817 617 -846 q 779 -737 747 -788 q 810 -622 810 -686 l 810 -622 q 784 -512 810 -566 q 704 -418 757 -459 q 575 -357 651 -377 l 575 -357 q 649 -315 623 -344 q 701 -230 675 -286 l 701 -230 q 757 -142 729 -170 q 820 -114 784 -114 l 820 -114 q 881 -135 852 -114 q 954 -209 910 -157 l 954 -209 q 981 -223 966 -223 l 981 -223 z m 280 -165 l 307 -315 q 261 -331 273 -315 q 248 -367 248 -347 l 248 -367 q 264 -405 248 -391 q 299 -419 279 -419 l 299 -419 l 324 -419 q 354 -588 340 -517 l 354 -588 q 438 -653 367 -653 l 438 -653 q 495 -602 495 -653 l 495 -602 q 494 -585 495 -591 l 494 -585 l 464 -419 q 563 -445 518 -422 q 634 -509 607 -468 q 660 -602 660 -550 l 660 -602 q 617 -701 660 -665 q 491 -737 574 -737 l 491 -737 q 320 -688 393 -737 q 205 -544 246 -640 q 164 -312 164 -449 l 164 -312 q 177 -202 164 -248 q 209 -133 190 -156 q 245 -110 228 -110 l 245 -110 q 267 -123 258 -110 q 280 -165 275 -136 l 280 -165 z"},"S":{"ha":693,"x_min":34,"x_max":693,"o":"m 327 8 q 114 -42 194 8 q 34 -197 34 -93 l 34 -197 q 53 -281 34 -252 q 109 -310 72 -310 l 109 -310 q 153 -296 136 -310 q 170 -260 170 -282 l 170 -260 q 167 -225 170 -240 l 167 -225 q 166 -211 167 -221 q 164 -190 164 -201 l 164 -190 q 210 -123 164 -145 q 337 -101 255 -101 l 337 -101 q 470 -131 422 -101 q 518 -217 518 -162 l 518 -217 q 496 -275 518 -251 q 441 -316 474 -300 q 348 -357 408 -333 l 348 -357 q 223 -414 271 -387 q 140 -487 174 -441 q 105 -603 105 -534 l 105 -603 q 144 -731 105 -675 q 255 -818 182 -787 q 425 -849 327 -849 l 425 -849 q 559 -827 498 -849 q 657 -762 620 -806 q 693 -654 693 -718 l 693 -654 q 674 -559 693 -591 q 618 -527 655 -527 l 618 -527 q 575 -543 592 -527 q 557 -581 557 -559 l 557 -581 q 560 -616 557 -600 l 560 -616 q 563 -654 563 -646 l 563 -654 q 522 -718 563 -696 q 420 -740 481 -740 l 420 -740 q 289 -708 334 -740 q 243 -620 243 -677 l 243 -620 q 267 -555 243 -582 q 325 -510 290 -528 q 423 -467 360 -492 l 423 -467 q 545 -411 499 -436 q 624 -343 591 -386 q 656 -237 656 -300 l 656 -237 q 567 -55 656 -119 q 327 8 477 8 l 327 8 z"},"T":{"ha":697,"x_min":35,"x_max":903,"o":"m 841 -830 q 888 -809 872 -824 q 903 -774 903 -794 l 903 -774 q 885 -726 903 -741 q 826 -714 866 -711 l 826 -714 q 686 -723 736 -721 q 553 -727 635 -726 l 553 -727 q 485 -357 516 -543 l 485 -357 q 462 -199 474 -289 q 446 -55 450 -110 l 446 -55 q 422 -10 444 -26 q 369 5 400 5 l 369 5 q 318 -11 336 5 q 300 -53 300 -27 l 300 -53 q 308 -132 300 -77 q 325 -249 315 -188 l 325 -249 q 342 -355 336 -310 l 342 -355 q 367 -506 353 -431 q 395 -648 381 -581 l 395 -648 q 402 -682 398 -663 q 411 -726 406 -702 l 411 -726 q 257 -710 313 -723 q 178 -673 201 -697 q 154 -613 154 -650 l 154 -613 q 174 -548 154 -579 l 174 -548 q 178 -533 178 -541 l 178 -533 q 156 -497 178 -514 q 109 -481 133 -481 l 109 -481 q 81 -491 92 -481 l 81 -491 q 48 -539 61 -508 q 35 -611 35 -571 l 35 -611 q 91 -747 35 -696 q 260 -823 146 -799 q 551 -847 373 -847 l 551 -847 q 727 -843 661 -847 q 841 -830 792 -839 l 841 -830 z"},"U":{"ha":890,"x_min":-1,"x_max":1019,"o":"m 332 5 q 205 -41 248 5 q 162 -166 162 -88 l 162 -166 q 175 -273 162 -210 l 175 -273 l 237 -559 q 247 -603 239 -567 q 254 -681 254 -639 l 254 -681 q 245 -717 254 -705 q 219 -729 235 -729 l 219 -729 q 149 -700 189 -729 q 65 -613 109 -672 l 65 -613 q 34 -594 51 -594 l 34 -594 q 10 -607 20 -594 q -1 -638 -1 -621 l -1 -638 q 27 -708 -1 -669 l 27 -708 q 266 -848 129 -848 l 266 -848 q 362 -811 327 -848 q 396 -702 396 -774 l 396 -702 q 389 -608 396 -651 q 365 -491 382 -565 l 365 -491 l 324 -308 q 317 -276 322 -299 q 309 -232 312 -253 q 306 -192 306 -212 l 306 -192 q 324 -141 306 -160 q 375 -122 342 -122 l 375 -122 q 497 -186 435 -122 q 611 -392 558 -250 q 692 -757 663 -535 l 692 -757 q 713 -828 699 -808 q 765 -848 726 -848 l 765 -848 q 817 -827 800 -848 q 834 -759 834 -806 l 834 -759 q 828 -688 834 -732 q 808 -565 821 -644 l 808 -565 q 765 -284 781 -412 l 765 -284 q 757 -198 757 -226 l 757 -198 q 776 -135 757 -157 q 825 -114 794 -114 l 825 -114 q 890 -136 858 -114 q 964 -209 921 -158 l 964 -209 q 991 -223 976 -223 l 991 -223 q 1012 -211 1004 -223 q 1019 -178 1019 -199 l 1019 -178 q 1000 -116 1019 -139 l 1000 -116 q 897 -24 948 -53 q 790 5 846 5 l 790 5 q 663 -37 707 5 q 619 -148 619 -80 l 619 -148 q 635 -296 619 -186 l 635 -296 q 509 -72 585 -149 q 332 5 432 5 l 332 5 z"},"Ú":{"ha":890,"x_min":-1,"x_max":1019,"o":"m 332 5 q 205 -41 248 5 q 162 -166 162 -88 l 162 -166 q 175 -273 162 -210 l 175 -273 l 237 -559 q 247 -603 239 -567 q 254 -681 254 -639 l 254 -681 q 245 -717 254 -705 q 219 -729 235 -729 l 219 -729 q 149 -700 189 -729 q 65 -613 109 -672 l 65 -613 q 34 -594 51 -594 l 34 -594 q 10 -607 20 -594 q -1 -638 -1 -621 l -1 -638 q 27 -708 -1 -669 l 27 -708 q 266 -848 129 -848 l 266 -848 q 362 -811 327 -848 q 396 -702 396 -774 l 396 -702 q 389 -608 396 -651 q 365 -491 382 -565 l 365 -491 l 324 -308 q 317 -276 322 -299 q 309 -232 312 -253 q 306 -192 306 -212 l 306 -192 q 324 -141 306 -160 q 375 -122 342 -122 l 375 -122 q 497 -186 435 -122 q 611 -392 558 -250 q 692 -757 663 -535 l 692 -757 q 713 -828 699 -808 q 765 -848 726 -848 l 765 -848 q 817 -827 800 -848 q 834 -759 834 -806 l 834 -759 q 828 -688 834 -732 q 808 -565 821 -644 l 808 -565 q 765 -284 781 -412 l 765 -284 q 757 -198 757 -226 l 757 -198 q 776 -135 757 -157 q 825 -114 794 -114 l 825 -114 q 890 -136 858 -114 q 964 -209 921 -158 l 964 -209 q 991 -223 976 -223 l 991 -223 q 1012 -211 1004 -223 q 1019 -178 1019 -199 l 1019 -178 q 1000 -116 1019 -139 l 1000 -116 q 897 -24 948 -53 q 790 5 846 5 l 790 5 q 663 -37 707 5 q 619 -148 619 -80 l 619 -148 q 635 -296 619 -186 l 635 -296 q 509 -72 585 -149 q 332 5 432 5 l 332 5 z m 541 -912 q 514 -922 525 -912 q 503 -948 503 -933 l 503 -948 q 522 -984 503 -968 l 522 -984 l 694 -1131 q 738 -1148 714 -1148 l 738 -1148 q 783 -1129 764 -1148 q 802 -1085 802 -1111 l 802 -1085 q 749 -1014 802 -1042 l 749 -1014 l 562 -917 q 541 -912 553 -912 l 541 -912 z"},"Û":{"ha":890,"x_min":-1,"x_max":1019,"o":"m 332 5 q 205 -41 248 5 q 162 -166 162 -88 l 162 -166 q 175 -273 162 -210 l 175 -273 l 237 -559 q 247 -603 239 -567 q 254 -681 254 -639 l 254 -681 q 245 -717 254 -705 q 219 -729 235 -729 l 219 -729 q 149 -700 189 -729 q 65 -613 109 -672 l 65 -613 q 34 -594 51 -594 l 34 -594 q 10 -607 20 -594 q -1 -638 -1 -621 l -1 -638 q 27 -708 -1 -669 l 27 -708 q 266 -848 129 -848 l 266 -848 q 362 -811 327 -848 q 396 -702 396 -774 l 396 -702 q 389 -608 396 -651 q 365 -491 382 -565 l 365 -491 l 324 -308 q 317 -276 322 -299 q 309 -232 312 -253 q 306 -192 306 -212 l 306 -192 q 324 -141 306 -160 q 375 -122 342 -122 l 375 -122 q 497 -186 435 -122 q 611 -392 558 -250 q 692 -757 663 -535 l 692 -757 q 713 -828 699 -808 q 765 -848 726 -848 l 765 -848 q 817 -827 800 -848 q 834 -759 834 -806 l 834 -759 q 828 -688 834 -732 q 808 -565 821 -644 l 808 -565 q 765 -284 781 -412 l 765 -284 q 757 -198 757 -226 l 757 -198 q 776 -135 757 -157 q 825 -114 794 -114 l 825 -114 q 890 -136 858 -114 q 964 -209 921 -158 l 964 -209 q 991 -223 976 -223 l 991 -223 q 1012 -211 1004 -223 q 1019 -178 1019 -199 l 1019 -178 q 1000 -116 1019 -139 l 1000 -116 q 897 -24 948 -53 q 790 5 846 5 l 790 5 q 663 -37 707 5 q 619 -148 619 -80 l 619 -148 q 635 -296 619 -186 l 635 -296 q 509 -72 585 -149 q 332 5 432 5 l 332 5 z m 606 -948 l 565 -1093 l 485 -951 q 456 -921 474 -931 q 419 -911 438 -911 l 419 -911 q 383 -922 398 -911 q 368 -953 368 -934 l 368 -953 q 381 -990 368 -970 l 381 -990 l 473 -1127 q 578 -1183 510 -1183 l 578 -1183 q 628 -1167 609 -1183 q 661 -1114 646 -1151 l 661 -1114 l 708 -993 q 714 -965 714 -978 l 714 -965 q 697 -926 714 -941 q 657 -912 680 -912 l 657 -912 q 626 -921 640 -912 q 606 -948 611 -931 l 606 -948 z"},"Ü":{"ha":890,"x_min":-1,"x_max":1019,"o":"m 332 5 q 205 -41 248 5 q 162 -166 162 -88 l 162 -166 q 175 -273 162 -210 l 175 -273 l 237 -559 q 247 -603 239 -567 q 254 -681 254 -639 l 254 -681 q 245 -717 254 -705 q 219 -729 235 -729 l 219 -729 q 149 -700 189 -729 q 65 -613 109 -672 l 65 -613 q 34 -594 51 -594 l 34 -594 q 10 -607 20 -594 q -1 -638 -1 -621 l -1 -638 q 27 -708 -1 -669 l 27 -708 q 266 -848 129 -848 l 266 -848 q 362 -811 327 -848 q 396 -702 396 -774 l 396 -702 q 389 -608 396 -651 q 365 -491 382 -565 l 365 -491 l 324 -308 q 317 -276 322 -299 q 309 -232 312 -253 q 306 -192 306 -212 l 306 -192 q 324 -141 306 -160 q 375 -122 342 -122 l 375 -122 q 497 -186 435 -122 q 611 -392 558 -250 q 692 -757 663 -535 l 692 -757 q 713 -828 699 -808 q 765 -848 726 -848 l 765 -848 q 817 -827 800 -848 q 834 -759 834 -806 l 834 -759 q 828 -688 834 -732 q 808 -565 821 -644 l 808 -565 q 765 -284 781 -412 l 765 -284 q 757 -198 757 -226 l 757 -198 q 776 -135 757 -157 q 825 -114 794 -114 l 825 -114 q 890 -136 858 -114 q 964 -209 921 -158 l 964 -209 q 991 -223 976 -223 l 991 -223 q 1012 -211 1004 -223 q 1019 -178 1019 -199 l 1019 -178 q 1000 -116 1019 -139 l 1000 -116 q 897 -24 948 -53 q 790 5 846 5 l 790 5 q 663 -37 707 5 q 619 -148 619 -80 l 619 -148 q 635 -296 619 -186 l 635 -296 q 509 -72 585 -149 q 332 5 432 5 l 332 5 z m 442 -912 q 391 -930 410 -912 q 372 -986 372 -949 l 372 -986 q 394 -1050 372 -1027 q 453 -1073 416 -1073 l 453 -1073 q 504 -1054 485 -1073 q 523 -999 523 -1036 l 523 -999 q 501 -935 523 -958 q 442 -912 479 -912 l 442 -912 z m 650 -912 q 599 -930 618 -912 q 580 -986 580 -949 l 580 -986 q 602 -1050 580 -1027 q 661 -1073 624 -1073 l 661 -1073 q 712 -1054 693 -1073 q 731 -999 731 -1036 l 731 -999 q 709 -935 731 -958 q 650 -912 687 -912 l 650 -912 z"},"Ù":{"ha":890,"x_min":-1,"x_max":1019,"o":"m 332 5 q 205 -41 248 5 q 162 -166 162 -88 l 162 -166 q 175 -273 162 -210 l 175 -273 l 237 -559 q 247 -603 239 -567 q 254 -681 254 -639 l 254 -681 q 245 -717 254 -705 q 219 -729 235 -729 l 219 -729 q 149 -700 189 -729 q 65 -613 109 -672 l 65 -613 q 34 -594 51 -594 l 34 -594 q 10 -607 20 -594 q -1 -638 -1 -621 l -1 -638 q 27 -708 -1 -669 l 27 -708 q 266 -848 129 -848 l 266 -848 q 362 -811 327 -848 q 396 -702 396 -774 l 396 -702 q 389 -608 396 -651 q 365 -491 382 -565 l 365 -491 l 324 -308 q 317 -276 322 -299 q 309 -232 312 -253 q 306 -192 306 -212 l 306 -192 q 324 -141 306 -160 q 375 -122 342 -122 l 375 -122 q 497 -186 435 -122 q 611 -392 558 -250 q 692 -757 663 -535 l 692 -757 q 713 -828 699 -808 q 765 -848 726 -848 l 765 -848 q 817 -827 800 -848 q 834 -759 834 -806 l 834 -759 q 828 -688 834 -732 q 808 -565 821 -644 l 808 -565 q 765 -284 781 -412 l 765 -284 q 757 -198 757 -226 l 757 -198 q 776 -135 757 -157 q 825 -114 794 -114 l 825 -114 q 890 -136 858 -114 q 964 -209 921 -158 l 964 -209 q 991 -223 976 -223 l 991 -223 q 1012 -211 1004 -223 q 1019 -178 1019 -199 l 1019 -178 q 1000 -116 1019 -139 l 1000 -116 q 897 -24 948 -53 q 790 5 846 5 l 790 5 q 663 -37 707 5 q 619 -148 619 -80 l 619 -148 q 635 -296 619 -186 l 635 -296 q 509 -72 585 -149 q 332 5 432 5 l 332 5 z m 528 -912 q 507 -917 516 -912 l 507 -917 l 320 -1014 q 267 -1085 267 -1042 l 267 -1085 q 286 -1129 267 -1111 q 331 -1148 305 -1148 l 331 -1148 q 375 -1131 355 -1148 l 375 -1131 l 547 -984 q 566 -948 566 -968 l 566 -948 q 555 -922 566 -933 q 528 -912 544 -912 l 528 -912 z"},"V":{"ha":763,"x_min":123,"x_max":908,"o":"m 864 -432 q 898 -422 887 -432 q 908 -396 908 -412 l 908 -396 q 893 -350 908 -370 q 844 -329 877 -330 l 844 -329 q 702 -341 764 -327 l 702 -341 q 531 -93 631 -192 q 329 5 430 5 l 329 5 q 174 -116 225 5 q 123 -443 123 -237 l 123 -443 q 148 -759 123 -619 l 148 -759 q 174 -829 157 -811 q 230 -848 190 -848 l 230 -848 q 296 -791 296 -848 l 296 -791 q 294 -769 296 -785 l 294 -769 q 264 -443 264 -589 l 264 -443 q 290 -210 264 -290 q 366 -131 315 -131 l 366 -131 q 479 -203 418 -131 q 591 -384 540 -275 l 591 -384 q 499 -482 530 -422 q 468 -622 468 -543 l 468 -622 q 493 -755 468 -701 q 560 -837 517 -810 q 654 -864 602 -864 l 654 -864 q 756 -818 718 -864 q 793 -692 793 -772 l 793 -692 q 743 -441 793 -577 l 743 -441 q 864 -432 796 -432 l 864 -432 z m 569 -629 q 632 -484 569 -531 l 632 -484 q 671 -669 671 -596 l 671 -669 q 660 -730 671 -711 q 630 -750 649 -750 l 630 -750 q 586 -718 603 -750 q 569 -629 569 -687 l 569 -629 z"},"W":{"ha":1217,"x_min":121,"x_max":1362,"o":"m 1318 -432 q 1352 -422 1341 -432 q 1362 -396 1362 -412 l 1362 -396 q 1347 -350 1362 -370 q 1298 -329 1331 -330 l 1298 -329 q 1156 -341 1219 -328 l 1156 -341 q 988 -93 1086 -192 q 793 5 889 5 l 793 5 q 661 -88 705 5 q 611 -339 617 -182 l 611 -339 q 476 -80 551 -165 q 315 5 400 5 l 315 5 q 170 -114 219 5 q 121 -436 121 -234 l 121 -436 q 147 -759 121 -583 l 147 -759 q 173 -828 154 -809 q 231 -848 191 -848 l 231 -848 q 278 -835 261 -848 q 294 -787 294 -822 l 294 -787 q 292 -760 294 -780 l 292 -760 q 262 -411 262 -555 l 262 -411 q 285 -204 262 -277 q 347 -131 308 -131 l 347 -131 q 432 -204 382 -131 q 530 -422 481 -278 q 613 -767 579 -567 l 613 -767 q 643 -830 621 -813 q 701 -848 664 -848 l 701 -848 q 747 -834 732 -848 q 761 -794 761 -821 l 761 -794 q 759 -769 761 -778 l 759 -769 q 731 -443 731 -606 l 731 -443 q 739 -266 731 -332 q 768 -165 746 -200 q 830 -131 789 -131 l 830 -131 q 937 -203 878 -131 q 1045 -384 996 -276 l 1045 -384 q 953 -482 984 -422 q 922 -622 922 -543 l 922 -622 q 947 -755 922 -701 q 1014 -837 971 -810 q 1108 -864 1056 -864 l 1108 -864 q 1210 -818 1172 -864 q 1247 -692 1247 -772 l 1247 -692 q 1198 -441 1247 -579 l 1198 -441 q 1318 -432 1249 -432 l 1318 -432 z m 1023 -629 q 1086 -484 1023 -531 l 1086 -484 q 1125 -669 1125 -596 l 1125 -669 q 1114 -730 1125 -711 q 1084 -750 1103 -750 l 1084 -750 q 1040 -718 1057 -750 q 1023 -629 1023 -687 l 1023 -629 z"},"X":{"ha":712,"x_min":-15,"x_max":841,"o":"m 813 -223 q 834 -211 826 -223 q 841 -178 841 -199 l 841 -178 q 822 -116 841 -139 l 822 -116 q 725 -26 773 -58 q 618 5 677 5 l 618 5 q 484 -48 529 5 q 410 -203 438 -101 l 410 -203 l 376 -327 l 140 -35 q 99 -2 120 -10 q 50 5 78 5 l 50 5 q 4 -5 22 5 q -15 -35 -15 -16 l -15 -35 q 14 -92 -15 -60 l 14 -92 l 338 -461 l 306 -578 q 255 -693 283 -660 q 191 -726 227 -726 l 191 -726 q 67 -649 138 -726 l 67 -649 q 40 -636 55 -636 l 40 -636 q 15 -647 25 -636 q 4 -677 4 -659 l 4 -677 q 33 -742 4 -707 l 33 -742 q 122 -819 74 -790 q 236 -848 170 -848 l 236 -848 q 353 -803 307 -848 q 426 -660 399 -759 l 426 -660 l 446 -590 l 621 -803 q 662 -837 641 -827 q 713 -847 683 -847 l 713 -847 q 756 -837 740 -847 q 771 -809 771 -827 l 771 -809 q 744 -754 771 -785 l 744 -754 l 484 -454 l 541 -250 q 568 -169 556 -197 q 598 -127 580 -141 q 644 -114 615 -114 l 644 -114 q 709 -136 675 -114 q 786 -209 742 -158 l 786 -209 q 813 -223 798 -223 l 813 -223 z"},"Y":{"ha":851,"x_min":-1,"x_max":960,"o":"m 908 -224 q 926 -226 914 -226 l 926 -226 q 960 -182 960 -226 l 960 -182 q 950 -141 960 -158 q 917 -121 939 -125 l 917 -121 q 738 -83 826 -104 l 738 -83 l 735 -59 q 624 233 707 138 q 415 327 540 327 l 415 327 q 287 287 332 327 q 241 183 241 246 l 241 183 q 335 -4 241 78 q 620 -149 429 -86 l 620 -149 l 640 -290 q 650 -354 644 -314 l 650 -354 q 530 -169 603 -230 q 367 -108 457 -108 l 367 -108 q 236 -160 281 -108 q 191 -296 191 -213 l 191 -296 q 199 -377 191 -333 q 224 -498 207 -422 l 224 -498 q 247 -608 239 -567 q 254 -681 254 -649 l 254 -681 q 217 -729 254 -729 l 217 -729 q 149 -700 188 -729 q 65 -613 109 -672 l 65 -613 q 34 -594 51 -594 l 34 -594 q 10 -607 20 -594 q -1 -638 -1 -621 l -1 -638 q 27 -708 -1 -669 l 27 -708 q 266 -848 129 -848 l 266 -848 q 362 -811 327 -848 q 396 -702 396 -774 l 396 -702 q 387 -595 396 -650 q 358 -457 377 -541 l 358 -457 q 340 -376 346 -407 q 334 -326 334 -346 l 334 -326 q 352 -253 334 -275 q 415 -231 370 -231 l 415 -231 q 526 -290 469 -231 q 628 -471 582 -350 q 693 -767 673 -592 l 693 -767 q 716 -829 698 -811 q 768 -848 734 -848 l 768 -848 q 838 -778 838 -848 l 838 -778 q 837 -759 838 -766 l 837 -759 q 798 -490 816 -610 l 798 -490 q 777 -342 788 -418 q 754 -188 765 -266 l 754 -188 q 908 -224 827 -208 l 908 -224 z m 604 -37 l 605 -44 q 363 160 363 40 l 363 160 q 381 207 363 188 q 430 225 398 225 l 430 225 q 604 -37 569 225 l 604 -37 z"},"Ý":{"ha":851,"x_min":-1,"x_max":960,"o":"m 908 -224 q 926 -226 914 -226 l 926 -226 q 960 -182 960 -226 l 960 -182 q 950 -141 960 -158 q 917 -121 939 -125 l 917 -121 q 738 -83 826 -104 l 738 -83 l 735 -59 q 624 233 707 138 q 415 327 540 327 l 415 327 q 287 287 332 327 q 241 183 241 246 l 241 183 q 335 -4 241 78 q 620 -149 429 -86 l 620 -149 l 640 -290 q 650 -354 644 -314 l 650 -354 q 530 -169 603 -230 q 367 -108 457 -108 l 367 -108 q 236 -160 281 -108 q 191 -296 191 -213 l 191 -296 q 199 -377 191 -333 q 224 -498 207 -422 l 224 -498 q 247 -608 239 -567 q 254 -681 254 -649 l 254 -681 q 217 -729 254 -729 l 217 -729 q 149 -700 188 -729 q 65 -613 109 -672 l 65 -613 q 34 -594 51 -594 l 34 -594 q 10 -607 20 -594 q -1 -638 -1 -621 l -1 -638 q 27 -708 -1 -669 l 27 -708 q 266 -848 129 -848 l 266 -848 q 362 -811 327 -848 q 396 -702 396 -774 l 396 -702 q 387 -595 396 -650 q 358 -457 377 -541 l 358 -457 q 340 -376 346 -407 q 334 -326 334 -346 l 334 -326 q 352 -253 334 -275 q 415 -231 370 -231 l 415 -231 q 526 -290 469 -231 q 628 -471 582 -350 q 693 -767 673 -592 l 693 -767 q 716 -829 698 -811 q 768 -848 734 -848 l 768 -848 q 838 -778 838 -848 l 838 -778 q 837 -759 838 -766 l 837 -759 q 798 -490 816 -610 l 798 -490 q 777 -342 788 -418 q 754 -188 765 -266 l 754 -188 q 908 -224 827 -208 l 908 -224 z m 604 -37 l 605 -44 q 363 160 363 40 l 363 160 q 381 207 363 188 q 430 225 398 225 l 430 225 q 604 -37 569 225 l 604 -37 z m 554 -912 q 527 -922 538 -912 q 516 -948 516 -933 l 516 -948 q 535 -984 516 -968 l 535 -984 l 707 -1131 q 751 -1148 727 -1148 l 751 -1148 q 796 -1129 777 -1148 q 815 -1085 815 -1111 l 815 -1085 q 762 -1014 815 -1042 l 762 -1014 l 575 -917 q 554 -912 566 -912 l 554 -912 z"},"Z":{"ha":721,"x_min":15,"x_max":850,"o":"m 822 -223 q 843 -211 835 -223 q 850 -178 850 -199 l 850 -178 q 831 -116 850 -139 l 831 -116 q 723 -22 775 -49 q 596 5 670 5 l 596 5 q 500 -8 544 5 q 393 -47 456 -21 l 393 -47 q 297 -84 339 -70 l 297 -84 q 214 -14 251 -34 q 136 5 177 5 l 136 5 q 48 -20 81 5 q 15 -87 15 -46 l 15 -87 q 36 -144 15 -118 q 93 -185 56 -170 q 179 -200 130 -200 l 179 -200 q 221 -199 207 -200 l 221 -199 q 575 -714 417 -443 l 575 -714 q 400 -729 489 -729 l 400 -729 q 232 -702 285 -729 q 178 -619 178 -676 l 178 -619 q 182 -590 178 -602 q 194 -562 186 -578 l 194 -562 q 203 -536 203 -544 l 203 -536 q 185 -502 203 -516 q 142 -489 166 -489 l 142 -489 q 101 -504 117 -489 l 101 -504 q 71 -550 82 -521 q 59 -617 59 -580 l 59 -617 q 156 -790 59 -734 q 412 -846 253 -846 l 412 -846 q 574 -837 491 -846 q 728 -808 656 -828 l 728 -808 q 768 -785 758 -800 q 778 -748 778 -771 l 778 -748 q 764 -706 778 -721 q 725 -691 750 -691 l 725 -691 l 718 -691 q 499 -353 610 -515 l 499 -353 q 374 -178 410 -224 l 374 -178 q 475 -154 432 -165 l 475 -154 q 561 -133 528 -140 q 617 -127 593 -127 l 617 -127 q 717 -146 675 -127 q 795 -209 758 -166 l 795 -209 q 822 -223 807 -223 l 822 -223 z"},"a":{"ha":470,"x_min":35,"x_max":599,"o":"m 171 5 q 72 -40 109 5 q 35 -158 35 -85 l 35 -158 q 72 -309 35 -238 q 171 -424 109 -381 q 301 -468 232 -468 l 301 -468 q 331 -459 323 -468 q 343 -429 338 -451 l 343 -429 q 387 -433 364 -433 l 387 -433 q 436 -398 436 -433 l 436 -398 q 421 -298 436 -377 l 421 -298 q 398 -138 398 -183 l 398 -138 q 406 -114 398 -123 q 425 -105 413 -105 l 425 -105 q 471 -129 444 -105 q 544 -209 498 -154 l 544 -209 q 571 -223 556 -223 l 571 -223 q 592 -211 584 -223 q 599 -178 599 -199 l 599 -178 q 580 -116 599 -138 l 580 -116 q 493 -30 539 -65 q 404 5 447 5 l 404 5 q 344 -17 371 5 q 302 -79 316 -40 l 302 -79 q 171 5 250 5 l 171 5 z m 207 -96 q 249 -122 229 -96 q 278 -191 269 -148 l 278 -191 l 315 -375 q 238 -343 273 -374 q 181 -263 202 -313 q 160 -157 160 -213 l 160 -157 q 173 -111 160 -126 q 207 -96 185 -96 l 207 -96 z"},"á":{"ha":470,"x_min":35,"x_max":599,"o":"m 171 5 q 72 -40 109 5 q 35 -158 35 -85 l 35 -158 q 72 -309 35 -238 q 171 -424 109 -381 q 301 -468 232 -468 l 301 -468 q 331 -459 323 -468 q 343 -429 338 -451 l 343 -429 q 387 -433 364 -433 l 387 -433 q 436 -398 436 -433 l 436 -398 q 421 -298 436 -377 l 421 -298 q 398 -138 398 -183 l 398 -138 q 406 -114 398 -123 q 425 -105 413 -105 l 425 -105 q 471 -129 444 -105 q 544 -209 498 -154 l 544 -209 q 571 -223 556 -223 l 571 -223 q 592 -211 584 -223 q 599 -178 599 -199 l 599 -178 q 580 -116 599 -138 l 580 -116 q 493 -30 539 -65 q 404 5 447 5 l 404 5 q 344 -17 371 5 q 302 -79 316 -40 l 302 -79 q 171 5 250 5 l 171 5 z m 207 -96 q 249 -122 229 -96 q 278 -191 269 -148 l 278 -191 l 315 -375 q 238 -343 273 -374 q 181 -263 202 -313 q 160 -157 160 -213 l 160 -157 q 173 -111 160 -126 q 207 -96 185 -96 l 207 -96 z m 310 -532 q 286 -542 296 -532 q 275 -568 275 -553 l 275 -568 q 280 -587 275 -575 l 280 -587 l 373 -795 q 397 -824 382 -815 q 429 -834 411 -834 l 429 -834 q 474 -816 454 -834 q 493 -771 493 -798 l 493 -771 q 471 -715 493 -743 l 471 -715 l 342 -549 q 310 -532 329 -532 l 310 -532 z"},"â":{"ha":470,"x_min":35,"x_max":599,"o":"m 171 5 q 72 -40 109 5 q 35 -158 35 -85 l 35 -158 q 72 -309 35 -238 q 171 -424 109 -381 q 301 -468 232 -468 l 301 -468 q 331 -459 323 -468 q 343 -429 338 -451 l 343 -429 q 387 -433 364 -433 l 387 -433 q 436 -398 436 -433 l 436 -398 q 421 -298 436 -377 l 421 -298 q 398 -138 398 -183 l 398 -138 q 406 -114 398 -123 q 425 -105 413 -105 l 425 -105 q 471 -129 444 -105 q 544 -209 498 -154 l 544 -209 q 571 -223 556 -223 l 571 -223 q 592 -211 584 -223 q 599 -178 599 -199 l 599 -178 q 580 -116 599 -138 l 580 -116 q 493 -30 539 -65 q 404 5 447 5 l 404 5 q 344 -17 371 5 q 302 -79 316 -40 l 302 -79 q 171 5 250 5 l 171 5 z m 207 -96 q 249 -122 229 -96 q 278 -191 269 -148 l 278 -191 l 315 -375 q 238 -343 273 -374 q 181 -263 202 -313 q 160 -157 160 -213 l 160 -157 q 173 -111 160 -126 q 207 -96 185 -96 l 207 -96 z m 420 -531 q 383 -542 397 -531 q 365 -585 369 -554 l 365 -585 l 342 -762 l 255 -585 q 223 -543 240 -554 q 185 -532 206 -532 l 185 -532 q 152 -541 164 -532 q 139 -569 139 -551 l 139 -569 q 150 -605 139 -586 l 150 -605 l 262 -798 q 303 -844 280 -829 q 356 -860 325 -860 l 356 -860 q 403 -842 386 -860 q 429 -785 420 -824 l 429 -785 l 473 -605 q 476 -583 476 -593 l 476 -583 q 460 -544 476 -558 q 420 -531 443 -531 l 420 -531 z"},"ä":{"ha":470,"x_min":35,"x_max":599,"o":"m 171 5 q 72 -40 109 5 q 35 -158 35 -85 l 35 -158 q 72 -309 35 -238 q 171 -424 109 -381 q 301 -468 232 -468 l 301 -468 q 331 -459 323 -468 q 343 -429 338 -451 l 343 -429 q 387 -433 364 -433 l 387 -433 q 436 -398 436 -433 l 436 -398 q 421 -298 436 -377 l 421 -298 q 398 -138 398 -183 l 398 -138 q 406 -114 398 -123 q 425 -105 413 -105 l 425 -105 q 471 -129 444 -105 q 544 -209 498 -154 l 544 -209 q 571 -223 556 -223 l 571 -223 q 592 -211 584 -223 q 599 -178 599 -199 l 599 -178 q 580 -116 599 -138 l 580 -116 q 493 -30 539 -65 q 404 5 447 5 l 404 5 q 344 -17 371 5 q 302 -79 316 -40 l 302 -79 q 171 5 250 5 l 171 5 z m 207 -96 q 249 -122 229 -96 q 278 -191 269 -148 l 278 -191 l 315 -375 q 238 -343 273 -374 q 181 -263 202 -313 q 160 -157 160 -213 l 160 -157 q 173 -111 160 -126 q 207 -96 185 -96 l 207 -96 z m 210 -532 q 160 -549 178 -532 q 142 -604 142 -567 l 142 -604 q 164 -666 142 -644 q 221 -689 185 -689 l 221 -689 q 271 -671 253 -689 q 289 -617 289 -654 l 289 -617 q 268 -554 289 -577 q 210 -532 246 -532 l 210 -532 z m 418 -532 q 368 -549 386 -532 q 350 -604 350 -567 l 350 -604 q 372 -666 350 -644 q 429 -689 393 -689 l 429 -689 q 479 -671 461 -689 q 497 -617 497 -654 l 497 -617 q 476 -554 497 -577 q 418 -532 454 -532 l 418 -532 z"},"à":{"ha":470,"x_min":35,"x_max":599,"o":"m 171 5 q 72 -40 109 5 q 35 -158 35 -85 l 35 -158 q 72 -309 35 -238 q 171 -424 109 -381 q 301 -468 232 -468 l 301 -468 q 331 -459 323 -468 q 343 -429 338 -451 l 343 -429 q 387 -433 364 -433 l 387 -433 q 436 -398 436 -433 l 436 -398 q 421 -298 436 -377 l 421 -298 q 398 -138 398 -183 l 398 -138 q 406 -114 398 -123 q 425 -105 413 -105 l 425 -105 q 471 -129 444 -105 q 544 -209 498 -154 l 544 -209 q 571 -223 556 -223 l 571 -223 q 592 -211 584 -223 q 599 -178 599 -199 l 599 -178 q 580 -116 599 -138 l 580 -116 q 493 -30 539 -65 q 404 5 447 5 l 404 5 q 344 -17 371 5 q 302 -79 316 -40 l 302 -79 q 171 5 250 5 l 171 5 z m 207 -96 q 249 -122 229 -96 q 278 -191 269 -148 l 278 -191 l 315 -375 q 238 -343 273 -374 q 181 -263 202 -313 q 160 -157 160 -213 l 160 -157 q 173 -111 160 -126 q 207 -96 185 -96 l 207 -96 z m 310 -532 q 279 -549 292 -532 l 279 -549 l 150 -715 q 128 -771 128 -743 l 128 -771 q 148 -817 128 -799 q 192 -835 167 -835 l 192 -835 q 224 -825 209 -835 q 248 -795 239 -815 l 248 -795 l 341 -587 q 345 -568 345 -578 l 345 -568 q 335 -542 345 -553 q 310 -532 324 -532 l 310 -532 z"},"å":{"ha":470,"x_min":35,"x_max":599,"o":"m 171 5 q 72 -40 109 5 q 35 -158 35 -85 l 35 -158 q 72 -309 35 -238 q 171 -424 109 -381 q 301 -468 232 -468 l 301 -468 q 331 -459 323 -468 q 343 -429 338 -451 l 343 -429 q 387 -433 364 -433 l 387 -433 q 436 -398 436 -433 l 436 -398 q 421 -298 436 -377 l 421 -298 q 398 -138 398 -183 l 398 -138 q 406 -114 398 -123 q 425 -105 413 -105 l 425 -105 q 471 -129 444 -105 q 544 -209 498 -154 l 544 -209 q 571 -223 556 -223 l 571 -223 q 592 -211 584 -223 q 599 -178 599 -199 l 599 -178 q 580 -116 599 -138 l 580 -116 q 493 -30 539 -65 q 404 5 447 5 l 404 5 q 344 -17 371 5 q 302 -79 316 -40 l 302 -79 q 171 5 250 5 l 171 5 z m 207 -96 q 249 -122 229 -96 q 278 -191 269 -148 l 278 -191 l 315 -375 q 238 -343 273 -374 q 181 -263 202 -313 q 160 -157 160 -213 l 160 -157 q 173 -111 160 -126 q 207 -96 185 -96 l 207 -96 z m 320 -532 q 229 -567 267 -532 q 191 -664 191 -603 l 191 -664 q 211 -742 191 -709 q 263 -794 230 -776 q 332 -812 295 -812 l 332 -812 q 423 -776 385 -812 q 461 -680 461 -741 l 461 -680 q 442 -601 461 -635 q 390 -550 422 -568 q 320 -532 357 -532 l 320 -532 z m 324 -620 q 358 -635 344 -620 q 372 -675 372 -650 l 372 -675 q 359 -710 372 -697 q 328 -724 346 -724 l 328 -724 q 294 -709 308 -724 q 280 -669 280 -694 l 280 -669 q 293 -633 280 -647 q 324 -620 306 -620 l 324 -620 z"},"ã":{"ha":470,"x_min":35,"x_max":599,"o":"m 171 5 q 72 -40 109 5 q 35 -158 35 -85 l 35 -158 q 72 -309 35 -238 q 171 -424 109 -381 q 301 -468 232 -468 l 301 -468 q 331 -459 323 -468 q 343 -429 338 -451 l 343 -429 q 387 -433 364 -433 l 387 -433 q 436 -398 436 -433 l 436 -398 q 421 -298 436 -377 l 421 -298 q 398 -138 398 -183 l 398 -138 q 406 -114 398 -123 q 425 -105 413 -105 l 425 -105 q 471 -129 444 -105 q 544 -209 498 -154 l 544 -209 q 571 -223 556 -223 l 571 -223 q 592 -211 584 -223 q 599 -178 599 -199 l 599 -178 q 580 -116 599 -138 l 580 -116 q 493 -30 539 -65 q 404 5 447 5 l 404 5 q 344 -17 371 5 q 302 -79 316 -40 l 302 -79 q 171 5 250 5 l 171 5 z m 207 -96 q 249 -122 229 -96 q 278 -191 269 -148 l 278 -191 l 315 -375 q 238 -343 273 -374 q 181 -263 202 -313 q 160 -157 160 -213 l 160 -157 q 173 -111 160 -126 q 207 -96 185 -96 l 207 -96 z m 410 -532 q 380 -537 394 -532 q 344 -558 366 -543 l 344 -558 l 237 -632 l 193 -569 q 148 -547 177 -547 l 148 -547 q 118 -557 130 -547 q 105 -586 105 -568 l 105 -586 q 142 -663 105 -609 l 142 -663 q 187 -711 165 -696 q 235 -727 209 -727 l 235 -727 q 266 -722 252 -727 q 301 -701 279 -717 l 301 -701 l 408 -627 l 452 -690 q 497 -712 468 -712 l 497 -712 q 528 -701 515 -712 q 540 -673 540 -691 l 540 -673 q 531 -641 540 -659 q 503 -596 521 -624 l 503 -596 q 458 -547 480 -563 q 410 -532 436 -532 l 410 -532 z"},"æ":{"ha":653,"x_min":36,"x_max":782,"o":"m 754 -223 q 775 -211 767 -223 q 782 -178 782 -199 l 782 -178 q 763 -116 782 -138 l 763 -116 q 659 -33 726 -71 q 514 5 591 5 l 514 5 q 400 -18 447 5 q 325 -85 352 -42 l 325 -85 q 267 -19 305 -43 q 182 5 228 5 l 182 5 q 75 -42 114 5 q 36 -170 36 -90 l 36 -170 q 73 -320 36 -252 q 178 -428 110 -388 q 336 -468 246 -468 l 336 -468 q 367 -458 358 -468 q 382 -418 376 -448 l 382 -418 q 443 -453 407 -441 q 519 -466 479 -466 l 519 -466 q 612 -431 577 -466 q 647 -338 647 -397 l 647 -338 q 598 -219 647 -269 q 430 -141 548 -170 l 430 -141 q 525 -95 455 -95 l 525 -95 q 628 -126 570 -95 q 727 -209 685 -158 l 727 -209 q 754 -223 739 -223 l 754 -223 z m 294 -251 q 338 -370 308 -321 l 338 -370 q 208 -317 256 -369 q 160 -175 160 -266 l 160 -175 q 173 -117 160 -138 q 209 -96 186 -96 l 209 -96 q 254 -123 234 -96 q 284 -201 274 -150 l 284 -201 l 294 -251 z m 502 -368 q 440 -325 465 -368 q 414 -221 414 -282 l 414 -221 l 414 -219 q 507 -261 473 -233 q 541 -326 541 -289 l 541 -326 q 531 -356 541 -345 q 502 -368 520 -368 l 502 -368 z"},"b":{"ha":473,"x_min":55,"x_max":607,"o":"m 580 -307 q 600 -294 593 -307 q 607 -261 607 -281 l 607 -261 q 600 -222 607 -236 q 578 -204 593 -209 l 578 -204 q 446 -180 518 -183 l 446 -180 q 371 -46 426 -97 q 248 5 315 5 l 248 5 q 101 -72 147 5 q 55 -295 55 -149 l 55 -295 q 87 -575 55 -424 q 181 -833 119 -727 q 327 -940 242 -940 l 327 -940 q 401 -900 373 -940 q 429 -798 429 -861 l 429 -798 q 398 -635 429 -716 q 295 -465 367 -554 l 295 -465 q 404 -409 362 -460 q 454 -285 446 -359 l 454 -285 q 566 -305 501 -288 l 566 -305 q 580 -307 572 -307 l 580 -307 z m 304 -841 q 261 -781 284 -841 q 217 -620 237 -722 q 187 -397 197 -518 l 187 -397 q 293 -610 253 -518 q 332 -775 332 -703 l 332 -775 q 325 -824 332 -807 q 304 -841 317 -841 l 304 -841 z m 252 -101 q 307 -127 283 -101 q 339 -202 331 -153 l 339 -202 q 292 -257 308 -223 q 275 -329 275 -291 l 275 -329 q 279 -367 275 -343 l 279 -367 l 276 -367 q 208 -326 235 -367 q 180 -218 180 -286 l 180 -218 q 202 -131 180 -161 q 252 -101 223 -101 l 252 -101 z"},"c":{"ha":368,"x_min":32,"x_max":497,"o":"m 239 5 q 87 -50 141 5 q 32 -197 32 -106 l 32 -197 q 64 -339 32 -278 q 147 -433 96 -400 q 254 -466 198 -466 l 254 -466 q 340 -433 309 -466 q 370 -350 370 -401 l 370 -350 q 352 -279 370 -308 q 303 -250 333 -250 l 303 -250 q 273 -259 284 -250 q 261 -284 261 -268 l 261 -284 q 263 -300 261 -291 q 266 -313 265 -309 l 266 -313 q 271 -341 271 -328 l 271 -341 q 265 -361 271 -354 q 246 -368 258 -368 l 246 -368 q 203 -347 223 -368 q 171 -292 183 -327 q 159 -215 159 -257 l 159 -215 q 260 -99 159 -99 l 260 -99 q 349 -126 301 -99 q 442 -209 396 -154 l 442 -209 q 469 -223 454 -223 l 469 -223 q 490 -211 482 -223 q 497 -178 497 -199 l 497 -178 q 478 -116 497 -140 l 478 -116 q 366 -26 431 -58 q 239 5 300 5 l 239 5 z"},"ç":{"ha":368,"x_min":32,"x_max":497,"o":"m 469 -223 q 490 -211 482 -223 q 497 -178 497 -199 l 497 -178 q 478 -116 497 -140 l 478 -116 q 400 -45 444 -74 q 307 -4 355 -17 l 307 -4 q 346 86 346 29 l 346 86 q 324 171 346 133 q 259 229 301 208 q 159 250 216 250 l 159 250 q 97 245 121 250 l 97 245 q 58 201 58 238 l 58 201 q 98 156 58 156 l 98 156 q 111 157 106 156 l 111 157 q 164 161 138 161 l 164 161 q 227 145 204 161 q 249 94 249 128 l 249 94 q 228 55 249 69 q 169 40 206 40 l 169 40 q 129 33 143 40 q 115 9 115 26 l 115 9 q 116 0 115 3 l 116 0 q 125 -22 119 -15 l 125 -22 q 56 -92 80 -46 q 32 -197 32 -138 l 32 -197 q 64 -339 32 -278 q 147 -433 96 -400 q 254 -466 198 -466 l 254 -466 q 340 -433 309 -466 q 370 -350 370 -401 l 370 -350 q 352 -279 370 -308 q 303 -250 333 -250 l 303 -250 q 273 -259 284 -250 q 261 -284 261 -268 l 261 -284 q 263 -300 261 -291 q 266 -313 265 -309 l 266 -313 q 271 -341 271 -328 l 271 -341 q 265 -361 271 -354 q 246 -368 258 -368 l 246 -368 q 203 -347 223 -368 q 171 -292 183 -327 q 159 -215 159 -257 l 159 -215 q 260 -99 159 -99 l 260 -99 q 349 -126 301 -99 q 442 -209 396 -154 l 442 -209 q 469 -223 454 -223 l 469 -223 z"},"d":{"ha":515,"x_min":35,"x_max":644,"o":"m 616 -223 q 637 -211 629 -223 q 644 -178 644 -199 l 644 -178 q 625 -116 644 -138 l 625 -116 q 535 -30 584 -66 q 438 5 486 5 l 438 5 q 322 -84 362 5 l 322 -84 q 249 -13 280 -31 q 175 5 217 5 l 175 5 q 75 -40 114 5 q 35 -159 35 -86 l 35 -159 q 69 -307 35 -239 q 163 -419 103 -376 q 296 -471 222 -463 l 296 -471 q 369 -802 315 -665 q 509 -940 422 -940 l 509 -940 q 581 -901 552 -940 q 609 -783 609 -862 l 609 -783 q 554 -521 609 -671 q 407 -213 499 -371 l 407 -213 q 425 -130 411 -155 q 459 -105 438 -105 l 459 -105 q 514 -129 486 -105 q 589 -209 542 -153 l 589 -209 q 616 -223 601 -223 l 616 -223 z m 498 -842 q 460 -774 479 -842 q 428 -598 441 -707 q 408 -370 414 -489 l 408 -370 q 520 -762 520 -614 l 520 -762 q 514 -821 520 -800 q 498 -842 507 -842 l 498 -842 z m 210 -96 q 248 -111 229 -96 q 296 -169 267 -127 l 296 -169 q 286 -290 286 -223 l 286 -290 q 288 -368 286 -314 l 288 -368 q 197 -294 233 -351 q 160 -169 160 -238 l 160 -169 q 210 -96 160 -96 l 210 -96 z"},"ð":{"ha":451,"x_min":33,"x_max":518,"o":"m 510 -854 q 518 -826 518 -840 l 518 -826 q 489 -774 518 -802 q 393 -706 460 -746 l 393 -706 q 438 -563 422 -641 q 454 -403 454 -486 l 454 -403 q 428 -191 454 -283 q 348 -47 401 -99 q 219 5 295 5 l 219 5 q 117 -24 159 5 q 54 -102 75 -54 q 33 -205 33 -150 l 33 -205 q 62 -340 33 -281 q 141 -433 91 -400 q 249 -467 190 -467 l 249 -467 q 328 -447 296 -467 l 328 -447 q 291 -649 322 -564 l 291 -649 l 201 -602 q 181 -597 192 -597 l 181 -597 q 145 -616 160 -597 q 129 -656 129 -636 l 129 -656 q 141 -679 129 -672 l 141 -679 q 249 -737 182 -702 l 249 -737 q 149 -869 211 -804 l 149 -869 q 143 -884 143 -877 l 143 -884 q 163 -912 143 -900 q 208 -925 183 -925 l 208 -925 q 237 -918 224 -925 l 237 -918 q 287 -873 257 -908 q 346 -792 316 -839 l 346 -792 q 396 -827 372 -808 l 396 -827 q 457 -868 436 -856 l 457 -868 q 479 -875 468 -875 l 479 -875 q 510 -854 498 -875 l 510 -854 z m 227 -101 q 292 -158 263 -101 q 327 -328 321 -215 l 327 -328 q 293 -352 311 -344 q 259 -361 275 -361 l 259 -361 q 185 -323 211 -361 q 158 -214 158 -286 l 158 -214 q 179 -130 158 -160 q 227 -101 200 -101 l 227 -101 z"},"e":{"ha":393,"x_min":33,"x_max":522,"o":"m 494 -223 q 515 -211 507 -223 q 522 -178 522 -199 l 522 -178 q 503 -116 522 -138 l 503 -116 q 399 -33 466 -71 q 254 5 331 5 l 254 5 q 91 -52 149 5 q 33 -208 33 -109 l 33 -208 q 62 -336 33 -277 q 143 -431 91 -396 q 259 -466 194 -466 l 259 -466 q 352 -431 317 -466 q 387 -338 387 -397 l 387 -338 q 338 -219 387 -269 q 170 -141 288 -170 l 170 -141 q 265 -95 195 -95 l 265 -95 q 368 -126 310 -95 q 467 -209 425 -158 l 467 -209 q 494 -223 479 -223 l 494 -223 z m 242 -368 q 180 -325 205 -368 q 154 -221 154 -282 l 154 -221 l 154 -219 q 247 -261 213 -233 q 281 -326 281 -289 l 281 -326 q 271 -356 281 -345 q 242 -368 260 -368 l 242 -368 z"},"é":{"ha":393,"x_min":33,"x_max":522,"o":"m 494 -223 q 515 -211 507 -223 q 522 -178 522 -199 l 522 -178 q 503 -116 522 -138 l 503 -116 q 399 -33 466 -71 q 254 5 331 5 l 254 5 q 91 -52 149 5 q 33 -208 33 -109 l 33 -208 q 62 -336 33 -277 q 143 -431 91 -396 q 259 -466 194 -466 l 259 -466 q 352 -431 317 -466 q 387 -338 387 -397 l 387 -338 q 338 -219 387 -269 q 170 -141 288 -170 l 170 -141 q 265 -95 195 -95 l 265 -95 q 368 -126 310 -95 q 467 -209 425 -158 l 467 -209 q 494 -223 479 -223 l 494 -223 z m 242 -368 q 180 -325 205 -368 q 154 -221 154 -282 l 154 -221 l 154 -219 q 247 -261 213 -233 q 281 -326 281 -289 l 281 -326 q 271 -356 281 -345 q 242 -368 260 -368 l 242 -368 z m 268 -532 q 244 -542 254 -532 q 233 -568 233 -553 l 233 -568 q 238 -587 233 -575 l 238 -587 l 331 -795 q 355 -824 340 -815 q 387 -834 369 -834 l 387 -834 q 432 -816 412 -834 q 451 -771 451 -798 l 451 -771 q 429 -715 451 -743 l 429 -715 l 300 -549 q 268 -532 287 -532 l 268 -532 z"},"ê":{"ha":393,"x_min":33,"x_max":522,"o":"m 494 -223 q 515 -211 507 -223 q 522 -178 522 -199 l 522 -178 q 503 -116 522 -138 l 503 -116 q 399 -33 466 -71 q 254 5 331 5 l 254 5 q 91 -52 149 5 q 33 -208 33 -109 l 33 -208 q 62 -336 33 -277 q 143 -431 91 -396 q 259 -466 194 -466 l 259 -466 q 352 -431 317 -466 q 387 -338 387 -397 l 387 -338 q 338 -219 387 -269 q 170 -141 288 -170 l 170 -141 q 265 -95 195 -95 l 265 -95 q 368 -126 310 -95 q 467 -209 425 -158 l 467 -209 q 494 -223 479 -223 l 494 -223 z m 242 -368 q 180 -325 205 -368 q 154 -221 154 -282 l 154 -221 l 154 -219 q 247 -261 213 -233 q 281 -326 281 -289 l 281 -326 q 271 -356 281 -345 q 242 -368 260 -368 l 242 -368 z m 378 -531 q 341 -542 355 -531 q 323 -585 327 -554 l 323 -585 l 300 -762 l 213 -585 q 181 -543 198 -554 q 143 -532 164 -532 l 143 -532 q 110 -541 122 -532 q 97 -569 97 -551 l 97 -569 q 108 -605 97 -586 l 108 -605 l 220 -798 q 261 -844 238 -829 q 314 -860 283 -860 l 314 -860 q 361 -842 344 -860 q 387 -785 378 -824 l 387 -785 l 431 -605 q 434 -583 434 -593 l 434 -583 q 418 -544 434 -558 q 378 -531 401 -531 l 378 -531 z"},"ë":{"ha":393,"x_min":33,"x_max":522,"o":"m 494 -223 q 515 -211 507 -223 q 522 -178 522 -199 l 522 -178 q 503 -116 522 -138 l 503 -116 q 399 -33 466 -71 q 254 5 331 5 l 254 5 q 91 -52 149 5 q 33 -208 33 -109 l 33 -208 q 62 -336 33 -277 q 143 -431 91 -396 q 259 -466 194 -466 l 259 -466 q 352 -431 317 -466 q 387 -338 387 -397 l 387 -338 q 338 -219 387 -269 q 170 -141 288 -170 l 170 -141 q 265 -95 195 -95 l 265 -95 q 368 -126 310 -95 q 467 -209 425 -158 l 467 -209 q 494 -223 479 -223 l 494 -223 z m 242 -368 q 180 -325 205 -368 q 154 -221 154 -282 l 154 -221 l 154 -219 q 247 -261 213 -233 q 281 -326 281 -289 l 281 -326 q 271 -356 281 -345 q 242 -368 260 -368 l 242 -368 z m 168 -532 q 118 -549 136 -532 q 100 -604 100 -567 l 100 -604 q 122 -666 100 -644 q 179 -689 143 -689 l 179 -689 q 229 -671 211 -689 q 247 -617 247 -654 l 247 -617 q 226 -554 247 -577 q 168 -532 204 -532 l 168 -532 z m 376 -532 q 326 -549 344 -532 q 308 -604 308 -567 l 308 -604 q 330 -666 308 -644 q 387 -689 351 -689 l 387 -689 q 437 -671 419 -689 q 455 -617 455 -654 l 455 -617 q 434 -554 455 -577 q 376 -532 412 -532 l 376 -532 z"},"è":{"ha":393,"x_min":33,"x_max":522,"o":"m 494 -223 q 515 -211 507 -223 q 522 -178 522 -199 l 522 -178 q 503 -116 522 -138 l 503 -116 q 399 -33 466 -71 q 254 5 331 5 l 254 5 q 91 -52 149 5 q 33 -208 33 -109 l 33 -208 q 62 -336 33 -277 q 143 -431 91 -396 q 259 -466 194 -466 l 259 -466 q 352 -431 317 -466 q 387 -338 387 -397 l 387 -338 q 338 -219 387 -269 q 170 -141 288 -170 l 170 -141 q 265 -95 195 -95 l 265 -95 q 368 -126 310 -95 q 467 -209 425 -158 l 467 -209 q 494 -223 479 -223 l 494 -223 z m 242 -368 q 180 -325 205 -368 q 154 -221 154 -282 l 154 -221 l 154 -219 q 247 -261 213 -233 q 281 -326 281 -289 l 281 -326 q 271 -356 281 -345 q 242 -368 260 -368 l 242 -368 z m 268 -532 q 237 -549 250 -532 l 237 -549 l 108 -715 q 86 -771 86 -743 l 86 -771 q 106 -817 86 -799 q 150 -835 125 -835 l 150 -835 q 182 -825 167 -835 q 206 -795 197 -815 l 206 -795 l 299 -587 q 303 -568 303 -578 l 303 -568 q 293 -542 303 -553 q 268 -532 282 -532 l 268 -532 z"},"f":{"ha":371,"x_min":52,"x_max":475,"o":"m 447 -280 q 475 -238 475 -280 l 475 -238 q 351 -159 475 -159 l 351 -159 q 282 -168 327 -159 l 282 -168 q 304 -30 295 -106 q 312 94 312 45 l 312 94 q 277 259 312 202 q 185 316 242 316 l 185 316 q 83 214 113 316 q 52 -94 52 112 l 52 -94 q 94 -483 52 -286 q 208 -810 135 -681 q 367 -940 280 -940 l 367 -940 q 441 -898 414 -940 q 467 -785 467 -856 l 467 -785 q 186 -273 467 -550 l 186 -273 q 176 -101 176 -175 l 176 -101 q 183 111 176 2 q 206 219 190 219 l 206 219 q 236 115 236 219 l 236 115 q 226 -36 236 37 q 197 -190 215 -109 l 197 -190 q 206 -223 196 -203 q 229 -258 215 -243 q 254 -273 243 -273 l 254 -273 q 302 -271 274 -273 l 302 -271 q 323 -270 311 -270 l 323 -270 q 412 -277 363 -270 l 412 -277 q 429 -279 420 -278 q 447 -280 438 -280 l 447 -280 z m 346 -841 q 302 -780 328 -841 q 249 -618 275 -719 q 204 -406 223 -518 l 204 -406 q 327 -595 284 -497 q 371 -780 370 -694 l 371 -780 q 346 -841 371 -841 l 346 -841 z"},"g":{"ha":479,"x_min":-2,"x_max":588,"o":"m 560 -221 q 581 -208 573 -221 q 588 -177 588 -196 l 588 -177 q 581 -141 588 -154 q 559 -118 574 -128 l 559 -118 q 433 -32 473 -60 l 433 -32 l 369 11 q 270 337 331 218 q 113 455 208 455 l 113 455 q 30 424 62 455 q -2 341 -2 392 l -2 341 q 54 189 -2 270 q 264 -12 110 107 l 264 -12 l 270 -51 q 226 -9 253 -24 q 171 5 198 5 l 171 5 q 72 -40 109 5 q 35 -158 35 -85 l 35 -158 q 72 -309 35 -238 q 171 -424 109 -381 q 301 -468 232 -468 l 301 -468 q 331 -459 323 -468 q 343 -429 338 -451 l 343 -429 q 387 -433 362 -433 l 387 -433 q 423 -425 412 -433 q 433 -396 433 -418 l 433 -396 q 432 -377 433 -384 l 432 -377 q 407 -220 428 -346 l 407 -220 q 399 -167 403 -196 q 389 -107 394 -139 l 389 -107 q 537 -213 466 -167 l 537 -213 q 560 -221 550 -221 l 560 -221 z m 207 -96 q 251 -124 230 -96 q 281 -204 272 -152 l 281 -204 l 313 -375 q 237 -343 272 -374 q 181 -263 202 -313 q 160 -157 160 -213 l 160 -157 q 173 -111 160 -126 q 207 -96 185 -96 l 207 -96 z m 124 358 q 181 298 149 358 q 241 107 212 238 l 241 107 q 130 226 164 173 q 96 319 96 279 l 96 319 q 103 347 96 336 q 124 358 109 358 l 124 358 z"},"h":{"ha":502,"x_min":53,"x_max":631,"o":"m 603 -223 q 624 -211 616 -223 q 631 -178 631 -199 l 631 -178 q 612 -116 631 -138 l 612 -116 q 518 -29 566 -63 q 407 5 469 5 l 407 5 q 330 -24 356 5 q 304 -110 304 -54 l 304 -110 q 318 -210 304 -138 l 318 -210 q 331 -297 331 -273 l 331 -297 q 320 -313 331 -313 l 320 -313 q 283 -279 307 -313 q 235 -191 259 -246 q 196 -75 211 -136 l 196 -75 q 102 5 177 5 l 102 5 q 63 -16 72 5 q 53 -94 53 -38 l 53 -94 q 54 -145 53 -126 l 54 -145 l 55 -225 q 87 -546 55 -379 q 180 -826 118 -713 q 327 -940 241 -940 l 327 -940 q 402 -900 373 -940 q 430 -798 430 -861 l 430 -798 q 371 -588 430 -697 q 179 -335 312 -480 l 179 -335 q 176 -228 176 -283 l 176 -228 q 250 -366 209 -313 q 330 -443 290 -420 q 402 -466 369 -466 l 402 -466 q 467 -401 467 -466 l 467 -401 q 445 -260 467 -362 l 445 -260 q 426 -145 426 -173 l 426 -145 q 455 -105 426 -105 l 455 -105 q 503 -129 475 -105 q 576 -209 530 -154 l 576 -209 q 603 -223 588 -223 l 603 -223 z m 306 -841 q 266 -789 288 -841 q 224 -650 244 -738 q 190 -460 203 -563 l 190 -460 q 293 -619 252 -533 q 333 -775 333 -705 l 333 -775 q 326 -824 333 -807 q 306 -841 319 -841 l 306 -841 z"},"i":{"ha":246,"x_min":47,"x_max":375,"o":"m 179 -532 q 116 -551 137 -532 q 95 -606 95 -571 l 95 -606 q 123 -664 95 -641 q 191 -688 150 -688 l 191 -688 q 251 -670 228 -688 q 274 -619 274 -652 l 274 -619 q 248 -555 274 -579 q 179 -532 222 -532 l 179 -532 z m 171 5 q 77 -41 106 5 q 47 -163 47 -87 l 47 -163 q 59 -278 47 -208 q 88 -410 70 -349 l 88 -410 q 112 -454 97 -442 q 160 -466 127 -466 l 160 -466 q 211 -432 211 -466 l 211 -432 q 192 -316 211 -407 l 192 -316 q 168 -167 168 -206 l 168 -167 q 176 -121 168 -137 q 203 -105 184 -105 l 203 -105 q 248 -130 221 -105 q 320 -209 275 -155 l 320 -209 q 347 -223 332 -223 l 347 -223 q 368 -211 360 -223 q 375 -178 375 -199 l 375 -178 q 356 -116 375 -138 l 356 -116 q 171 5 257 5 l 171 5 z"},"í":{"ha":246,"x_min":47,"x_max":375,"o":"m 171 5 q 77 -41 106 5 q 47 -163 47 -87 l 47 -163 q 59 -278 47 -208 q 88 -410 70 -349 l 88 -410 q 112 -454 97 -442 q 160 -466 127 -466 l 160 -466 q 211 -432 211 -466 l 211 -432 q 192 -316 211 -407 l 192 -316 q 168 -167 168 -206 l 168 -167 q 176 -121 168 -137 q 203 -105 184 -105 l 203 -105 q 248 -130 221 -105 q 320 -209 275 -155 l 320 -209 q 347 -223 332 -223 l 347 -223 q 368 -211 360 -223 q 375 -178 375 -199 l 375 -178 q 356 -116 375 -138 l 356 -116 q 171 5 257 5 l 171 5 z m 169 -532 q 145 -542 155 -532 q 134 -568 134 -553 l 134 -568 q 139 -587 134 -575 l 139 -587 l 232 -795 q 256 -824 241 -815 q 288 -834 270 -834 l 288 -834 q 333 -816 313 -834 q 352 -771 352 -798 l 352 -771 q 330 -715 352 -743 l 330 -715 l 201 -549 q 169 -532 188 -532 l 169 -532 z"},"î":{"ha":246,"x_min":-2,"x_max":375,"o":"m 171 5 q 77 -41 106 5 q 47 -163 47 -87 l 47 -163 q 59 -278 47 -208 q 88 -410 70 -349 l 88 -410 q 112 -454 97 -442 q 160 -466 127 -466 l 160 -466 q 211 -432 211 -466 l 211 -432 q 192 -316 211 -407 l 192 -316 q 168 -167 168 -206 l 168 -167 q 176 -121 168 -137 q 203 -105 184 -105 l 203 -105 q 248 -130 221 -105 q 320 -209 275 -155 l 320 -209 q 347 -223 332 -223 l 347 -223 q 368 -211 360 -223 q 375 -178 375 -199 l 375 -178 q 356 -116 375 -138 l 356 -116 q 171 5 257 5 l 171 5 z m 279 -531 q 242 -542 256 -531 q 224 -585 228 -554 l 224 -585 l 201 -762 l 114 -585 q 82 -543 99 -554 q 44 -532 65 -532 l 44 -532 q 11 -541 23 -532 q -2 -569 -2 -551 l -2 -569 q 9 -605 -2 -586 l 9 -605 l 121 -798 q 162 -844 139 -829 q 215 -860 184 -860 l 215 -860 q 262 -842 245 -860 q 288 -785 279 -824 l 288 -785 l 332 -605 q 335 -583 335 -593 l 335 -583 q 319 -544 335 -558 q 279 -531 302 -531 l 279 -531 z"},"ï":{"ha":246,"x_min":1,"x_max":375,"o":"m 171 5 q 77 -41 106 5 q 47 -163 47 -87 l 47 -163 q 59 -278 47 -208 q 88 -410 70 -349 l 88 -410 q 112 -454 97 -442 q 160 -466 127 -466 l 160 -466 q 211 -432 211 -466 l 211 -432 q 192 -316 211 -407 l 192 -316 q 168 -167 168 -206 l 168 -167 q 176 -121 168 -137 q 203 -105 184 -105 l 203 -105 q 248 -130 221 -105 q 320 -209 275 -155 l 320 -209 q 347 -223 332 -223 l 347 -223 q 368 -211 360 -223 q 375 -178 375 -199 l 375 -178 q 356 -116 375 -138 l 356 -116 q 171 5 257 5 l 171 5 z m 69 -532 q 19 -549 37 -532 q 1 -604 1 -567 l 1 -604 q 23 -666 1 -644 q 80 -689 44 -689 l 80 -689 q 130 -671 112 -689 q 148 -617 148 -654 l 148 -617 q 127 -554 148 -577 q 69 -532 105 -532 l 69 -532 z m 277 -532 q 227 -549 245 -532 q 209 -604 209 -567 l 209 -604 q 231 -666 209 -644 q 288 -689 252 -689 l 288 -689 q 338 -671 320 -689 q 356 -617 356 -654 l 356 -617 q 335 -554 356 -577 q 277 -532 313 -532 l 277 -532 z"},"ì":{"ha":246,"x_min":-13,"x_max":375,"o":"m 171 5 q 77 -41 106 5 q 47 -163 47 -87 l 47 -163 q 59 -278 47 -208 q 88 -410 70 -349 l 88 -410 q 112 -454 97 -442 q 160 -466 127 -466 l 160 -466 q 211 -432 211 -466 l 211 -432 q 192 -316 211 -407 l 192 -316 q 168 -167 168 -206 l 168 -167 q 176 -121 168 -137 q 203 -105 184 -105 l 203 -105 q 248 -130 221 -105 q 320 -209 275 -155 l 320 -209 q 347 -223 332 -223 l 347 -223 q 368 -211 360 -223 q 375 -178 375 -199 l 375 -178 q 356 -116 375 -138 l 356 -116 q 171 5 257 5 l 171 5 z m 169 -532 q 138 -549 151 -532 l 138 -549 l 9 -715 q -13 -771 -13 -743 l -13 -771 q 7 -817 -13 -799 q 51 -835 26 -835 l 51 -835 q 83 -825 68 -835 q 107 -795 98 -815 l 107 -795 l 200 -587 q 204 -568 204 -578 l 204 -568 q 194 -542 204 -553 q 169 -532 183 -532 l 169 -532 z"},"j":{"ha":254,"x_min":-227,"x_max":363,"o":"m 155 -532 q 92 -551 113 -532 q 71 -606 71 -571 l 71 -606 q 99 -664 71 -641 q 167 -688 126 -688 l 167 -688 q 227 -670 204 -688 q 250 -619 250 -652 l 250 -619 q 224 -555 250 -579 q 155 -532 198 -532 l 155 -532 z m 335 -221 q 356 -208 348 -221 q 363 -177 363 -196 l 363 -177 q 356 -141 363 -154 q 334 -118 349 -128 l 334 -118 q 147 9 264 -72 l 147 9 q 46 336 108 217 q -112 455 -16 455 l -112 455 q -195 424 -164 455 q -227 341 -227 392 l -227 341 q -172 190 -227 270 q 35 -9 -117 109 l 35 -9 l 42 -60 q 64 -249 56 -156 l 64 -249 q 83 -410 70 -303 l 83 -410 q 105 -452 87 -439 q 160 -466 123 -466 l 160 -466 q 200 -457 190 -466 q 209 -432 209 -448 l 209 -432 q 176 -178 209 -386 l 176 -178 l 166 -109 q 312 -213 246 -169 l 312 -213 q 335 -221 325 -221 l 335 -221 z m -101 358 q -44 299 -75 358 q 14 109 -13 240 l 14 109 q -95 227 -62 174 q -129 319 -129 279 l -129 319 q -101 358 -129 358 l -101 358 z"},"k":{"ha":525,"x_min":55,"x_max":654,"o":"m 626 -223 q 647 -211 639 -223 q 654 -178 654 -199 l 654 -178 q 635 -116 654 -138 l 635 -116 q 544 -28 590 -61 q 435 5 498 5 l 435 5 q 311 -39 358 5 q 264 -156 264 -83 l 264 -156 q 304 -212 264 -195 l 304 -212 q 367 -252 348 -231 q 386 -305 386 -274 l 386 -305 q 379 -332 386 -323 q 360 -341 371 -341 l 360 -341 q 301 -302 333 -341 q 240 -201 268 -263 q 196 -75 212 -140 l 196 -75 q 171 -11 185 -28 q 125 5 156 5 l 125 5 q 80 -17 94 5 q 60 -87 65 -40 q 55 -225 55 -134 l 55 -225 q 87 -546 55 -379 q 180 -826 118 -713 q 327 -940 241 -940 l 327 -940 q 402 -900 373 -940 q 430 -798 430 -861 l 430 -798 q 371 -588 430 -697 q 179 -335 312 -480 l 179 -335 q 176 -228 176 -283 l 176 -228 q 286 -409 224 -353 q 402 -466 348 -466 l 402 -466 q 483 -432 452 -466 q 513 -348 513 -398 l 513 -348 q 485 -247 513 -293 q 389 -165 457 -201 l 389 -165 q 414 -121 393 -138 q 463 -105 434 -105 l 463 -105 q 523 -129 494 -105 q 599 -209 552 -153 l 599 -209 q 626 -223 611 -223 l 626 -223 z m 306 -841 q 266 -789 288 -841 q 224 -650 244 -738 q 190 -460 203 -563 l 190 -460 q 293 -619 252 -533 q 333 -775 333 -705 l 333 -775 q 326 -824 333 -807 q 306 -841 319 -841 l 306 -841 z"},"l":{"ha":326,"x_min":55,"x_max":455,"o":"m 427 -223 q 448 -211 440 -223 q 455 -178 455 -199 l 455 -178 q 436 -116 455 -138 l 436 -116 q 343 -29 393 -63 q 228 5 292 5 l 228 5 q 98 -75 140 5 q 55 -282 55 -155 l 55 -282 q 87 -560 55 -404 q 180 -828 118 -716 q 326 -940 241 -940 l 326 -940 q 402 -895 374 -940 q 429 -768 429 -851 l 429 -768 q 363 -492 429 -649 q 184 -181 297 -335 l 184 -181 q 207 -122 191 -140 q 249 -105 223 -105 l 249 -105 q 321 -128 290 -105 q 400 -209 352 -152 l 400 -209 q 427 -223 412 -223 l 427 -223 z m 304 -841 q 252 -758 281 -841 q 201 -552 223 -675 q 177 -316 179 -429 l 177 -316 q 290 -550 248 -433 q 332 -765 332 -668 l 332 -765 q 304 -841 332 -841 l 304 -841 z"},"m":{"ha":744,"x_min":50,"x_max":873,"o":"m 119 5 q 66 -35 81 5 q 50 -163 50 -75 l 50 -163 q 87 -410 50 -293 l 87 -410 q 117 -452 96 -439 q 174 -466 137 -466 l 174 -466 q 202 -461 194 -466 q 210 -442 210 -456 l 210 -442 q 195 -370 210 -426 l 195 -370 q 179 -300 185 -330 q 169 -227 173 -271 l 169 -227 q 234 -359 196 -305 q 311 -439 271 -413 q 385 -466 350 -466 l 385 -466 q 435 -450 420 -466 q 449 -401 449 -434 l 449 -401 q 430 -285 449 -369 l 430 -285 q 419 -231 422 -249 l 419 -231 q 530 -410 469 -354 q 644 -466 591 -466 l 644 -466 q 709 -401 709 -466 l 709 -401 q 687 -260 709 -362 l 687 -260 q 668 -145 668 -173 l 668 -145 q 697 -105 668 -105 l 697 -105 q 745 -129 717 -105 q 818 -209 772 -154 l 818 -209 q 845 -223 830 -223 l 845 -223 q 866 -211 858 -223 q 873 -178 873 -199 l 873 -178 q 854 -116 873 -138 l 854 -116 q 762 -29 811 -63 q 649 5 712 5 l 649 5 q 572 -24 598 5 q 546 -110 546 -54 l 546 -110 q 560 -210 546 -138 l 560 -210 q 573 -297 573 -273 l 573 -297 q 562 -313 573 -313 l 562 -313 q 525 -279 549 -313 q 477 -191 501 -246 q 438 -75 453 -136 l 438 -75 q 413 -11 427 -27 q 366 5 398 5 l 366 5 q 317 -26 333 5 q 300 -103 300 -58 l 300 -103 q 310 -213 300 -141 l 310 -213 q 318 -297 318 -277 l 318 -297 q 307 -313 318 -313 l 307 -313 q 269 -277 292 -313 q 225 -185 246 -241 q 190 -75 203 -129 l 190 -75 q 165 -11 179 -28 q 119 5 150 5 l 119 5 z"},"n":{"ha":496,"x_min":50,"x_max":625,"o":"m 119 5 q 66 -35 81 5 q 50 -163 50 -75 l 50 -163 q 87 -410 50 -293 l 87 -410 q 117 -452 96 -439 q 174 -466 137 -466 l 174 -466 q 202 -461 194 -466 q 210 -442 210 -456 l 210 -442 q 195 -370 210 -426 l 195 -370 q 179 -300 185 -330 q 169 -226 173 -270 l 169 -226 q 243 -366 202 -312 q 324 -443 284 -420 q 396 -466 363 -466 l 396 -466 q 461 -401 461 -466 l 461 -401 q 439 -260 461 -362 l 439 -260 q 420 -145 420 -173 l 420 -145 q 449 -105 420 -105 l 449 -105 q 497 -129 469 -105 q 570 -209 524 -154 l 570 -209 q 597 -223 582 -223 l 597 -223 q 618 -211 610 -223 q 625 -178 625 -199 l 625 -178 q 606 -116 625 -138 l 606 -116 q 514 -29 563 -63 q 401 5 464 5 l 401 5 q 324 -24 350 5 q 298 -110 298 -54 l 298 -110 q 312 -210 298 -138 l 312 -210 q 325 -297 325 -273 l 325 -297 q 314 -313 325 -313 l 314 -313 q 278 -279 301 -313 q 230 -191 254 -246 q 190 -75 205 -136 l 190 -75 q 165 -11 179 -28 q 119 5 150 5 l 119 5 z"},"ñ":{"ha":496,"x_min":50,"x_max":625,"o":"m 119 5 q 66 -35 81 5 q 50 -163 50 -75 l 50 -163 q 87 -410 50 -293 l 87 -410 q 117 -452 96 -439 q 174 -466 137 -466 l 174 -466 q 202 -461 194 -466 q 210 -442 210 -456 l 210 -442 q 195 -370 210 -426 l 195 -370 q 179 -300 185 -330 q 169 -226 173 -270 l 169 -226 q 243 -366 202 -312 q 324 -443 284 -420 q 396 -466 363 -466 l 396 -466 q 461 -401 461 -466 l 461 -401 q 439 -260 461 -362 l 439 -260 q 420 -145 420 -173 l 420 -145 q 449 -105 420 -105 l 449 -105 q 497 -129 469 -105 q 570 -209 524 -154 l 570 -209 q 597 -223 582 -223 l 597 -223 q 618 -211 610 -223 q 625 -178 625 -199 l 625 -178 q 606 -116 625 -138 l 606 -116 q 514 -29 563 -63 q 401 5 464 5 l 401 5 q 324 -24 350 5 q 298 -110 298 -54 l 298 -110 q 312 -210 298 -138 l 312 -210 q 325 -297 325 -273 l 325 -297 q 314 -313 325 -313 l 314 -313 q 278 -279 301 -313 q 230 -191 254 -246 q 190 -75 205 -136 l 190 -75 q 165 -11 179 -28 q 119 5 150 5 l 119 5 z m 416 -532 q 386 -537 400 -532 q 350 -558 372 -543 l 350 -558 l 243 -632 l 199 -569 q 154 -547 183 -547 l 154 -547 q 124 -557 136 -547 q 111 -586 111 -568 l 111 -586 q 148 -663 111 -609 l 148 -663 q 193 -711 171 -696 q 241 -727 215 -727 l 241 -727 q 272 -722 258 -727 q 307 -701 285 -717 l 307 -701 l 414 -627 l 458 -690 q 503 -712 474 -712 l 503 -712 q 534 -701 521 -712 q 546 -673 546 -691 l 546 -673 q 537 -641 546 -659 q 509 -596 527 -624 l 509 -596 q 464 -547 486 -563 q 416 -532 442 -532 l 416 -532 z"},"o":{"ha":451,"x_min":33,"x_max":585,"o":"m 558 -307 q 578 -294 571 -307 q 585 -261 585 -281 l 585 -261 q 556 -204 585 -213 l 556 -204 q 424 -180 496 -183 l 424 -180 q 349 -45 405 -96 q 222 5 293 5 l 222 5 q 120 -24 162 5 q 55 -101 77 -53 q 33 -205 33 -149 l 33 -205 q 62 -340 33 -281 q 142 -433 91 -400 q 255 -467 193 -467 l 255 -467 q 378 -414 331 -467 q 432 -285 424 -362 l 432 -285 q 544 -305 479 -288 l 544 -305 q 558 -307 552 -307 l 558 -307 z m 230 -101 q 286 -127 262 -101 q 317 -202 309 -153 l 317 -202 q 270 -257 286 -223 q 253 -329 253 -291 l 253 -329 q 256 -361 253 -345 l 256 -361 l 251 -361 q 185 -322 211 -361 q 158 -214 158 -284 l 158 -214 q 180 -130 158 -159 q 230 -101 201 -101 l 230 -101 z"},"ó":{"ha":451,"x_min":33,"x_max":585,"o":"m 558 -307 q 578 -294 571 -307 q 585 -261 585 -281 l 585 -261 q 556 -204 585 -213 l 556 -204 q 424 -180 496 -183 l 424 -180 q 349 -45 405 -96 q 222 5 293 5 l 222 5 q 120 -24 162 5 q 55 -101 77 -53 q 33 -205 33 -149 l 33 -205 q 62 -340 33 -281 q 142 -433 91 -400 q 255 -467 193 -467 l 255 -467 q 378 -414 331 -467 q 432 -285 424 -362 l 432 -285 q 544 -305 479 -288 l 544 -305 q 558 -307 552 -307 l 558 -307 z m 230 -101 q 286 -127 262 -101 q 317 -202 309 -153 l 317 -202 q 270 -257 286 -223 q 253 -329 253 -291 l 253 -329 q 256 -361 253 -345 l 256 -361 l 251 -361 q 185 -322 211 -361 q 158 -214 158 -284 l 158 -214 q 180 -130 158 -159 q 230 -101 201 -101 l 230 -101 z m 264 -532 q 240 -542 250 -532 q 229 -568 229 -553 l 229 -568 q 234 -587 229 -575 l 234 -587 l 327 -795 q 351 -824 336 -815 q 383 -834 365 -834 l 383 -834 q 428 -816 408 -834 q 447 -771 447 -798 l 447 -771 q 425 -715 447 -743 l 425 -715 l 296 -549 q 264 -532 283 -532 l 264 -532 z"},"ô":{"ha":451,"x_min":33,"x_max":585,"o":"m 558 -307 q 578 -294 571 -307 q 585 -261 585 -281 l 585 -261 q 556 -204 585 -213 l 556 -204 q 424 -180 496 -183 l 424 -180 q 349 -45 405 -96 q 222 5 293 5 l 222 5 q 120 -24 162 5 q 55 -101 77 -53 q 33 -205 33 -149 l 33 -205 q 62 -340 33 -281 q 142 -433 91 -400 q 255 -467 193 -467 l 255 -467 q 378 -414 331 -467 q 432 -285 424 -362 l 432 -285 q 544 -305 479 -288 l 544 -305 q 558 -307 552 -307 l 558 -307 z m 230 -101 q 286 -127 262 -101 q 317 -202 309 -153 l 317 -202 q 270 -257 286 -223 q 253 -329 253 -291 l 253 -329 q 256 -361 253 -345 l 256 -361 l 251 -361 q 185 -322 211 -361 q 158 -214 158 -284 l 158 -214 q 180 -130 158 -159 q 230 -101 201 -101 l 230 -101 z m 374 -531 q 337 -542 351 -531 q 319 -585 323 -554 l 319 -585 l 296 -762 l 209 -585 q 177 -543 194 -554 q 139 -532 160 -532 l 139 -532 q 106 -541 118 -532 q 93 -569 93 -551 l 93 -569 q 104 -605 93 -586 l 104 -605 l 216 -798 q 257 -844 234 -829 q 310 -860 279 -860 l 310 -860 q 357 -842 340 -860 q 383 -785 374 -824 l 383 -785 l 427 -605 q 430 -583 430 -593 l 430 -583 q 414 -544 430 -558 q 374 -531 397 -531 l 374 -531 z"},"ö":{"ha":451,"x_min":33,"x_max":585,"o":"m 558 -307 q 578 -294 571 -307 q 585 -261 585 -281 l 585 -261 q 556 -204 585 -213 l 556 -204 q 424 -180 496 -183 l 424 -180 q 349 -45 405 -96 q 222 5 293 5 l 222 5 q 120 -24 162 5 q 55 -101 77 -53 q 33 -205 33 -149 l 33 -205 q 62 -340 33 -281 q 142 -433 91 -400 q 255 -467 193 -467 l 255 -467 q 378 -414 331 -467 q 432 -285 424 -362 l 432 -285 q 544 -305 479 -288 l 544 -305 q 558 -307 552 -307 l 558 -307 z m 230 -101 q 286 -127 262 -101 q 317 -202 309 -153 l 317 -202 q 270 -257 286 -223 q 253 -329 253 -291 l 253 -329 q 256 -361 253 -345 l 256 -361 l 251 -361 q 185 -322 211 -361 q 158 -214 158 -284 l 158 -214 q 180 -130 158 -159 q 230 -101 201 -101 l 230 -101 z m 164 -532 q 114 -549 132 -532 q 96 -604 96 -567 l 96 -604 q 118 -666 96 -644 q 175 -689 139 -689 l 175 -689 q 225 -671 207 -689 q 243 -617 243 -654 l 243 -617 q 222 -554 243 -577 q 164 -532 200 -532 l 164 -532 z m 372 -532 q 322 -549 340 -532 q 304 -604 304 -567 l 304 -604 q 326 -666 304 -644 q 383 -689 347 -689 l 383 -689 q 433 -671 415 -689 q 451 -617 451 -654 l 451 -617 q 430 -554 451 -577 q 372 -532 408 -532 l 372 -532 z"},"ò":{"ha":451,"x_min":33,"x_max":585,"o":"m 558 -307 q 578 -294 571 -307 q 585 -261 585 -281 l 585 -261 q 556 -204 585 -213 l 556 -204 q 424 -180 496 -183 l 424 -180 q 349 -45 405 -96 q 222 5 293 5 l 222 5 q 120 -24 162 5 q 55 -101 77 -53 q 33 -205 33 -149 l 33 -205 q 62 -340 33 -281 q 142 -433 91 -400 q 255 -467 193 -467 l 255 -467 q 378 -414 331 -467 q 432 -285 424 -362 l 432 -285 q 544 -305 479 -288 l 544 -305 q 558 -307 552 -307 l 558 -307 z m 230 -101 q 286 -127 262 -101 q 317 -202 309 -153 l 317 -202 q 270 -257 286 -223 q 253 -329 253 -291 l 253 -329 q 256 -361 253 -345 l 256 -361 l 251 -361 q 185 -322 211 -361 q 158 -214 158 -284 l 158 -214 q 180 -130 158 -159 q 230 -101 201 -101 l 230 -101 z m 264 -532 q 233 -549 246 -532 l 233 -549 l 104 -715 q 82 -771 82 -743 l 82 -771 q 102 -817 82 -799 q 146 -835 121 -835 l 146 -835 q 178 -825 163 -835 q 202 -795 193 -815 l 202 -795 l 295 -587 q 299 -568 299 -578 l 299 -568 q 289 -542 299 -553 q 264 -532 278 -532 l 264 -532 z"},"ø":{"ha":459,"x_min":33,"x_max":593,"o":"m 566 -307 q 586 -294 579 -307 q 593 -261 593 -281 l 593 -261 q 564 -204 593 -213 l 564 -204 q 435 -180 504 -183 l 435 -180 q 361 -50 416 -100 q 234 5 306 0 l 234 5 l 217 105 q 203 124 215 117 q 176 130 191 130 l 176 130 q 152 124 161 130 q 144 105 142 117 l 144 105 l 164 -3 q 67 -78 100 -22 q 33 -205 33 -135 l 33 -205 q 61 -338 33 -279 q 137 -431 89 -397 q 245 -467 185 -465 l 245 -467 l 262 -566 q 276 -584 264 -578 q 303 -591 288 -591 l 303 -591 q 328 -584 318 -591 q 335 -566 337 -578 l 335 -566 l 315 -458 q 404 -393 371 -441 q 443 -285 437 -346 l 443 -285 q 552 -305 489 -289 l 552 -305 q 566 -307 558 -307 l 566 -307 z m 155 -214 q 184 -116 155 -145 l 184 -116 l 209 -252 l 227 -361 q 176 -315 196 -352 q 155 -214 155 -279 l 155 -214 z m 252 -101 q 308 -147 288 -110 q 327 -248 327 -185 l 327 -248 q 295 -347 327 -318 l 295 -347 l 278 -255 l 252 -101 z"},"õ":{"ha":451,"x_min":33,"x_max":585,"o":"m 558 -307 q 578 -294 571 -307 q 585 -261 585 -281 l 585 -261 q 556 -204 585 -213 l 556 -204 q 424 -180 496 -183 l 424 -180 q 349 -45 405 -96 q 222 5 293 5 l 222 5 q 120 -24 162 5 q 55 -101 77 -53 q 33 -205 33 -149 l 33 -205 q 62 -340 33 -281 q 142 -433 91 -400 q 255 -467 193 -467 l 255 -467 q 378 -414 331 -467 q 432 -285 424 -362 l 432 -285 q 544 -305 479 -288 l 544 -305 q 558 -307 552 -307 l 558 -307 z m 230 -101 q 286 -127 262 -101 q 317 -202 309 -153 l 317 -202 q 270 -257 286 -223 q 253 -329 253 -291 l 253 -329 q 256 -361 253 -345 l 256 -361 l 251 -361 q 185 -322 211 -361 q 158 -214 158 -284 l 158 -214 q 180 -130 158 -159 q 230 -101 201 -101 l 230 -101 z m 364 -532 q 334 -537 348 -532 q 298 -558 320 -543 l 298 -558 l 191 -632 l 147 -569 q 102 -547 131 -547 l 102 -547 q 72 -557 84 -547 q 59 -586 59 -568 l 59 -586 q 96 -663 59 -609 l 96 -663 q 141 -711 119 -696 q 189 -727 163 -727 l 189 -727 q 220 -722 206 -727 q 255 -701 233 -717 l 255 -701 l 362 -627 l 406 -690 q 451 -712 422 -712 l 451 -712 q 482 -701 469 -712 q 494 -673 494 -691 l 494 -673 q 485 -641 494 -659 q 457 -596 475 -624 l 457 -596 q 412 -547 434 -563 q 364 -532 390 -532 l 364 -532 z"},"p":{"ha":481,"x_min":-119,"x_max":610,"o":"m 582 -223 q 603 -211 595 -223 q 610 -178 610 -199 l 610 -178 q 591 -116 610 -138 l 591 -116 q 499 -29 548 -63 q 386 5 449 5 l 386 5 q 300 -33 333 5 l 300 -33 q 181 5 243 4 l 181 5 q 122 328 168 198 q -13 457 76 457 l -13 457 q -93 418 -67 457 q -119 310 -119 379 l -119 310 q -74 82 -119 212 q 65 -206 -29 -49 l 65 -206 q 63 -409 65 -352 l 63 -409 q 86 -455 62 -438 q 146 -472 110 -472 l 146 -472 q 177 -463 167 -472 q 187 -430 186 -455 l 187 -430 q 188 -393 187 -405 l 188 -393 q 251 -450 220 -433 q 317 -468 282 -468 l 317 -468 q 409 -423 373 -468 q 444 -305 444 -378 l 444 -305 q 427 -202 444 -252 q 380 -111 410 -152 l 380 -111 q 415 -105 401 -105 l 415 -105 q 478 -129 448 -105 q 555 -209 508 -153 l 555 -209 q 582 -223 567 -223 l 582 -223 z m 186 -91 q 253 -130 222 -99 q 301 -208 283 -162 q 319 -306 319 -255 l 319 -306 q 307 -351 319 -336 q 275 -367 295 -367 l 275 -367 q 188 -291 239 -367 l 188 -291 q 187 -162 187 -247 l 187 -162 q 186 -91 187 -116 l 186 -91 z m -5 359 q 40 242 22 359 q 63 -51 58 124 l 63 -51 q -5 140 20 49 q -30 293 -30 231 l -30 293 q -22 342 -30 325 q -5 359 -15 359 l -5 359 z"},"þ":{"ha":508,"x_min":24,"x_max":637,"o":"m 609 -223 q 630 -211 622 -223 q 637 -178 637 -199 l 637 -178 q 618 -116 637 -138 l 618 -116 q 526 -29 575 -63 q 413 5 476 5 l 413 5 q 321 -40 355 5 l 321 -40 q 150 11 250 1 l 150 11 q 148 149 148 105 l 148 149 l 149 277 q 130 322 149 309 q 82 335 110 335 l 82 335 q 39 324 54 335 q 24 286 24 313 l 24 286 q 30 39 24 182 q 48 -228 35 -105 l 48 -228 q 127 -712 71 -447 l 127 -712 q 154 -768 135 -752 q 199 -784 172 -784 l 199 -784 q 247 -774 232 -784 q 262 -742 262 -764 l 262 -742 q 258 -716 262 -736 l 258 -716 q 173 -283 209 -516 l 173 -283 q 261 -418 211 -371 q 365 -466 311 -466 l 365 -466 q 441 -428 410 -466 q 471 -321 471 -391 l 471 -321 q 404 -112 471 -196 l 404 -112 q 442 -105 425 -105 l 442 -105 q 505 -129 475 -105 q 582 -209 535 -153 l 582 -209 q 609 -223 594 -223 l 609 -223 z m 165 -90 q 299 -152 252 -101 q 345 -276 345 -203 l 345 -276 q 315 -336 345 -336 l 315 -336 q 264 -301 292 -336 q 209 -210 235 -267 q 165 -90 182 -154 l 165 -90 z"},"q":{"ha":500,"x_min":35,"x_max":632,"o":"m 609 -192 q 632 -161 632 -192 l 632 -161 q 615 -100 632 -122 q 567 -78 597 -78 l 567 -78 l 530 -79 q 501 -80 520 -80 l 501 -80 q 505 34 505 -23 l 505 34 q 466 297 505 185 q 342 409 426 409 l 342 409 q 256 344 285 409 q 226 184 226 278 l 226 184 q 252 -47 226 67 l 252 -47 q 163 5 218 5 l 163 5 q 72 -41 108 5 q 35 -160 35 -87 l 35 -160 q 73 -310 35 -239 q 173 -424 110 -381 q 306 -468 235 -468 l 306 -468 q 343 -452 330 -468 l 343 -452 q 370 -495 352 -484 q 420 -506 388 -506 l 420 -506 q 466 -496 454 -506 q 476 -467 477 -486 l 476 -467 q 464 -411 476 -455 q 447 -354 451 -368 l 447 -354 q 413 -230 431 -298 q 383 -106 394 -162 l 383 -106 q 351 177 351 54 l 351 177 q 359 256 351 223 q 378 288 366 288 l 378 288 q 400 254 388 288 q 419 163 411 220 q 427 42 427 106 l 427 42 q 420 -93 427 -34 l 420 -93 q 419 -109 419 -98 l 419 -109 q 436 -164 419 -142 q 482 -186 452 -186 l 482 -186 q 558 -189 486 -186 l 558 -189 q 609 -192 588 -192 l 609 -192 z m 203 -96 q 247 -124 226 -96 q 277 -193 268 -153 l 277 -193 l 320 -375 q 240 -344 276 -374 q 182 -264 203 -314 q 160 -160 160 -215 l 160 -160 q 172 -112 160 -129 q 203 -96 183 -96 l 203 -96 z"},"r":{"ha":455,"x_min":50,"x_max":596,"o":"m 119 5 q 66 -35 81 5 q 50 -163 50 -75 l 50 -163 q 87 -410 50 -293 l 87 -410 q 117 -452 96 -439 q 174 -466 137 -466 l 174 -466 q 202 -461 194 -466 q 210 -442 210 -456 l 210 -442 q 195 -370 210 -426 l 195 -370 q 179 -300 185 -330 q 169 -226 173 -270 l 169 -226 q 243 -366 202 -312 q 324 -443 284 -420 q 396 -466 363 -466 l 396 -466 q 461 -401 461 -466 l 461 -401 q 452 -338 461 -388 l 452 -338 q 444 -288 444 -298 l 444 -288 q 469 -253 444 -253 l 469 -253 q 541 -297 497 -253 l 541 -297 q 568 -310 554 -310 l 568 -310 q 589 -298 581 -310 q 596 -268 596 -287 l 596 -268 q 576 -210 596 -231 l 576 -210 q 511 -160 548 -181 q 431 -140 473 -140 l 431 -140 q 351 -167 378 -140 q 323 -240 323 -194 l 323 -240 q 326 -270 323 -255 l 326 -270 q 328 -297 328 -290 l 328 -297 q 317 -313 328 -313 l 317 -313 q 278 -279 302 -313 q 229 -191 253 -246 q 190 -75 205 -136 l 190 -75 q 165 -11 179 -28 q 119 5 150 5 l 119 5 z"},"s":{"ha":427,"x_min":-11,"x_max":556,"o":"m 234 27 q 155 3 182 27 q 127 -51 127 -21 l 127 -51 q 146 -96 127 -77 q 202 -115 165 -115 l 202 -115 q 233 -112 215 -115 q 259 -109 250 -110 l 259 -109 q 248 -158 258 -135 q 221 -202 237 -181 q 191 -240 205 -224 l 191 -240 q 130 -142 160 -181 q 63 -68 99 -103 l 63 -68 q 25 -50 45 -50 l 25 -50 q -1 -61 9 -50 q -11 -90 -11 -73 l -11 -90 q 3 -127 -11 -110 l 3 -127 l 16 -143 q 99 -255 71 -211 l 99 -255 q 139 -332 116 -284 q 184 -433 162 -381 l 184 -433 q 263 -477 203 -477 l 263 -477 q 302 -472 291 -477 q 313 -456 313 -467 l 313 -456 q 309 -437 313 -450 q 298 -411 305 -424 l 298 -411 q 280 -350 280 -375 l 280 -350 q 291 -317 280 -335 q 323 -272 301 -299 l 323 -272 q 372 -200 355 -230 q 388 -136 388 -171 l 388 -136 q 386 -108 388 -126 l 386 -108 q 501 -209 435 -127 l 501 -209 q 528 -223 513 -223 l 528 -223 q 549 -211 541 -223 q 556 -178 556 -199 l 556 -178 q 537 -116 556 -140 l 537 -116 q 442 -31 487 -54 q 329 -7 396 -9 l 329 -7 q 234 27 289 27 l 234 27 z"},"ß":{"ha":596,"x_min":43,"x_max":722,"o":"m 690 -244 q 722 -199 722 -230 l 722 -199 q 692 -153 722 -153 l 692 -153 q 670 -158 680 -153 l 670 -158 q 568 -191 616 -181 l 568 -191 q 577 -139 577 -169 l 577 -139 q 523 -29 577 -70 q 381 11 469 11 l 381 11 q 249 -25 293 11 q 205 -115 205 -62 l 205 -115 q 234 -195 205 -159 q 314 -254 263 -232 l 314 -254 q 264 -359 264 -299 l 264 -359 q 290 -435 264 -402 q 374 -508 315 -468 l 374 -508 q 435 -558 415 -535 q 454 -612 454 -582 l 454 -612 q 433 -666 454 -646 q 373 -686 411 -686 l 373 -686 q 236 -580 287 -686 q 177 -258 184 -475 l 177 -258 q 172 89 172 -74 l 172 89 l 172 179 q 152 209 172 198 q 103 220 131 220 l 103 220 q 61 211 79 220 q 43 183 43 201 l 43 183 q 53 -247 43 10 l 53 -247 q 155 -653 64 -526 q 388 -781 245 -781 l 388 -781 q 488 -759 446 -781 q 551 -701 529 -738 q 573 -619 573 -664 l 573 -619 q 546 -521 573 -560 q 466 -448 518 -483 l 466 -448 q 413 -404 427 -420 q 398 -371 398 -389 l 398 -371 q 414 -334 398 -350 q 464 -297 430 -319 l 464 -297 q 488 -281 480 -287 l 488 -281 q 602 -269 550 -279 q 690 -244 654 -259 l 690 -244 z m 385 -72 q 433 -85 413 -72 q 453 -123 453 -99 l 453 -123 q 439 -160 453 -144 q 396 -196 424 -177 l 396 -196 q 339 -165 358 -186 q 319 -121 319 -145 l 319 -121 q 337 -86 319 -101 q 385 -72 354 -72 l 385 -72 z"},"t":{"ha":393,"x_min":1,"x_max":522,"o":"m 494 -223 q 515 -211 507 -223 q 522 -178 522 -199 l 522 -178 q 503 -116 522 -138 l 503 -116 q 409 -29 460 -63 q 292 5 358 5 l 292 5 q 88 -282 88 5 l 88 -282 q 91 -371 88 -326 l 91 -371 l 52 -371 q 12 -382 22 -371 q 1 -417 1 -393 l 1 -417 q 46 -473 1 -473 l 46 -473 l 103 -473 q 155 -674 120 -583 q 240 -819 190 -765 q 346 -873 289 -873 l 346 -873 q 412 -836 388 -873 q 436 -743 436 -799 l 436 -743 q 306 -473 436 -588 l 306 -473 l 418 -473 q 441 -466 434 -473 q 448 -440 448 -459 l 448 -440 q 335 -371 448 -371 l 335 -371 l 213 -371 q 211 -293 211 -321 l 211 -293 q 236 -147 211 -189 q 313 -105 260 -105 l 313 -105 q 389 -131 356 -105 q 467 -209 422 -157 l 467 -209 q 494 -223 479 -223 l 494 -223 z m 319 -777 q 286 -739 304 -777 q 251 -635 267 -702 q 223 -488 234 -569 l 223 -488 q 312 -602 282 -539 q 341 -718 341 -666 l 341 -718 q 319 -777 341 -777 l 319 -777 z"},"u":{"ha":462,"x_min":48,"x_max":591,"o":"m 150 5 q 77 -36 105 5 q 48 -140 48 -78 l 48 -140 q 58 -277 48 -215 q 91 -410 68 -340 l 91 -410 q 119 -453 101 -440 q 176 -466 137 -466 l 176 -466 q 207 -459 198 -466 q 215 -438 215 -452 l 215 -438 q 204 -384 215 -430 l 204 -384 q 188 -317 194 -347 l 188 -317 q 168 -177 168 -212 l 168 -177 q 173 -147 168 -156 q 189 -139 178 -139 l 189 -139 q 227 -169 204 -139 q 275 -260 249 -199 q 324 -410 300 -321 l 324 -410 q 349 -453 332 -440 q 398 -466 365 -466 l 398 -466 q 430 -460 421 -466 q 439 -440 439 -455 l 439 -440 q 414 -303 439 -415 l 414 -303 q 386 -145 386 -175 l 386 -145 q 394 -115 386 -126 q 415 -105 402 -105 l 415 -105 q 463 -129 435 -105 q 536 -209 490 -154 l 536 -209 q 563 -223 548 -223 l 563 -223 q 584 -211 576 -223 q 591 -178 591 -199 l 591 -178 q 572 -116 591 -138 l 572 -116 q 480 -29 529 -63 q 367 5 430 5 l 367 5 q 297 -32 319 5 q 274 -136 274 -69 l 274 -136 q 223 -31 257 -68 q 150 5 189 5 l 150 5 z"},"ú":{"ha":462,"x_min":48,"x_max":591,"o":"m 150 5 q 77 -36 105 5 q 48 -140 48 -78 l 48 -140 q 58 -277 48 -215 q 91 -410 68 -340 l 91 -410 q 119 -453 101 -440 q 176 -466 137 -466 l 176 -466 q 207 -459 198 -466 q 215 -438 215 -452 l 215 -438 q 204 -384 215 -430 l 204 -384 q 188 -317 194 -347 l 188 -317 q 168 -177 168 -212 l 168 -177 q 173 -147 168 -156 q 189 -139 178 -139 l 189 -139 q 227 -169 204 -139 q 275 -260 249 -199 q 324 -410 300 -321 l 324 -410 q 349 -453 332 -440 q 398 -466 365 -466 l 398 -466 q 430 -460 421 -466 q 439 -440 439 -455 l 439 -440 q 414 -303 439 -415 l 414 -303 q 386 -145 386 -175 l 386 -145 q 394 -115 386 -126 q 415 -105 402 -105 l 415 -105 q 463 -129 435 -105 q 536 -209 490 -154 l 536 -209 q 563 -223 548 -223 l 563 -223 q 584 -211 576 -223 q 591 -178 591 -199 l 591 -178 q 572 -116 591 -138 l 572 -116 q 480 -29 529 -63 q 367 5 430 5 l 367 5 q 297 -32 319 5 q 274 -136 274 -69 l 274 -136 q 223 -31 257 -68 q 150 5 189 5 l 150 5 z m 296 -532 q 272 -542 282 -532 q 261 -568 261 -553 l 261 -568 q 266 -587 261 -575 l 266 -587 l 359 -795 q 383 -824 368 -815 q 415 -834 397 -834 l 415 -834 q 460 -816 440 -834 q 479 -771 479 -798 l 479 -771 q 457 -715 479 -743 l 457 -715 l 328 -549 q 296 -532 315 -532 l 296 -532 z"},"û":{"ha":462,"x_min":48,"x_max":591,"o":"m 150 5 q 77 -36 105 5 q 48 -140 48 -78 l 48 -140 q 58 -277 48 -215 q 91 -410 68 -340 l 91 -410 q 119 -453 101 -440 q 176 -466 137 -466 l 176 -466 q 207 -459 198 -466 q 215 -438 215 -452 l 215 -438 q 204 -384 215 -430 l 204 -384 q 188 -317 194 -347 l 188 -317 q 168 -177 168 -212 l 168 -177 q 173 -147 168 -156 q 189 -139 178 -139 l 189 -139 q 227 -169 204 -139 q 275 -260 249 -199 q 324 -410 300 -321 l 324 -410 q 349 -453 332 -440 q 398 -466 365 -466 l 398 -466 q 430 -460 421 -466 q 439 -440 439 -455 l 439 -440 q 414 -303 439 -415 l 414 -303 q 386 -145 386 -175 l 386 -145 q 394 -115 386 -126 q 415 -105 402 -105 l 415 -105 q 463 -129 435 -105 q 536 -209 490 -154 l 536 -209 q 563 -223 548 -223 l 563 -223 q 584 -211 576 -223 q 591 -178 591 -199 l 591 -178 q 572 -116 591 -138 l 572 -116 q 480 -29 529 -63 q 367 5 430 5 l 367 5 q 297 -32 319 5 q 274 -136 274 -69 l 274 -136 q 223 -31 257 -68 q 150 5 189 5 l 150 5 z m 406 -531 q 369 -542 383 -531 q 351 -585 355 -554 l 351 -585 l 328 -762 l 241 -585 q 209 -543 226 -554 q 171 -532 192 -532 l 171 -532 q 138 -541 150 -532 q 125 -569 125 -551 l 125 -569 q 136 -605 125 -586 l 136 -605 l 248 -798 q 289 -844 266 -829 q 342 -860 311 -860 l 342 -860 q 389 -842 372 -860 q 415 -785 406 -824 l 415 -785 l 459 -605 q 462 -583 462 -593 l 462 -583 q 446 -544 462 -558 q 406 -531 429 -531 l 406 -531 z"},"ü":{"ha":462,"x_min":48,"x_max":591,"o":"m 150 5 q 77 -36 105 5 q 48 -140 48 -78 l 48 -140 q 58 -277 48 -215 q 91 -410 68 -340 l 91 -410 q 119 -453 101 -440 q 176 -466 137 -466 l 176 -466 q 207 -459 198 -466 q 215 -438 215 -452 l 215 -438 q 204 -384 215 -430 l 204 -384 q 188 -317 194 -347 l 188 -317 q 168 -177 168 -212 l 168 -177 q 173 -147 168 -156 q 189 -139 178 -139 l 189 -139 q 227 -169 204 -139 q 275 -260 249 -199 q 324 -410 300 -321 l 324 -410 q 349 -453 332 -440 q 398 -466 365 -466 l 398 -466 q 430 -460 421 -466 q 439 -440 439 -455 l 439 -440 q 414 -303 439 -415 l 414 -303 q 386 -145 386 -175 l 386 -145 q 394 -115 386 -126 q 415 -105 402 -105 l 415 -105 q 463 -129 435 -105 q 536 -209 490 -154 l 536 -209 q 563 -223 548 -223 l 563 -223 q 584 -211 576 -223 q 591 -178 591 -199 l 591 -178 q 572 -116 591 -138 l 572 -116 q 480 -29 529 -63 q 367 5 430 5 l 367 5 q 297 -32 319 5 q 274 -136 274 -69 l 274 -136 q 223 -31 257 -68 q 150 5 189 5 l 150 5 z m 196 -532 q 146 -549 164 -532 q 128 -604 128 -567 l 128 -604 q 150 -666 128 -644 q 207 -689 171 -689 l 207 -689 q 257 -671 239 -689 q 275 -617 275 -654 l 275 -617 q 254 -554 275 -577 q 196 -532 232 -532 l 196 -532 z m 404 -532 q 354 -549 372 -532 q 336 -604 336 -567 l 336 -604 q 358 -666 336 -644 q 415 -689 379 -689 l 415 -689 q 465 -671 447 -689 q 483 -617 483 -654 l 483 -617 q 462 -554 483 -577 q 404 -532 440 -532 l 404 -532 z"},"ù":{"ha":462,"x_min":48,"x_max":591,"o":"m 150 5 q 77 -36 105 5 q 48 -140 48 -78 l 48 -140 q 58 -277 48 -215 q 91 -410 68 -340 l 91 -410 q 119 -453 101 -440 q 176 -466 137 -466 l 176 -466 q 207 -459 198 -466 q 215 -438 215 -452 l 215 -438 q 204 -384 215 -430 l 204 -384 q 188 -317 194 -347 l 188 -317 q 168 -177 168 -212 l 168 -177 q 173 -147 168 -156 q 189 -139 178 -139 l 189 -139 q 227 -169 204 -139 q 275 -260 249 -199 q 324 -410 300 -321 l 324 -410 q 349 -453 332 -440 q 398 -466 365 -466 l 398 -466 q 430 -460 421 -466 q 439 -440 439 -455 l 439 -440 q 414 -303 439 -415 l 414 -303 q 386 -145 386 -175 l 386 -145 q 394 -115 386 -126 q 415 -105 402 -105 l 415 -105 q 463 -129 435 -105 q 536 -209 490 -154 l 536 -209 q 563 -223 548 -223 l 563 -223 q 584 -211 576 -223 q 591 -178 591 -199 l 591 -178 q 572 -116 591 -138 l 572 -116 q 480 -29 529 -63 q 367 5 430 5 l 367 5 q 297 -32 319 5 q 274 -136 274 -69 l 274 -136 q 223 -31 257 -68 q 150 5 189 5 l 150 5 z m 296 -532 q 265 -549 278 -532 l 265 -549 l 136 -715 q 114 -771 114 -743 l 114 -771 q 134 -817 114 -799 q 178 -835 153 -835 l 178 -835 q 210 -825 195 -835 q 234 -795 225 -815 l 234 -795 l 327 -587 q 331 -568 331 -578 l 331 -568 q 321 -542 331 -553 q 296 -532 310 -532 l 296 -532 z"},"v":{"ha":449,"x_min":50,"x_max":584,"o":"m 543 -304 q 553 -305 546 -305 l 553 -305 q 576 -295 568 -305 q 584 -268 584 -285 l 584 -268 q 572 -219 584 -237 q 536 -194 560 -202 l 536 -194 q 438 -179 490 -179 l 438 -179 q 355 -191 394 -179 l 355 -191 q 291 -94 326 -144 l 291 -94 q 222 -16 251 -37 q 156 5 193 5 l 156 5 q 92 -27 115 5 q 62 -128 68 -59 l 62 -128 q 50 -373 50 -268 l 50 -373 l 50 -408 q 68 -454 51 -441 q 119 -467 85 -467 l 119 -467 q 158 -455 145 -467 q 170 -417 170 -444 l 170 -417 q 184 -118 170 -302 l 184 -118 q 274 -260 244 -207 l 274 -260 q 259 -329 259 -289 l 259 -329 q 274 -395 259 -363 q 315 -447 289 -427 q 374 -467 341 -467 l 374 -467 q 421 -446 403 -467 q 439 -387 439 -426 l 439 -387 q 415 -284 439 -342 l 415 -284 q 516 -299 453 -286 l 516 -299 l 543 -304 z"},"w":{"ha":700,"x_min":50,"x_max":835,"o":"m 794 -304 q 804 -305 797 -305 l 804 -305 q 827 -295 819 -305 q 835 -268 835 -285 l 835 -268 q 823 -219 835 -237 q 787 -194 811 -202 l 787 -194 q 689 -179 741 -179 l 689 -179 q 606 -191 645 -179 l 606 -191 q 542 -94 577 -144 l 542 -94 q 474 -16 502 -37 q 409 5 445 5 l 409 5 q 349 -26 369 5 q 323 -128 328 -57 l 323 -128 l 318 -201 q 263 -73 287 -117 q 214 -12 238 -29 q 156 5 189 5 l 156 5 q 92 -27 115 5 q 62 -128 68 -59 l 62 -128 q 50 -373 50 -268 l 50 -373 l 50 -408 q 68 -454 51 -441 q 119 -467 85 -467 l 119 -467 q 158 -455 145 -467 q 170 -417 170 -444 l 170 -417 q 184 -118 170 -302 l 184 -118 q 309 -416 252 -261 l 309 -416 q 336 -456 320 -446 q 373 -467 351 -467 l 373 -467 q 411 -456 400 -467 q 421 -417 421 -445 l 421 -417 q 435 -118 421 -302 l 435 -118 q 525 -260 495 -207 l 525 -260 q 510 -329 510 -289 l 510 -329 q 525 -395 510 -363 q 566 -447 540 -427 q 625 -467 592 -467 l 625 -467 q 672 -446 654 -467 q 690 -387 690 -426 l 690 -387 q 666 -284 690 -342 l 666 -284 q 767 -299 704 -286 l 767 -299 l 794 -304 z"},"x":{"ha":529,"x_min":17,"x_max":658,"o":"m 630 -223 q 651 -211 643 -223 q 658 -178 658 -199 l 658 -178 q 639 -116 658 -138 l 639 -116 q 543 -29 595 -64 q 424 5 490 5 l 424 5 q 334 -14 373 5 q 271 -68 294 -33 l 271 -68 q 136 4 214 4 l 136 4 q 49 -28 81 4 q 17 -113 17 -60 l 17 -113 q 40 -194 17 -163 q 105 -225 63 -225 l 105 -225 q 141 -198 141 -225 l 141 -198 q 139 -173 141 -191 l 139 -173 q 136 -132 136 -137 l 136 -132 q 162 -102 136 -102 l 162 -102 q 199 -124 181 -102 q 228 -186 216 -147 q 239 -272 239 -225 l 239 -272 q 230 -332 239 -308 q 208 -357 221 -357 l 208 -357 q 192 -351 197 -357 q 182 -333 187 -346 l 182 -333 q 166 -307 176 -317 q 131 -298 156 -298 l 131 -298 q 96 -313 109 -298 q 83 -361 83 -329 l 83 -361 q 114 -441 83 -412 q 194 -470 145 -470 l 194 -470 q 270 -449 236 -470 q 322 -390 304 -429 l 322 -390 q 390 -450 352 -430 q 463 -470 427 -470 l 463 -470 q 523 -452 502 -470 q 543 -394 543 -434 l 543 -394 q 526 -323 543 -349 q 485 -298 509 -298 l 485 -298 q 455 -307 463 -298 q 443 -333 447 -316 l 443 -333 q 437 -351 441 -345 q 423 -357 433 -357 l 423 -357 q 398 -334 411 -357 q 375 -275 384 -312 q 365 -198 365 -238 l 365 -198 q 388 -125 365 -151 q 449 -100 410 -100 l 449 -100 q 523 -126 488 -100 q 603 -209 557 -153 l 603 -209 q 630 -223 615 -223 l 630 -223 z"},"y":{"ha":479,"x_min":-4,"x_max":588,"o":"m 560 -221 q 581 -208 573 -221 q 588 -177 588 -196 l 588 -177 q 581 -141 588 -154 q 559 -118 574 -128 l 559 -118 l 367 11 q 268 337 329 218 q 111 455 206 455 l 111 455 q 28 424 60 455 q -4 341 -4 392 l -4 341 q 18 245 -4 294 q 98 133 39 196 q 263 -13 156 69 l 263 -13 l 266 -36 q 282 -142 273 -73 l 282 -142 q 226 -32 262 -70 q 150 5 190 5 l 150 5 q 77 -36 105 5 q 48 -140 48 -78 l 48 -140 q 58 -277 48 -215 q 91 -410 68 -340 l 91 -410 q 119 -453 101 -440 q 176 -466 137 -466 l 176 -466 q 207 -459 198 -466 q 215 -438 215 -452 l 215 -438 q 204 -384 215 -430 l 204 -384 q 188 -317 194 -347 l 188 -317 q 174 -238 180 -276 q 168 -177 168 -201 l 168 -177 q 189 -139 168 -139 l 189 -139 q 227 -169 204 -139 q 275 -260 249 -199 q 324 -410 300 -321 l 324 -410 q 349 -453 332 -440 q 398 -466 365 -466 l 398 -466 q 430 -460 421 -466 q 439 -440 439 -454 l 439 -440 q 413 -268 439 -415 l 413 -268 l 387 -107 q 537 -213 464 -165 l 537 -213 q 560 -221 550 -221 l 560 -221 z m 122 358 q 178 300 147 358 q 240 107 209 242 l 240 107 q 129 226 163 172 q 94 319 94 279 l 94 319 q 101 347 94 336 q 122 358 107 358 l 122 358 z"},"ý":{"ha":479,"x_min":-4,"x_max":588,"o":"m 560 -221 q 581 -208 573 -221 q 588 -177 588 -196 l 588 -177 q 581 -141 588 -154 q 559 -118 574 -128 l 559 -118 l 367 11 q 268 337 329 218 q 111 455 206 455 l 111 455 q 28 424 60 455 q -4 341 -4 392 l -4 341 q 18 245 -4 294 q 98 133 39 196 q 263 -13 156 69 l 263 -13 l 266 -36 q 282 -142 273 -73 l 282 -142 q 226 -32 262 -70 q 150 5 190 5 l 150 5 q 77 -36 105 5 q 48 -140 48 -78 l 48 -140 q 58 -277 48 -215 q 91 -410 68 -340 l 91 -410 q 119 -453 101 -440 q 176 -466 137 -466 l 176 -466 q 207 -459 198 -466 q 215 -438 215 -452 l 215 -438 q 204 -384 215 -430 l 204 -384 q 188 -317 194 -347 l 188 -317 q 174 -238 180 -276 q 168 -177 168 -201 l 168 -177 q 189 -139 168 -139 l 189 -139 q 227 -169 204 -139 q 275 -260 249 -199 q 324 -410 300 -321 l 324 -410 q 349 -453 332 -440 q 398 -466 365 -466 l 398 -466 q 430 -460 421 -466 q 439 -440 439 -454 l 439 -440 q 413 -268 439 -415 l 413 -268 l 387 -107 q 537 -213 464 -165 l 537 -213 q 560 -221 550 -221 l 560 -221 z m 122 358 q 178 300 147 358 q 240 107 209 242 l 240 107 q 129 226 163 172 q 94 319 94 279 l 94 319 q 101 347 94 336 q 122 358 107 358 l 122 358 z m 296 -532 q 272 -542 282 -532 q 261 -568 261 -553 l 261 -568 q 266 -587 261 -575 l 266 -587 l 359 -795 q 383 -824 368 -815 q 415 -834 397 -834 l 415 -834 q 460 -816 440 -834 q 479 -771 479 -798 l 479 -771 q 457 -715 479 -743 l 457 -715 l 328 -549 q 296 -532 315 -532 l 296 -532 z"},"ÿ":{"ha":479,"x_min":-4,"x_max":588,"o":"m 560 -221 q 581 -208 573 -221 q 588 -177 588 -196 l 588 -177 q 581 -141 588 -154 q 559 -118 574 -128 l 559 -118 l 367 11 q 268 337 329 218 q 111 455 206 455 l 111 455 q 28 424 60 455 q -4 341 -4 392 l -4 341 q 18 245 -4 294 q 98 133 39 196 q 263 -13 156 69 l 263 -13 l 266 -36 q 282 -142 273 -73 l 282 -142 q 226 -32 262 -70 q 150 5 190 5 l 150 5 q 77 -36 105 5 q 48 -140 48 -78 l 48 -140 q 58 -277 48 -215 q 91 -410 68 -340 l 91 -410 q 119 -453 101 -440 q 176 -466 137 -466 l 176 -466 q 207 -459 198 -466 q 215 -438 215 -452 l 215 -438 q 204 -384 215 -430 l 204 -384 q 188 -317 194 -347 l 188 -317 q 174 -238 180 -276 q 168 -177 168 -201 l 168 -177 q 189 -139 168 -139 l 189 -139 q 227 -169 204 -139 q 275 -260 249 -199 q 324 -410 300 -321 l 324 -410 q 349 -453 332 -440 q 398 -466 365 -466 l 398 -466 q 430 -460 421 -466 q 439 -440 439 -454 l 439 -440 q 413 -268 439 -415 l 413 -268 l 387 -107 q 537 -213 464 -165 l 537 -213 q 560 -221 550 -221 l 560 -221 z m 122 358 q 178 300 147 358 q 240 107 209 242 l 240 107 q 129 226 163 172 q 94 319 94 279 l 94 319 q 101 347 94 336 q 122 358 107 358 l 122 358 z m 196 -532 q 146 -549 164 -532 q 128 -604 128 -567 l 128 -604 q 150 -666 128 -644 q 207 -689 171 -689 l 207 -689 q 257 -671 239 -689 q 275 -617 275 -654 l 275 -617 q 254 -554 275 -577 q 196 -532 232 -532 l 196 -532 z m 404 -532 q 354 -549 372 -532 q 336 -604 336 -567 l 336 -604 q 358 -666 336 -644 q 415 -689 379 -689 l 415 -689 q 465 -671 447 -689 q 483 -617 483 -654 l 483 -617 q 462 -554 483 -577 q 404 -532 440 -532 l 404 -532 z"},"z":{"ha":445,"x_min":58,"x_max":575,"o":"m 547 -223 q 568 -211 560 -223 q 575 -178 575 -199 l 575 -178 q 556 -116 575 -141 l 556 -116 q 440 -20 509 -55 q 283 15 370 15 l 283 15 q 165 -5 215 15 q 89 -61 115 -26 q 62 -141 62 -97 l 62 -141 q 115 -258 62 -207 q 267 -356 168 -309 l 267 -356 l 103 -352 q 70 -367 81 -351 q 58 -407 58 -384 l 58 -407 q 70 -449 58 -431 q 101 -468 81 -468 l 101 -468 q 224 -461 147 -468 l 224 -461 q 283 -457 240 -460 q 354 -454 325 -454 l 354 -454 q 392 -462 364 -454 l 392 -462 q 412 -467 397 -463 q 436 -471 426 -471 l 436 -471 q 463 -457 452 -471 q 473 -414 473 -443 l 473 -414 q 458 -364 473 -382 q 411 -332 443 -346 l 411 -332 q 260 -248 320 -293 q 200 -160 200 -204 l 200 -160 q 226 -114 200 -132 q 303 -96 252 -96 l 303 -96 q 417 -124 359 -96 q 520 -209 474 -152 l 520 -209 q 547 -223 532 -223 l 547 -223 z"},"ª":{"ha":393,"x_min":78,"x_max":426,"o":"m 192 -450 q 109 -487 140 -450 q 78 -586 78 -525 l 78 -586 q 110 -712 78 -653 q 194 -808 141 -772 q 307 -845 246 -845 l 307 -845 q 332 -838 326 -845 q 342 -812 338 -831 l 342 -812 q 377 -815 354 -815 l 377 -815 q 426 -777 426 -815 l 426 -777 q 417 -710 426 -760 l 417 -710 q 403 -612 408 -657 q 398 -510 398 -567 l 398 -510 q 384 -463 398 -477 q 336 -450 370 -450 l 336 -450 q 292 -467 305 -450 q 281 -522 278 -484 l 281 -522 q 192 -450 255 -450 l 192 -450 z m 225 -535 q 267 -567 248 -535 q 301 -683 285 -600 l 301 -683 l 317 -767 q 254 -740 283 -766 q 208 -673 225 -715 q 190 -585 190 -632 l 190 -585 q 200 -547 190 -560 q 225 -535 209 -535 l 225 -535 z"},"º":{"ha":408,"x_min":83,"x_max":428,"o":"m 242 -451 q 155 -475 190 -451 q 101 -540 119 -500 q 83 -626 83 -580 l 83 -626 q 107 -740 83 -690 q 173 -817 131 -790 q 268 -845 215 -845 l 268 -845 q 356 -820 320 -845 q 410 -756 392 -796 q 428 -670 428 -716 l 428 -670 q 404 -557 428 -607 q 337 -479 379 -507 q 242 -451 294 -451 l 242 -451 z m 251 -541 q 299 -572 279 -541 q 318 -662 318 -603 l 318 -662 q 302 -731 318 -708 q 262 -755 285 -755 l 262 -755 q 213 -724 232 -755 q 193 -634 193 -694 l 193 -634 q 210 -563 193 -586 q 251 -541 226 -541 l 251 -541 z"},"¹":{"ha":450,"x_min":103,"x_max":380,"o":"m 261 -353 q 222 -367 238 -353 q 209 -414 206 -382 l 209 -414 q 231 -593 218 -500 q 253 -736 244 -686 l 253 -736 l 148 -705 q 137 -703 140 -703 l 137 -703 q 112 -718 121 -703 q 105 -752 103 -734 l 105 -752 q 117 -777 107 -767 q 159 -800 127 -788 q 258 -831 191 -813 l 258 -831 l 293 -840 q 330 -845 310 -845 l 330 -845 q 380 -796 380 -845 l 380 -796 q 378 -775 380 -791 l 378 -775 q 327 -405 365 -711 l 327 -405 q 261 -353 321 -353 l 261 -353 z"},"²":{"ha":450,"x_min":58,"x_max":453,"o":"m 417 -457 q 444 -444 434 -457 q 453 -414 453 -432 l 453 -414 q 439 -373 453 -391 q 402 -355 425 -355 l 402 -355 q 343 -357 382 -355 q 283 -360 304 -359 l 283 -360 q 158 -366 189 -366 l 158 -366 q 140 -363 151 -366 q 125 -359 129 -360 l 125 -359 q 89 -351 101 -351 l 89 -351 q 67 -363 76 -351 q 58 -400 58 -376 l 58 -400 q 71 -440 58 -426 q 110 -467 84 -455 l 110 -467 q 215 -531 167 -492 q 292 -615 263 -570 q 321 -701 321 -660 l 321 -701 q 308 -744 321 -729 q 268 -759 294 -759 l 268 -759 q 209 -740 231 -759 q 187 -688 187 -721 l 187 -688 q 138 -639 187 -639 l 138 -639 q 101 -652 114 -639 q 88 -691 88 -665 l 88 -691 q 110 -767 88 -732 q 176 -824 132 -803 q 281 -845 219 -845 l 281 -845 q 399 -807 356 -845 q 441 -703 441 -769 l 441 -703 q 389 -573 441 -641 q 237 -454 336 -506 l 237 -454 l 417 -457 z"},"³":{"ha":450,"x_min":70,"x_max":452,"o":"m 342 -596 q 414 -561 384 -590 q 443 -487 443 -532 l 443 -487 q 388 -389 443 -424 q 252 -354 333 -354 l 252 -354 q 116 -385 161 -354 q 70 -465 70 -417 l 70 -465 q 83 -507 70 -492 q 119 -523 96 -523 l 119 -523 q 147 -514 138 -523 q 164 -481 155 -505 l 164 -481 q 189 -451 171 -462 q 245 -440 207 -440 l 245 -440 q 299 -453 276 -440 q 322 -491 322 -466 l 322 -491 q 301 -532 322 -519 q 237 -549 280 -545 l 237 -549 q 211 -561 220 -550 q 202 -588 202 -573 l 202 -588 q 209 -617 202 -608 q 234 -629 216 -626 l 234 -629 q 308 -661 285 -638 q 331 -718 331 -685 l 331 -718 q 317 -748 331 -737 q 274 -759 302 -759 l 274 -759 q 192 -709 206 -759 l 192 -709 q 174 -676 185 -686 q 144 -667 163 -667 l 144 -667 q 109 -680 121 -667 q 97 -715 97 -693 l 97 -715 q 120 -778 97 -748 q 187 -826 143 -808 q 287 -845 230 -845 l 287 -845 q 410 -814 367 -845 q 452 -722 452 -783 l 452 -722 q 422 -647 452 -682 q 342 -596 391 -613 l 342 -596 z"},"½":{"ha":1024,"x_min":103,"x_max":983,"o":"m 261 -353 q 222 -367 238 -353 q 209 -414 206 -382 l 209 -414 q 231 -593 218 -500 q 253 -736 244 -686 l 253 -736 l 148 -705 q 137 -703 140 -703 l 137 -703 q 112 -718 121 -703 q 105 -752 103 -734 l 105 -752 q 117 -777 107 -767 q 159 -800 127 -788 q 258 -831 191 -813 l 258 -831 l 293 -840 q 330 -845 310 -845 l 330 -845 q 380 -796 380 -845 l 380 -796 q 378 -775 380 -791 l 378 -775 q 327 -405 365 -711 l 327 -405 q 261 -353 321 -353 l 261 -353 z m 338 -100 q 299 -116 316 -100 q 282 -156 282 -132 l 282 -156 q 294 -194 282 -173 l 294 -194 l 595 -691 q 649 -728 617 -728 l 649 -728 q 686 -711 670 -728 q 702 -671 702 -694 l 702 -671 q 693 -640 702 -655 l 693 -640 l 381 -126 q 338 -100 365 -100 l 338 -100 z m 947 -92 q 974 -79 964 -92 q 983 -49 983 -67 l 983 -49 q 969 -8 983 -26 q 932 10 955 10 l 932 10 q 873 8 912 10 q 813 5 834 6 l 813 5 q 688 -1 719 -1 l 688 -1 q 670 2 681 -1 q 655 6 659 5 l 655 6 q 619 14 631 14 l 619 14 q 597 2 606 14 q 588 -35 588 -11 l 588 -35 q 601 -75 588 -61 q 640 -102 614 -90 l 640 -102 q 745 -166 697 -127 q 822 -250 793 -205 q 851 -336 851 -295 l 851 -336 q 838 -379 851 -364 q 798 -394 824 -394 l 798 -394 q 739 -375 761 -394 q 717 -323 717 -356 l 717 -323 q 668 -274 717 -274 l 668 -274 q 631 -287 644 -274 q 618 -326 618 -300 l 618 -326 q 640 -402 618 -367 q 706 -459 662 -438 q 811 -480 749 -480 l 811 -480 q 929 -442 886 -480 q 971 -338 971 -404 l 971 -338 q 919 -208 971 -276 q 767 -89 866 -141 l 767 -89 l 947 -92 z"},"¼":{"ha":955,"x_min":103,"x_max":929,"o":"m 261 -353 q 222 -367 238 -353 q 209 -414 206 -382 l 209 -414 q 231 -593 218 -500 q 253 -736 244 -686 l 253 -736 l 148 -705 q 137 -703 140 -703 l 137 -703 q 112 -718 121 -703 q 105 -752 103 -734 l 105 -752 q 117 -777 107 -767 q 159 -800 127 -788 q 258 -831 191 -813 l 258 -831 l 293 -840 q 330 -845 310 -845 l 330 -845 q 380 -796 380 -845 l 380 -796 q 378 -775 380 -791 l 378 -775 q 327 -405 365 -711 l 327 -405 q 261 -353 321 -353 l 261 -353 z m 338 -100 q 299 -116 316 -100 q 282 -156 282 -132 l 282 -156 q 294 -194 282 -173 l 294 -194 l 595 -691 q 649 -728 617 -728 l 649 -728 q 686 -711 670 -728 q 702 -671 702 -694 l 702 -671 q 693 -640 702 -655 l 693 -640 l 381 -126 q 338 -100 365 -100 l 338 -100 z m 886 -186 q 919 -176 909 -186 q 929 -146 929 -166 l 929 -146 q 913 -102 929 -115 q 860 -90 896 -90 l 860 -90 l 848 -90 q 844 -46 846 -76 l 844 -46 q 827 6 842 -8 q 778 19 812 19 l 778 19 q 734 -35 734 19 l 734 -35 l 735 -49 l 739 -90 q 596 -91 695 -91 l 596 -91 q 562 -108 577 -91 q 546 -153 546 -126 l 546 -153 q 551 -184 546 -170 l 551 -184 q 661 -427 585 -284 l 661 -427 q 693 -468 676 -456 q 747 -480 710 -480 l 747 -480 q 775 -472 765 -480 q 784 -450 784 -464 l 784 -450 q 776 -422 784 -438 l 776 -422 l 758 -389 q 701 -276 722 -320 q 662 -186 679 -232 l 662 -186 l 750 -186 q 777 -328 762 -272 l 777 -328 q 799 -368 784 -355 q 841 -382 814 -382 l 841 -382 q 888 -345 888 -382 l 888 -345 q 886 -328 888 -340 l 886 -328 q 860 -186 871 -259 l 860 -186 l 886 -186 z"},"¾":{"ha":1035,"x_min":70,"x_max":1009,"o":"m 342 -596 q 414 -561 384 -590 q 443 -487 443 -532 l 443 -487 q 388 -389 443 -424 q 252 -354 333 -354 l 252 -354 q 116 -385 161 -354 q 70 -465 70 -417 l 70 -465 q 83 -507 70 -492 q 119 -523 96 -523 l 119 -523 q 147 -514 138 -523 q 164 -481 155 -505 l 164 -481 q 189 -451 171 -462 q 245 -440 207 -440 l 245 -440 q 299 -453 276 -440 q 322 -491 322 -466 l 322 -491 q 301 -532 322 -519 q 237 -549 280 -545 l 237 -549 q 211 -561 220 -550 q 202 -588 202 -573 l 202 -588 q 209 -617 202 -608 q 234 -629 216 -626 l 234 -629 q 308 -661 285 -638 q 331 -718 331 -685 l 331 -718 q 317 -748 331 -737 q 274 -759 302 -759 l 274 -759 q 192 -709 206 -759 l 192 -709 q 174 -676 185 -686 q 144 -667 163 -667 l 144 -667 q 109 -680 121 -667 q 97 -715 97 -693 l 97 -715 q 120 -778 97 -748 q 187 -826 143 -808 q 287 -845 230 -845 l 287 -845 q 410 -814 367 -845 q 452 -722 452 -783 l 452 -722 q 422 -647 452 -682 q 342 -596 391 -613 l 342 -596 z m 418 -100 q 379 -116 396 -100 q 362 -156 362 -132 l 362 -156 q 374 -194 362 -173 l 374 -194 l 675 -691 q 729 -728 697 -728 l 729 -728 q 766 -711 750 -728 q 782 -671 782 -694 l 782 -671 q 773 -640 782 -655 l 773 -640 l 461 -126 q 418 -100 445 -100 l 418 -100 z m 966 -186 q 999 -176 989 -186 q 1009 -146 1009 -166 l 1009 -146 q 993 -102 1009 -115 q 940 -90 976 -90 l 940 -90 l 928 -90 q 924 -46 926 -76 l 924 -46 q 907 6 922 -8 q 858 19 892 19 l 858 19 q 814 -35 814 19 l 814 -35 l 815 -49 l 819 -90 q 676 -91 775 -91 l 676 -91 q 642 -108 657 -91 q 626 -153 626 -126 l 626 -153 q 631 -184 626 -170 l 631 -184 q 741 -427 665 -284 l 741 -427 q 773 -468 756 -456 q 827 -480 790 -480 l 827 -480 q 855 -472 845 -480 q 864 -450 864 -464 l 864 -450 q 856 -422 864 -438 l 856 -422 l 838 -389 q 781 -276 802 -320 q 742 -186 759 -232 l 742 -186 l 830 -186 q 857 -328 842 -272 l 857 -328 q 879 -368 864 -355 q 921 -382 894 -382 l 921 -382 q 968 -345 968 -382 l 968 -345 q 966 -328 968 -340 l 966 -328 q 940 -186 951 -259 l 940 -186 l 966 -186 z"},"*":{"ha":520,"x_min":114,"x_max":526,"o":"m 526 -773 q 512 -737 526 -752 q 473 -720 497 -723 l 473 -720 l 381 -707 l 463 -663 q 489 -641 480 -654 q 498 -613 498 -628 l 498 -613 q 485 -579 498 -594 l 485 -579 q 446 -560 469 -560 l 446 -560 q 399 -586 419 -560 l 399 -586 l 341 -659 l 344 -566 q 331 -520 345 -538 q 291 -503 316 -503 l 291 -503 q 255 -518 270 -503 q 240 -555 240 -533 l 240 -555 q 246 -584 240 -568 l 246 -584 l 280 -670 l 200 -621 q 164 -610 180 -610 l 164 -610 q 135 -619 147 -610 q 117 -644 122 -628 l 117 -644 q 114 -663 114 -653 l 114 -663 q 128 -699 114 -685 q 166 -716 141 -713 l 166 -716 l 261 -729 l 176 -773 q 151 -794 160 -781 q 142 -822 142 -807 l 142 -822 q 155 -857 142 -842 l 155 -857 q 194 -876 169 -876 l 194 -876 q 241 -849 220 -876 l 241 -849 l 299 -777 l 296 -868 q 310 -914 295 -897 q 349 -932 324 -932 l 349 -932 q 386 -917 371 -932 q 400 -880 400 -902 l 400 -880 q 394 -851 400 -868 l 394 -851 l 359 -765 l 440 -814 q 477 -826 461 -826 l 477 -826 q 506 -816 493 -826 q 523 -792 518 -807 l 523 -792 q 526 -773 526 -783 l 526 -773 z"},"\\":{"ha":509,"x_min":108,"x_max":459,"o":"m 392 5 q 358 -8 373 5 q 334 -49 342 -22 l 334 -49 l 112 -827 q 108 -857 108 -842 l 108 -857 q 129 -912 108 -891 q 175 -934 149 -934 l 175 -934 q 208 -922 193 -934 q 229 -885 222 -910 l 229 -885 l 456 -91 q 459 -68 459 -79 l 459 -68 q 439 -16 459 -38 q 392 5 418 5 l 392 5 z"},"·":{"ha":257,"x_min":47,"x_max":233,"o":"m 136 -147 q 70 -171 92 -147 q 47 -234 47 -195 l 47 -234 q 73 -306 47 -279 q 144 -333 98 -333 l 144 -333 q 211 -311 188 -333 q 233 -248 233 -290 l 233 -248 q 207 -174 233 -202 q 136 -147 181 -147 l 136 -147 z"},":":{"ha":257,"x_min":28,"x_max":249,"o":"m 117 5 q 51 -19 73 5 q 28 -82 28 -43 l 28 -82 q 54 -154 28 -127 q 125 -181 79 -181 l 125 -181 q 192 -159 169 -181 q 214 -96 214 -138 l 214 -96 q 188 -22 214 -50 q 117 5 162 5 l 117 5 z m 152 -280 q 86 -304 108 -280 q 63 -367 63 -328 l 63 -367 q 89 -439 63 -412 q 160 -466 114 -466 l 160 -466 q 227 -444 204 -466 q 249 -381 249 -423 l 249 -381 q 223 -307 249 -335 q 152 -280 197 -280 l 152 -280 z"},",":{"ha":257,"x_min":16,"x_max":198,"o":"m 64 158 q 29 148 42 158 q 16 116 16 138 l 16 116 q 19 95 16 107 l 19 95 q 36 10 30 49 q 41 -77 41 -29 l 41 -77 q 65 -154 41 -127 q 125 -181 88 -181 l 125 -181 q 180 -161 161 -181 q 198 -109 198 -142 l 198 -109 q 177 -16 198 -74 q 126 97 156 42 l 126 97 q 95 146 106 134 q 64 158 83 158 l 64 158 z"},"!":{"ha":340,"x_min":33,"x_max":366,"o":"m 160 -234 q 127 -243 140 -234 q 114 -271 114 -252 l 114 -271 l 115 -279 q 161 -534 132 -391 q 215 -781 190 -677 l 215 -781 q 302 -845 231 -845 l 302 -845 q 366 -804 366 -845 l 366 -804 q 363 -784 366 -795 l 363 -784 q 294 -527 337 -678 q 212 -266 251 -377 l 212 -266 q 160 -234 201 -234 l 160 -234 z m 122 5 q 56 -19 78 5 q 33 -82 33 -43 l 33 -82 q 59 -154 33 -127 q 130 -181 84 -181 l 130 -181 q 197 -159 174 -181 q 219 -96 219 -138 l 219 -96 q 193 -22 219 -50 q 122 5 167 5 l 122 5 z"},"¡":{"ha":340,"x_min":-26,"x_max":307,"o":"m 210 -278 q 144 -299 166 -278 q 121 -363 121 -321 l 121 -363 q 147 -436 121 -409 q 218 -464 173 -464 l 218 -464 q 285 -440 262 -464 q 307 -377 307 -416 l 307 -377 q 282 -305 307 -332 q 210 -278 256 -278 l 210 -278 z m 38 386 q -11 376 3 386 q -26 346 -26 366 l -26 346 q -23 325 -26 337 l -23 325 q 46 69 3 219 q 128 -193 89 -82 l 128 -193 q 180 -225 139 -225 l 180 -225 q 213 -216 200 -225 q 226 -188 226 -207 l 226 -188 l 225 -180 q 179 75 208 -69 q 125 322 150 218 l 125 322 q 96 371 117 355 q 38 386 74 386 l 38 386 z"},"#":{"ha":700,"x_min":34,"x_max":681,"o":"m 629 -346 l 549 -346 l 516 -230 l 589 -230 q 641 -175 641 -230 l 641 -175 q 628 -131 641 -147 q 589 -116 614 -116 l 589 -116 l 483 -116 l 464 -52 q 435 -7 455 -23 q 391 8 414 8 l 391 8 q 355 -5 370 8 q 340 -43 340 -19 l 340 -43 q 343 -65 340 -53 l 343 -65 l 358 -116 l 241 -116 l 222 -52 q 193 -7 213 -23 q 149 8 172 8 l 149 8 q 113 -5 128 8 q 98 -43 98 -19 l 98 -43 q 101 -65 98 -53 l 101 -65 l 116 -116 l 87 -116 q 48 -131 62 -116 q 34 -175 34 -147 l 34 -175 q 48 -216 34 -202 q 87 -230 62 -230 l 87 -230 l 149 -230 l 183 -346 l 127 -346 q 88 -361 102 -346 q 74 -405 74 -377 l 74 -405 q 88 -446 74 -432 q 127 -460 102 -460 l 127 -460 l 216 -460 l 235 -526 q 264 -569 243 -555 q 307 -584 284 -584 l 307 -584 q 346 -571 330 -584 q 361 -538 361 -559 l 361 -538 q 358 -520 361 -529 l 358 -520 l 341 -460 l 458 -460 l 477 -526 q 506 -569 485 -555 q 549 -584 526 -584 l 549 -584 q 588 -571 572 -584 q 603 -538 603 -559 l 603 -538 q 600 -520 603 -529 l 600 -520 l 583 -460 l 629 -460 q 681 -405 681 -460 l 681 -405 q 668 -361 681 -377 q 629 -346 654 -346 l 629 -346 z m 391 -230 l 425 -346 l 307 -346 l 274 -230 l 391 -230 z"},".":{"ha":257,"x_min":28,"x_max":214,"o":"m 117 5 q 51 -19 73 5 q 28 -82 28 -43 l 28 -82 q 54 -154 28 -127 q 125 -181 79 -181 l 125 -181 q 192 -159 169 -181 q 214 -96 214 -138 l 214 -96 q 188 -22 214 -50 q 117 5 162 5 l 117 5 z"},"?":{"ha":476,"x_min":64,"x_max":520,"o":"m 191 -234 q 162 -244 173 -234 q 152 -279 151 -255 l 152 -279 q 182 -391 156 -342 q 269 -501 208 -440 l 269 -501 q 351 -596 326 -557 q 376 -677 376 -635 l 376 -677 q 299 -746 376 -746 l 299 -746 q 229 -725 253 -746 q 205 -674 205 -705 l 205 -674 l 206 -633 q 194 -603 206 -616 q 154 -591 181 -591 l 154 -591 q 107 -609 123 -591 q 90 -662 90 -628 l 90 -662 q 115 -753 90 -712 q 189 -820 139 -795 q 312 -845 239 -845 l 312 -845 q 466 -802 411 -845 q 520 -680 520 -760 l 520 -680 q 488 -566 520 -617 q 392 -460 456 -515 l 392 -460 q 310 -385 338 -414 q 270 -334 282 -356 q 249 -285 257 -313 l 249 -285 q 227 -246 242 -259 q 191 -234 211 -234 l 191 -234 z m 153 5 q 87 -19 109 5 q 64 -82 64 -43 l 64 -82 q 90 -154 64 -127 q 161 -181 115 -181 l 161 -181 q 228 -159 205 -181 q 250 -96 250 -138 l 250 -96 q 224 -22 250 -50 q 153 5 198 5 l 153 5 z"},"¿":{"ha":476,"x_min":-44,"x_max":412,"o":"m 315 -279 q 249 -300 271 -279 q 226 -364 226 -322 l 226 -364 q 252 -437 226 -410 q 323 -465 278 -465 l 323 -465 q 390 -441 367 -465 q 412 -378 412 -417 l 412 -378 q 387 -306 412 -333 q 315 -279 361 -279 l 315 -279 z m 164 385 q 11 343 65 385 q -44 220 -44 300 l -44 220 q -12 106 -44 157 q 84 0 20 55 l 84 0 q 166 -75 138 -46 q 207 -125 194 -104 q 227 -175 219 -147 l 227 -175 q 250 -213 234 -201 q 285 -226 265 -226 l 285 -226 q 314 -215 303 -226 q 324 -181 325 -205 l 324 -181 q 294 -69 320 -118 q 207 41 268 -20 l 207 41 q 125 136 150 97 q 100 217 100 175 l 100 217 q 177 286 100 286 l 177 286 q 247 266 223 286 q 271 214 271 245 l 271 214 l 270 173 q 283 144 270 156 q 322 131 295 131 l 322 131 q 370 150 353 131 q 386 202 386 168 l 386 202 q 362 294 386 252 q 287 360 337 335 q 164 385 237 385 l 164 385 z"},"\"":{"ha":510,"x_min":111,"x_max":507,"o":"m 169 -502 q 128 -515 144 -502 q 114 -561 111 -529 l 114 -561 l 134 -752 q 221 -844 144 -844 l 221 -844 q 287 -782 287 -844 l 287 -782 q 282 -745 287 -768 l 282 -745 l 242 -561 q 215 -515 235 -529 q 169 -502 195 -502 l 169 -502 z m 389 -502 q 348 -515 364 -502 q 334 -561 331 -529 l 334 -561 l 354 -752 q 441 -844 364 -844 l 441 -844 q 507 -782 507 -844 l 507 -782 q 502 -745 507 -768 l 502 -745 l 462 -561 q 435 -515 455 -529 q 389 -502 415 -502 l 389 -502 z"},"'":{"ha":290,"x_min":111,"x_max":287,"o":"m 169 -502 q 128 -515 144 -502 q 114 -561 111 -529 l 114 -561 l 134 -752 q 221 -844 144 -844 l 221 -844 q 287 -782 287 -844 l 287 -782 q 282 -745 287 -768 l 282 -745 l 242 -561 q 215 -515 235 -529 q 169 -502 195 -502 l 169 -502 z"},";":{"ha":257,"x_min":16,"x_max":249,"o":"m 64 158 q 29 148 42 158 q 16 116 16 138 l 16 116 q 19 95 16 107 l 19 95 q 36 10 30 49 q 41 -77 41 -29 l 41 -77 q 65 -154 41 -127 q 125 -181 88 -181 l 125 -181 q 180 -161 161 -181 q 198 -109 198 -142 l 198 -109 q 177 -16 198 -74 q 126 97 156 42 l 126 97 q 95 146 106 134 q 64 158 83 158 l 64 158 z m 152 -280 q 86 -304 108 -280 q 63 -367 63 -328 l 63 -367 q 89 -439 63 -412 q 160 -466 114 -466 l 160 -466 q 227 -444 204 -466 q 249 -381 249 -423 l 249 -381 q 223 -307 249 -335 q 152 -280 197 -280 l 152 -280 z"},"/":{"ha":509,"x_min":9,"x_max":557,"o":"m 67 5 q 27 -11 44 5 q 9 -55 9 -28 l 9 -55 q 23 -103 9 -77 l 23 -103 l 442 -890 q 470 -924 454 -913 q 501 -935 485 -935 l 501 -935 q 541 -916 524 -935 q 557 -871 557 -898 l 557 -871 q 546 -830 557 -849 l 546 -830 l 118 -27 q 96 -3 109 -11 q 67 5 82 5 l 67 5 z"},"_":{"ha":354,"x_min":-24,"x_max":328,"o":"m 29 114 q -10 99 4 114 q -24 55 -24 83 l -24 55 q -10 14 -24 28 q 29 0 4 0 l 29 0 l 276 0 q 328 55 328 0 l 328 55 q 315 99 328 83 q 276 114 301 114 l 276 114 l 29 114 z"},"{":{"ha":490,"x_min":50,"x_max":579,"o":"m 478 -930 q 556 -917 533 -930 q 579 -867 579 -904 l 579 -867 q 563 -833 579 -847 q 517 -819 546 -819 l 517 -819 q 440 -809 468 -819 q 400 -780 412 -800 q 384 -726 387 -760 l 384 -726 q 368 -589 381 -685 l 368 -589 l 365 -562 q 265 -432 353 -469 l 265 -432 q 329 -317 329 -402 l 329 -317 q 327 -283 329 -307 l 327 -283 l 318 -221 q 304 -111 306 -133 l 304 -111 q 303 -92 303 -104 l 303 -92 q 327 -35 303 -51 q 413 -19 351 -19 l 413 -19 q 458 -4 441 -19 q 475 33 475 11 l 475 33 q 450 80 475 64 q 365 95 425 95 l 365 95 q 218 48 265 95 q 170 -85 170 1 l 170 -85 q 172 -126 170 -112 l 172 -126 q 179 -176 175 -153 q 184 -220 182 -200 l 184 -220 l 193 -292 q 194 -309 194 -298 l 194 -309 q 173 -358 194 -343 q 105 -374 151 -374 l 105 -374 q 64 -393 78 -374 q 53 -440 50 -413 l 53 -440 q 114 -493 60 -493 l 114 -493 q 197 -512 169 -493 q 232 -581 225 -532 l 232 -581 q 247 -700 233 -586 l 247 -700 l 253 -753 q 324 -886 265 -842 q 478 -930 382 -930 l 478 -930 z"},"}":{"ha":490,"x_min":-43,"x_max":490,"o":"m 435 -492 q 476 -472 462 -492 q 487 -426 490 -453 l 487 -426 q 426 -373 480 -373 l 426 -373 q 343 -353 371 -373 q 308 -285 315 -334 l 308 -285 q 289 -130 302 -239 l 289 -130 l 283 -82 q 213 51 271 7 q 58 95 154 95 l 58 95 q -20 82 3 95 q -43 32 -43 69 l -43 32 q -26 -2 -43 12 q 19 -16 -10 -16 l 19 -16 q 96 -25 68 -16 q 137 -55 124 -35 q 152 -109 149 -75 l 152 -109 q 171 -270 156 -166 l 171 -270 l 175 -304 q 275 -434 187 -397 l 275 -434 q 211 -549 211 -464 l 211 -549 q 213 -583 211 -559 l 213 -583 q 221 -638 220 -635 l 221 -638 q 232 -724 229 -692 l 232 -724 q 233 -743 233 -731 l 233 -743 q 209 -800 233 -784 q 123 -816 185 -816 l 123 -816 q 78 -831 95 -816 q 61 -868 61 -846 l 61 -868 q 86 -914 61 -899 q 171 -930 111 -930 l 171 -930 q 319 -883 271 -930 q 366 -750 366 -836 l 366 -750 q 364 -709 366 -723 l 364 -709 q 355 -635 362 -688 l 355 -635 q 347 -574 354 -626 l 347 -574 q 346 -557 346 -568 l 346 -557 q 368 -507 346 -523 q 435 -492 389 -492 l 435 -492 z"},"[":{"ha":405,"x_min":67,"x_max":498,"o":"m 309 94 l 155 93 q 67 18 67 93 l 67 18 q 69 -4 67 12 l 69 -4 q 182 -841 112 -355 l 182 -841 q 213 -911 190 -892 q 294 -930 236 -930 l 294 -930 l 434 -930 q 483 -915 468 -930 q 498 -877 498 -901 l 498 -877 q 483 -828 498 -843 q 432 -813 467 -813 l 432 -813 l 312 -813 q 286 -608 302 -728 q 262 -432 269 -488 l 262 -432 q 209 -24 222 -153 l 209 -24 l 314 -24 q 370 -11 353 -24 q 387 29 387 1 l 387 29 q 369 77 387 60 q 309 94 351 94 l 309 94 z"},"]":{"ha":405,"x_min":-48,"x_max":383,"o":"m 16 94 q -33 80 -18 94 q -48 41 -48 65 l -48 41 q -32 -8 -48 7 q 18 -23 -17 -23 l 18 -23 l 138 -23 q 165 -228 148 -108 q 188 -404 181 -348 l 188 -404 q 241 -812 228 -683 l 241 -812 l 136 -812 q 80 -824 97 -812 q 63 -865 63 -837 l 63 -865 q 81 -913 63 -896 q 141 -930 99 -930 l 141 -930 l 295 -929 q 383 -854 383 -929 l 383 -854 q 381 -832 383 -848 l 381 -832 q 268 5 338 -481 l 268 5 q 237 75 260 56 q 156 94 214 94 l 156 94 l 16 94 z"},"(":{"ha":613,"x_min":91,"x_max":739,"o":"m 328 133 q 152 56 213 133 q 91 -168 91 -21 l 91 -168 q 113 -398 91 -278 q 178 -626 135 -518 q 278 -809 220 -735 l 278 -809 q 555 -954 392 -954 l 555 -954 q 647 -938 602 -954 q 722 -895 692 -923 l 722 -895 q 739 -854 739 -879 l 739 -854 q 722 -807 739 -829 q 683 -785 704 -785 l 683 -785 q 660 -793 673 -785 l 660 -793 q 541 -838 595 -838 l 541 -838 q 463 -816 500 -838 q 395 -755 426 -794 l 395 -755 q 304 -588 342 -688 q 246 -380 266 -489 q 226 -178 226 -272 l 226 -178 q 237 -61 226 -104 q 270 -1 247 -19 q 331 17 293 17 l 331 17 q 486 -66 403 17 l 486 -66 q 519 -82 502 -82 l 519 -82 q 552 -65 538 -82 q 565 -25 565 -48 l 565 -25 q 545 26 565 3 l 545 26 q 443 104 502 74 q 328 133 384 133 l 328 133 z"},")":{"ha":613,"x_min":-82,"x_max":566,"o":"m 102 133 q 10 118 55 133 q -65 74 -35 102 l -65 74 q -82 33 -82 58 l -82 33 q -64 -14 -82 8 q -26 -36 -47 -36 l -26 -36 q -3 -28 -16 -36 l -3 -28 q 116 17 62 17 l 116 17 q 194 -5 157 17 q 262 -66 231 -27 l 262 -66 q 353 -232 315 -133 q 411 -440 391 -332 q 431 -643 431 -549 l 431 -643 q 421 -759 431 -717 q 387 -820 410 -802 q 326 -838 364 -838 l 326 -838 q 171 -755 254 -838 l 171 -755 q 138 -739 155 -739 l 138 -739 q 106 -756 119 -739 q 92 -796 92 -773 l 92 -796 q 112 -847 92 -824 l 112 -847 q 214 -924 155 -895 q 329 -954 273 -954 l 329 -954 q 505 -877 444 -954 q 566 -653 566 -800 l 566 -653 q 544 -423 566 -543 q 480 -194 522 -303 q 379 -12 437 -86 l 379 -12 q 102 133 265 133 l 102 133 z"},"-":{"ha":403,"x_min":57,"x_max":367,"o":"m 110 -246 q 72 -260 86 -244 q 57 -305 57 -276 l 57 -305 q 71 -345 57 -332 q 110 -360 84 -358 l 110 -360 l 315 -380 q 354 -367 340 -382 q 367 -325 367 -353 l 367 -325 q 315 -266 367 -271 l 315 -266 l 110 -246 z"},"­":{"ha":403,"x_min":57,"x_max":367,"o":"m 110 -246 q 72 -260 86 -244 q 57 -305 57 -276 l 57 -305 q 71 -345 57 -332 q 110 -360 84 -358 l 110 -360 l 315 -380 q 354 -367 340 -382 q 367 -325 367 -353 l 367 -325 q 315 -266 367 -271 l 315 -266 l 110 -246 z"},"«":{"ha":615,"x_min":27,"x_max":572,"o":"m 205 -52 l 64 -171 q 27 -237 27 -202 l 27 -237 q 34 -276 27 -258 q 55 -303 41 -294 l 55 -303 l 214 -411 q 250 -423 232 -423 l 250 -423 q 290 -406 273 -423 q 306 -369 306 -390 l 306 -369 q 283 -329 306 -345 l 283 -329 l 154 -240 l 284 -129 q 299 -99 299 -117 l 299 -99 q 279 -60 299 -78 q 234 -42 258 -42 l 234 -42 q 205 -52 216 -42 l 205 -52 z m 470 -52 l 330 -171 q 292 -237 292 -203 l 292 -237 q 299 -276 292 -258 q 320 -303 306 -294 l 320 -303 l 480 -411 q 516 -423 498 -423 l 516 -423 q 556 -407 539 -423 q 572 -370 572 -391 l 572 -370 q 548 -329 572 -345 l 548 -329 l 419 -240 l 549 -129 q 564 -99 564 -117 l 564 -99 q 544 -60 564 -78 q 499 -42 523 -42 l 499 -42 q 470 -52 481 -42 l 470 -52 z"},"»":{"ha":615,"x_min":44,"x_max":589,"o":"m 136 -54 q 100 -42 118 -42 l 100 -42 q 61 -58 77 -42 q 44 -95 44 -74 l 44 -95 q 68 -136 44 -120 l 68 -136 l 197 -225 l 67 -336 q 52 -366 52 -348 l 52 -366 q 73 -405 52 -387 q 117 -423 93 -423 l 117 -423 q 146 -413 135 -423 l 146 -413 l 286 -294 q 324 -228 324 -262 l 324 -228 q 317 -189 324 -207 q 296 -162 310 -171 l 296 -162 l 136 -54 z m 402 -54 q 366 -42 384 -42 l 366 -42 q 327 -58 343 -42 q 310 -96 310 -75 l 310 -96 q 333 -136 310 -120 l 333 -136 l 462 -225 l 332 -336 q 317 -366 317 -348 l 317 -366 q 338 -405 317 -387 q 382 -423 358 -423 l 382 -423 q 411 -413 400 -423 l 411 -413 l 552 -294 q 589 -228 589 -263 l 589 -228 q 582 -189 589 -207 q 561 -162 575 -171 l 561 -162 l 402 -54 z"}," ":{"ha":265,"x_min":0,"x_max":0,"o":""},"¢":{"ha":466,"x_min":44,"x_max":435,"o":"m 407 -189 q 428 -177 420 -189 q 435 -148 435 -166 l 435 -148 q 418 -86 435 -112 l 418 -86 q 254 4 365 -4 l 254 4 l 243 102 q 229 126 241 117 q 203 134 217 134 l 203 134 q 180 126 189 134 q 173 102 171 117 l 173 102 l 187 0 q 84 -70 123 -16 q 44 -197 44 -125 l 44 -197 q 70 -316 44 -263 q 140 -403 95 -370 q 242 -444 185 -436 l 242 -444 l 254 -545 q 267 -568 255 -560 q 292 -576 278 -576 l 292 -576 q 317 -567 307 -576 q 324 -545 326 -559 l 324 -545 l 310 -444 q 399 -406 370 -437 q 428 -330 428 -376 l 428 -330 q 410 -259 428 -288 q 361 -230 391 -230 l 361 -230 q 331 -239 342 -230 q 319 -264 319 -248 l 319 -264 q 321 -280 319 -271 q 324 -293 323 -289 l 324 -293 q 329 -321 329 -308 l 329 -321 q 323 -341 329 -334 q 298 -351 316 -348 l 298 -351 l 280 -222 l 265 -93 q 325 -115 299 -96 q 380 -174 350 -134 l 380 -174 q 407 -189 392 -189 l 407 -189 z m 160 -202 q 201 -106 160 -133 l 201 -106 l 216 -222 l 231 -346 q 178 -295 195 -333 q 160 -202 160 -258 l 160 -202 z"},"¤":{"ha":700,"x_min":122,"x_max":592,"o":"m 193 -64 q 167 -53 182 -53 l 167 -53 q 136 -66 150 -53 q 122 -97 122 -80 l 122 -97 q 134 -124 122 -112 l 134 -124 l 185 -175 q 151 -289 151 -228 l 151 -289 q 184 -401 151 -351 l 184 -401 l 133 -452 q 122 -478 122 -463 l 122 -478 q 136 -509 122 -495 q 166 -523 149 -523 l 166 -523 q 192 -511 180 -523 l 192 -511 l 243 -460 q 357 -495 294 -495 l 357 -495 q 471 -461 418 -495 l 471 -461 l 522 -511 q 548 -522 533 -522 l 548 -522 q 579 -508 565 -522 q 592 -477 592 -494 l 592 -477 q 581 -452 592 -463 l 581 -452 l 530 -401 q 563 -289 563 -351 l 563 -289 q 529 -175 563 -228 l 529 -175 l 580 -124 q 592 -97 592 -112 l 592 -97 q 578 -66 592 -80 q 547 -53 564 -53 l 547 -53 q 521 -64 532 -53 l 521 -64 l 469 -116 q 357 -83 419 -83 l 357 -83 q 245 -116 295 -83 l 245 -116 l 193 -64 z m 357 -171 q 441 -205 410 -171 q 472 -289 472 -240 l 472 -289 q 441 -372 472 -338 q 357 -407 410 -407 l 357 -407 q 273 -372 304 -407 q 242 -289 242 -338 l 242 -289 q 273 -205 242 -240 q 357 -171 304 -171 l 357 -171 z"},"$":{"ha":524,"x_min":39,"x_max":484,"o":"m 312 -325 q 394 -288 361 -306 q 449 -239 426 -270 q 471 -163 471 -208 l 471 -163 q 417 -48 471 -93 q 271 4 362 -3 l 271 4 l 259 102 q 245 126 257 117 q 216 134 232 134 l 216 134 q 192 126 201 134 q 184 102 182 117 l 184 102 l 197 2 q 82 -46 124 -8 q 39 -136 39 -84 l 39 -136 q 57 -190 39 -171 q 100 -209 75 -209 l 100 -209 q 137 -195 125 -209 q 154 -151 149 -181 l 154 -151 q 172 -112 157 -128 q 210 -91 186 -97 l 210 -91 l 230 -241 q 152 -278 184 -259 q 98 -330 119 -298 q 76 -411 76 -363 l 76 -411 q 132 -531 76 -485 q 274 -583 188 -577 l 274 -583 l 286 -683 q 299 -706 287 -698 q 326 -714 311 -714 l 326 -714 q 352 -705 341 -714 q 360 -683 362 -697 l 360 -683 l 346 -580 q 447 -536 410 -570 q 484 -451 484 -502 l 484 -451 q 467 -400 484 -417 q 423 -384 449 -384 l 423 -384 q 389 -397 402 -384 q 374 -432 375 -410 l 374 -432 q 334 -487 371 -474 l 334 -487 l 312 -325 z m 191 -419 q 205 -382 191 -398 q 245 -353 219 -367 l 245 -353 l 262 -491 q 210 -467 228 -486 q 191 -419 191 -448 l 191 -419 z m 282 -88 q 336 -109 317 -93 q 355 -152 355 -126 l 355 -152 q 341 -187 355 -172 q 298 -215 326 -202 l 298 -215 l 282 -88 z"},"£":{"ha":525,"x_min":21,"x_max":524,"o":"m 339 -488 q 262 -447 295 -488 q 222 -324 228 -406 l 222 -324 l 221 -308 l 372 -312 q 392 -302 385 -312 q 399 -278 399 -292 l 399 -278 q 389 -245 399 -260 q 362 -231 379 -231 l 362 -231 l 215 -232 l 205 -115 l 464 -122 q 496 -108 485 -123 q 507 -71 507 -93 l 507 -71 q 491 -22 507 -44 q 446 -1 474 -1 l 446 -1 q 367 -4 419 -1 q 292 -8 314 -7 l 292 -8 q 150 -15 194 -15 l 150 -15 q 118 -10 135 -15 q 98 -4 101 -5 l 98 -4 q 58 5 73 5 l 58 5 q 32 -10 42 5 q 21 -55 21 -26 l 21 -55 q 37 -103 21 -87 q 83 -126 52 -120 l 83 -126 l 92 -232 l 57 -231 q 36 -241 43 -231 q 28 -267 28 -252 l 28 -267 q 38 -297 28 -284 q 64 -310 47 -311 l 64 -310 l 98 -309 l 101 -340 q 177 -519 111 -454 q 346 -584 242 -584 l 346 -584 q 440 -565 399 -584 q 502 -515 480 -547 q 524 -444 524 -483 l 524 -444 q 509 -399 524 -415 q 466 -383 494 -383 l 466 -383 q 403 -440 420 -383 l 403 -440 q 339 -488 389 -488 l 339 -488 z"},"¥":{"ha":497,"x_min":35,"x_max":537,"o":"m 484 -581 q 522 -573 506 -581 q 537 -548 537 -565 l 537 -548 q 517 -502 537 -529 l 517 -502 l 344 -270 l 430 -271 q 451 -262 443 -271 q 458 -242 458 -254 l 458 -242 q 449 -216 458 -227 q 422 -205 439 -205 l 422 -205 l 313 -206 l 309 -165 l 421 -166 q 442 -157 434 -166 q 449 -137 449 -149 l 449 -137 q 439 -110 449 -122 q 412 -99 429 -98 l 412 -99 l 302 -101 l 296 -46 q 226 5 290 5 l 226 5 q 180 -7 196 5 q 163 -43 163 -19 l 163 -43 l 164 -53 l 170 -100 l 66 -98 q 46 -105 53 -98 q 39 -125 39 -113 l 39 -125 q 49 -152 39 -140 q 75 -165 59 -165 l 75 -165 l 178 -164 l 183 -207 l 76 -206 q 56 -214 63 -206 q 49 -234 49 -222 l 49 -234 q 59 -261 49 -249 q 84 -272 68 -273 l 84 -272 l 171 -270 l 51 -484 q 35 -535 35 -511 l 35 -535 q 53 -571 35 -559 q 97 -583 70 -583 l 97 -583 q 160 -545 140 -583 l 160 -545 l 266 -337 l 411 -546 q 442 -573 425 -566 q 484 -581 458 -581 l 484 -581 z"},"+":{"ha":700,"x_min":83,"x_max":631,"o":"m 584 -345 q 619 -331 607 -345 q 631 -297 631 -317 l 631 -297 q 615 -251 631 -272 q 570 -231 598 -231 l 570 -231 l 406 -231 l 384 -48 q 362 -8 380 -22 q 319 6 343 6 l 319 6 q 282 -8 296 6 q 270 -48 267 -22 l 270 -48 l 292 -231 l 130 -231 q 95 -245 107 -231 q 83 -280 83 -260 l 83 -280 q 100 -325 83 -305 q 144 -345 116 -345 l 144 -345 l 307 -345 l 329 -528 q 350 -567 332 -553 q 391 -581 368 -581 l 391 -581 q 430 -567 414 -581 q 443 -528 446 -553 l 443 -528 l 421 -345 l 584 -345 z"},"×":{"ha":700,"x_min":110,"x_max":604,"o":"m 513 -498 q 551 -514 532 -514 l 551 -514 q 589 -498 573 -514 q 604 -460 604 -482 l 604 -460 q 583 -417 604 -435 l 583 -417 l 437 -287 l 551 -157 q 563 -126 563 -142 l 563 -126 q 542 -81 563 -101 q 495 -61 520 -61 l 495 -61 q 460 -77 475 -61 l 460 -77 l 346 -207 l 202 -78 q 163 -62 183 -62 l 163 -62 q 126 -78 142 -62 q 110 -115 110 -94 l 110 -115 q 132 -158 110 -139 l 132 -158 l 276 -287 l 163 -416 q 151 -447 151 -431 l 151 -447 q 172 -493 151 -472 q 218 -514 193 -514 l 218 -514 q 253 -497 239 -514 l 253 -497 l 367 -367 l 513 -498 z"},"÷":{"ha":700,"x_min":83,"x_max":631,"o":"m 372 -400 q 317 -420 335 -400 q 298 -473 298 -440 l 298 -473 q 319 -532 298 -510 q 378 -555 340 -555 l 378 -555 q 453 -484 453 -555 l 453 -484 q 432 -422 453 -445 q 372 -400 410 -400 l 372 -400 z m 130 -216 q 95 -230 107 -216 q 83 -265 83 -245 l 83 -265 q 100 -310 83 -290 q 144 -330 116 -330 l 144 -330 l 584 -330 q 619 -316 607 -330 q 631 -282 631 -302 l 631 -282 q 615 -236 631 -257 q 570 -216 598 -216 l 570 -216 l 130 -216 z m 322 5 q 267 -15 285 5 q 248 -68 248 -35 l 248 -68 q 269 -127 248 -105 q 328 -150 290 -150 l 328 -150 q 403 -79 403 -150 l 403 -79 q 382 -17 403 -40 q 322 5 360 5 l 322 5 z"},"=":{"ha":700,"x_min":69,"x_max":645,"o":"m 144 -346 q 109 -360 121 -346 q 97 -395 97 -375 l 97 -395 q 114 -440 97 -420 q 158 -460 130 -460 l 158 -460 l 598 -460 q 633 -446 621 -460 q 645 -412 645 -432 l 645 -412 q 629 -366 645 -387 q 584 -346 612 -346 l 584 -346 l 144 -346 z m 116 -116 q 81 -130 93 -116 q 69 -165 69 -145 l 69 -165 q 86 -210 69 -190 q 130 -230 102 -230 l 130 -230 l 570 -230 q 605 -216 593 -230 q 617 -182 617 -202 l 617 -182 q 601 -136 617 -157 q 556 -116 584 -116 l 556 -116 l 116 -116 z"},">":{"ha":700,"x_min":67,"x_max":633,"o":"m 136 -68 q 112 -64 124 -64 l 112 -64 q 79 -78 91 -64 q 67 -112 67 -92 l 67 -112 q 79 -147 67 -131 q 113 -172 90 -164 l 113 -172 l 463 -290 l 143 -409 q 117 -428 126 -415 q 108 -456 108 -441 l 108 -456 q 125 -497 108 -479 q 166 -516 141 -516 l 166 -516 q 190 -511 177 -516 l 190 -511 l 598 -355 q 624 -334 615 -349 q 633 -300 633 -319 l 633 -300 q 619 -253 633 -276 q 582 -223 605 -231 l 582 -223 l 136 -68 z"},"<":{"ha":700,"x_min":82,"x_max":648,"o":"m 525 -68 l 117 -224 q 91 -245 100 -230 q 82 -279 82 -260 l 82 -279 q 96 -325 82 -303 q 133 -356 110 -348 l 133 -356 l 579 -511 q 603 -515 591 -515 l 603 -515 q 636 -501 624 -515 q 648 -467 648 -487 l 648 -467 q 637 -431 648 -448 q 602 -407 625 -415 l 602 -407 l 252 -289 l 572 -170 q 598 -151 589 -164 q 607 -123 607 -138 l 607 -123 q 591 -81 607 -100 q 549 -63 574 -63 l 549 -63 q 525 -68 538 -63 l 525 -68 z"},"±":{"ha":700,"x_min":94,"x_max":601,"o":"m 554 -425 q 589 -411 577 -425 q 601 -377 601 -397 l 601 -377 q 585 -331 601 -352 q 540 -311 568 -311 l 540 -311 l 417 -311 l 404 -208 q 382 -168 400 -182 q 339 -154 363 -154 l 339 -154 q 302 -168 316 -154 q 290 -208 287 -182 l 290 -208 l 303 -311 l 180 -311 q 145 -325 157 -311 q 133 -360 133 -340 l 133 -360 q 150 -405 133 -385 q 194 -425 166 -425 l 194 -425 l 316 -425 l 329 -528 q 351 -567 332 -553 q 392 -581 369 -581 l 392 -581 q 432 -567 416 -581 q 443 -528 447 -553 l 443 -528 l 430 -425 l 554 -425 z m 515 -114 q 550 -100 538 -114 q 562 -66 562 -86 l 562 -66 q 546 -20 562 -41 q 501 0 529 0 l 501 0 l 141 0 q 106 -14 118 0 q 94 -49 94 -29 l 94 -49 q 111 -94 94 -74 q 155 -114 127 -114 l 155 -114 l 515 -114 z"},"~":{"ha":700,"x_min":76,"x_max":637,"o":"m 478 -165 q 444 -171 459 -165 q 395 -198 429 -178 l 395 -198 l 237 -291 l 182 -212 q 155 -188 171 -197 q 121 -179 138 -179 l 121 -179 q 89 -190 102 -179 q 76 -223 76 -202 l 76 -223 q 118 -320 76 -256 l 118 -320 q 173 -381 145 -362 q 233 -401 200 -401 l 233 -401 q 269 -394 252 -401 q 318 -368 286 -387 l 318 -368 l 476 -275 l 531 -354 q 559 -378 542 -369 q 592 -387 575 -387 l 592 -387 q 624 -375 611 -387 q 637 -343 637 -364 l 637 -343 q 595 -246 637 -310 l 595 -246 q 539 -184 567 -204 q 478 -165 511 -165 l 478 -165 z"},"¬":{"ha":700,"x_min":83,"x_max":629,"o":"m 603 -78 q 582 -43 600 -55 q 541 -31 564 -31 l 541 -31 q 497 -46 515 -31 q 482 -86 478 -61 l 482 -86 l 502 -231 l 130 -231 q 95 -245 107 -231 q 83 -280 83 -260 l 83 -280 q 100 -325 83 -305 q 144 -345 116 -345 l 144 -345 l 565 -345 q 613 -328 596 -345 q 629 -284 629 -311 l 629 -284 q 628 -270 629 -275 l 628 -270 l 603 -78 z"},"µ":{"ha":462,"x_min":28,"x_max":591,"o":"m 86 265 q 43 254 58 265 q 28 216 28 243 l 28 216 q 45 -166 28 -6 l 45 -166 q 91 -410 60 -316 l 91 -410 q 119 -453 101 -440 q 176 -466 137 -466 l 176 -466 q 207 -459 198 -466 q 215 -438 215 -452 l 215 -438 q 204 -384 215 -430 l 204 -384 q 188 -317 194 -347 l 188 -317 q 168 -177 168 -212 l 168 -177 q 173 -147 168 -156 q 189 -139 178 -139 l 189 -139 q 227 -169 204 -139 q 275 -260 249 -199 q 324 -410 300 -321 l 324 -410 q 349 -453 332 -440 q 398 -466 365 -466 l 398 -466 q 430 -460 421 -466 q 439 -440 439 -455 l 439 -440 q 414 -303 439 -415 l 414 -303 q 386 -145 386 -175 l 386 -145 q 394 -115 386 -126 q 415 -105 402 -105 l 415 -105 q 463 -129 435 -105 q 536 -209 490 -154 l 536 -209 q 563 -223 548 -223 l 563 -223 q 584 -211 576 -223 q 591 -178 591 -199 l 591 -178 q 572 -116 591 -138 l 572 -116 q 480 -29 529 -63 q 367 5 430 5 l 367 5 q 297 -32 319 5 q 274 -136 274 -69 l 274 -136 q 225 -33 258 -69 q 151 5 192 3 l 151 5 q 149 131 149 58 l 149 131 l 150 207 q 131 252 150 239 q 86 265 112 265 l 86 265 z"},"%":{"ha":896,"x_min":49,"x_max":882,"o":"m 701 -691 q 688 -646 701 -668 l 688 -646 l 325 -28 q 274 4 306 4 l 274 4 q 237 -12 253 4 q 221 -53 221 -28 l 221 -53 q 237 -104 221 -76 l 237 -104 l 476 -512 q 370 -490 423 -492 l 370 -490 q 307 -392 351 -429 q 207 -356 262 -356 l 207 -356 q 121 -380 157 -356 q 67 -445 85 -405 q 49 -531 49 -485 l 49 -531 q 74 -644 49 -595 q 140 -722 98 -694 q 234 -750 182 -750 l 234 -750 q 337 -705 298 -750 q 382 -597 376 -661 l 382 -597 q 506 -630 449 -601 q 591 -706 562 -660 l 591 -706 q 651 -750 618 -750 l 651 -750 q 687 -733 672 -750 q 701 -691 701 -716 l 701 -691 z m 217 -446 q 255 -464 238 -446 q 279 -517 272 -482 l 279 -517 q 245 -566 257 -537 q 233 -625 233 -596 l 233 -625 q 236 -659 233 -641 l 236 -659 q 228 -660 234 -660 l 228 -660 q 179 -629 198 -660 q 159 -539 159 -599 l 159 -539 q 176 -469 159 -493 q 217 -446 192 -446 l 217 -446 z m 722 -390 q 810 -365 774 -390 q 864 -301 846 -341 q 882 -215 882 -261 l 882 -215 q 858 -102 882 -152 q 791 -24 833 -52 q 696 4 748 4 l 696 4 q 609 -20 644 4 q 555 -85 573 -45 q 537 -171 537 -125 l 537 -171 q 561 -285 537 -235 q 627 -362 585 -335 q 722 -390 669 -390 l 722 -390 z m 705 -86 q 753 -117 733 -86 q 772 -207 772 -148 l 772 -207 q 756 -276 772 -253 q 716 -300 739 -300 l 716 -300 q 667 -269 686 -300 q 647 -179 647 -239 l 647 -179 q 664 -108 647 -131 q 705 -86 680 -86 l 705 -86 z"},"@":{"ha":1015,"x_min":39,"x_max":983,"o":"m 504 288 q 251 232 355 288 q 93 78 146 175 q 39 -139 39 -19 l 39 -139 q 104 -432 39 -295 q 297 -654 168 -569 q 606 -739 425 -739 l 606 -739 q 802 -698 717 -739 q 935 -576 887 -657 q 983 -381 983 -496 l 983 -381 q 944 -178 983 -266 q 841 -42 904 -90 q 708 5 777 5 l 708 5 q 576 -79 606 5 l 576 -79 q 525 -17 557 -40 q 451 5 492 5 l 451 5 q 347 -39 384 5 q 309 -158 309 -84 l 309 -158 q 346 -309 309 -238 q 445 -424 383 -381 q 575 -468 506 -468 l 575 -468 q 605 -459 597 -468 q 617 -429 612 -451 l 617 -429 q 661 -433 638 -433 l 661 -433 q 710 -398 710 -433 l 710 -398 q 695 -298 710 -377 l 695 -298 q 672 -138 672 -183 l 672 -138 q 683 -110 672 -121 q 719 -99 694 -99 l 719 -99 q 787 -136 752 -99 q 846 -239 822 -174 q 869 -383 869 -305 l 869 -383 q 796 -566 869 -503 q 594 -629 722 -629 l 594 -629 q 361 -562 457 -629 q 217 -384 265 -495 q 169 -144 169 -274 l 169 -144 q 254 92 169 3 q 508 180 338 180 l 508 180 q 663 160 586 180 q 821 96 739 139 l 821 96 q 846 89 834 89 l 846 89 q 879 105 866 89 q 892 142 892 120 l 892 142 q 884 173 892 158 q 859 197 876 187 l 859 197 q 693 265 787 241 q 504 288 598 288 l 504 288 z m 481 -96 q 523 -122 503 -96 q 552 -191 543 -148 l 552 -191 l 589 -375 q 512 -343 547 -374 q 455 -263 476 -313 q 434 -157 434 -213 l 434 -157 q 447 -111 434 -126 q 481 -96 459 -96 l 481 -96 z"},"&":{"ha":851,"x_min":45,"x_max":830,"o":"m 808 -304 q 653 -131 744 -206 l 653 -131 l 740 -35 q 763 15 763 -11 l 763 15 q 743 57 763 40 q 690 73 723 73 l 690 73 q 620 45 644 73 l 620 45 l 536 -54 q 310 5 418 5 l 310 5 q 170 -20 230 5 q 78 -89 110 -45 q 45 -187 45 -133 l 45 -187 q 91 -323 45 -260 q 239 -449 136 -387 l 239 -449 q 181 -636 181 -555 l 181 -636 q 211 -763 181 -708 q 295 -848 241 -818 q 417 -878 348 -878 l 417 -878 q 554 -827 505 -878 q 602 -689 602 -777 l 602 -689 q 560 -551 602 -616 q 409 -420 517 -487 l 409 -420 q 578 -215 473 -333 l 578 -215 q 709 -364 644 -274 l 709 -364 q 735 -386 720 -380 q 772 -393 750 -393 l 772 -393 q 830 -360 830 -393 l 830 -360 q 808 -304 830 -339 l 808 -304 z m 410 -773 q 336 -737 363 -773 q 309 -649 309 -702 l 309 -649 q 351 -511 309 -586 l 351 -511 q 457 -600 429 -557 q 485 -694 485 -643 l 485 -694 q 466 -752 485 -731 q 410 -773 447 -773 l 410 -773 z m 316 -105 q 465 -139 394 -105 l 465 -139 q 298 -356 359 -266 l 298 -356 q 185 -202 185 -282 l 185 -202 q 220 -130 185 -156 q 316 -105 255 -105 l 316 -105 z"},"¶":{"ha":739,"x_min":100,"x_max":701,"o":"m 304 5 q 253 -10 268 5 q 237 -55 237 -26 l 237 -55 q 247 -152 237 -87 q 275 -329 256 -218 l 275 -329 l 279 -355 q 290 -416 282 -380 l 290 -416 q 295 -447 291 -427 l 295 -447 q 211 -468 257 -447 q 133 -531 165 -489 q 100 -632 100 -573 l 100 -632 q 189 -794 100 -738 q 430 -850 278 -850 l 430 -850 q 579 -841 521 -850 q 669 -805 636 -832 q 701 -729 701 -779 l 701 -729 q 677 -570 701 -710 l 677 -570 l 663 -488 l 641 -357 q 619 -201 630 -290 q 603 -65 607 -113 l 603 -65 q 582 -11 600 -28 q 530 5 564 5 l 530 5 q 463 -55 463 5 l 463 -55 q 473 -152 463 -87 q 501 -329 482 -218 l 501 -329 l 505 -355 l 528 -486 q 554 -667 537 -540 l 554 -667 q 555 -679 555 -671 l 555 -679 q 522 -716 555 -716 l 522 -716 l 479 -716 q 437 -488 463 -647 l 437 -488 l 415 -357 q 393 -201 404 -290 q 377 -65 381 -113 l 377 -65 q 356 -11 374 -28 q 304 5 338 5 l 304 5 z"},"§":{"ha":607,"x_min":70,"x_max":560,"o":"m 489 -604 q 456 -616 469 -604 q 443 -645 443 -628 l 443 -645 q 445 -670 443 -654 l 445 -670 q 447 -699 447 -686 l 447 -699 q 370 -754 447 -754 l 370 -754 q 298 -732 324 -754 q 272 -673 272 -711 l 272 -673 q 288 -627 272 -646 q 329 -594 304 -608 q 406 -558 353 -581 l 406 -558 q 508 -491 478 -526 q 537 -399 537 -456 l 537 -399 q 518 -323 537 -357 q 465 -266 498 -290 l 465 -266 q 499 -169 499 -227 l 499 -169 q 439 -40 499 -86 q 277 5 378 5 l 277 5 q 127 -32 183 5 q 70 -147 70 -69 l 70 -147 q 88 -209 70 -188 q 141 -231 106 -231 l 141 -231 q 174 -220 161 -231 q 187 -194 187 -210 l 187 -194 l 186 -168 q 184 -141 184 -152 l 184 -141 q 213 -99 184 -113 q 284 -85 242 -85 l 284 -85 q 356 -102 331 -85 q 381 -152 381 -120 l 381 -152 q 369 -191 381 -176 q 337 -217 357 -207 q 277 -242 317 -227 l 277 -242 q 158 -309 202 -270 q 114 -421 114 -349 l 114 -421 q 186 -563 114 -509 l 186 -563 q 154 -661 154 -603 l 154 -661 q 181 -756 154 -715 q 258 -821 208 -798 q 374 -844 308 -844 l 374 -844 q 513 -806 465 -844 q 560 -699 560 -769 l 560 -699 q 544 -627 560 -650 q 489 -604 527 -604 l 489 -604 z m 424 -381 q 399 -428 424 -410 q 319 -473 374 -447 l 319 -473 q 250 -508 268 -498 l 250 -508 q 226 -445 226 -484 l 226 -445 q 251 -390 226 -411 q 322 -348 275 -369 l 322 -348 l 342 -339 q 390 -318 366 -330 l 390 -318 q 424 -381 424 -341 l 424 -381 z"},"©":{"ha":647,"x_min":83,"x_max":665,"o":"m 374 -353 q 224 -392 290 -353 q 121 -497 158 -431 q 83 -644 83 -564 l 83 -644 q 121 -790 83 -724 q 224 -896 158 -857 q 374 -935 290 -935 l 374 -935 q 524 -896 458 -935 q 628 -790 590 -857 q 665 -644 665 -724 l 665 -644 q 628 -497 665 -564 q 524 -392 590 -431 q 374 -353 458 -353 l 374 -353 z m 374 -419 q 489 -449 440 -419 q 564 -531 538 -480 q 590 -644 590 -583 l 590 -644 q 564 -756 590 -705 q 489 -838 538 -808 q 374 -869 440 -869 l 374 -869 q 259 -838 308 -869 q 184 -756 210 -808 q 158 -644 158 -705 l 158 -644 q 184 -531 158 -583 q 259 -449 210 -480 q 374 -419 308 -419 l 374 -419 z m 367 -476 q 264 -517 304 -476 q 224 -630 224 -559 l 224 -630 q 248 -728 224 -684 q 311 -797 271 -772 q 398 -822 350 -822 l 398 -822 q 469 -799 445 -822 q 493 -740 493 -777 l 493 -740 q 449 -685 493 -685 l 449 -685 q 431 -690 437 -685 q 424 -706 424 -696 l 424 -706 q 427 -722 424 -710 q 429 -739 429 -734 l 429 -739 q 421 -758 429 -751 q 398 -766 413 -766 l 398 -766 q 324 -729 354 -766 q 294 -637 294 -692 l 294 -637 q 316 -563 294 -591 q 376 -535 337 -535 l 376 -535 q 424 -545 402 -535 q 469 -576 446 -555 l 469 -576 q 481 -582 477 -582 l 481 -582 q 492 -575 488 -582 q 495 -558 495 -568 l 495 -558 q 484 -527 495 -541 l 484 -527 q 367 -476 439 -476 l 367 -476 z"},"®":{"ha":647,"x_min":83,"x_max":665,"o":"m 374 -353 q 224 -392 290 -353 q 121 -497 158 -431 q 83 -644 83 -564 l 83 -644 q 121 -790 83 -724 q 224 -896 158 -857 q 374 -935 290 -935 l 374 -935 q 524 -896 458 -935 q 628 -790 590 -857 q 665 -644 665 -724 l 665 -644 q 628 -497 665 -564 q 524 -392 590 -431 q 374 -353 458 -353 l 374 -353 z m 374 -419 q 489 -449 440 -419 q 564 -531 538 -480 q 590 -644 590 -583 l 590 -644 q 564 -756 590 -705 q 489 -838 538 -808 q 374 -869 440 -869 l 374 -869 q 259 -838 308 -869 q 184 -756 210 -808 q 158 -644 158 -705 l 158 -644 q 184 -531 158 -583 q 259 -449 210 -480 q 374 -419 308 -419 l 374 -419 z m 449 -478 q 423 -484 432 -478 q 406 -502 413 -490 q 381 -552 398 -515 l 381 -552 q 356 -597 365 -585 q 331 -610 346 -609 l 331 -610 q 316 -508 321 -557 l 316 -508 q 308 -485 314 -492 q 285 -479 301 -479 l 285 -479 q 262 -486 271 -479 q 252 -504 252 -493 l 252 -504 q 263 -582 252 -520 l 263 -582 l 270 -626 l 279 -679 q 284 -703 282 -691 q 287 -726 285 -715 l 287 -726 q 294 -773 286 -715 l 294 -773 l 279 -767 q 265 -768 271 -763 q 258 -783 258 -774 l 258 -783 q 272 -806 258 -796 l 272 -806 q 311 -820 286 -815 q 362 -826 336 -826 l 362 -826 q 461 -799 425 -826 q 496 -731 496 -773 l 496 -731 q 470 -665 496 -695 q 388 -625 443 -635 l 388 -625 q 419 -609 408 -620 q 443 -576 430 -598 l 443 -576 l 454 -556 q 475 -522 467 -533 l 475 -522 q 482 -502 482 -512 l 482 -502 q 471 -485 482 -492 q 449 -478 460 -478 l 449 -478 z m 340 -656 q 406 -677 383 -657 q 428 -730 428 -697 l 428 -730 q 412 -765 428 -754 q 359 -777 395 -777 l 359 -777 q 343 -680 346 -702 l 343 -680 l 340 -656 z"},"°":{"ha":385,"x_min":97,"x_max":401,"o":"m 242 -536 q 171 -553 204 -536 q 118 -603 138 -570 q 97 -682 97 -636 l 97 -682 q 120 -768 97 -731 q 178 -825 142 -806 q 255 -845 214 -845 l 255 -845 q 327 -828 293 -845 q 381 -777 360 -811 q 401 -699 401 -744 l 401 -699 q 379 -612 401 -649 q 320 -555 356 -575 q 242 -536 283 -536 l 242 -536 z m 246 -621 q 292 -641 273 -621 q 310 -695 310 -662 l 310 -695 q 293 -742 310 -724 q 251 -760 275 -760 l 251 -760 q 206 -740 225 -760 q 187 -687 187 -720 l 187 -687 q 205 -639 187 -657 q 246 -621 223 -621 l 246 -621 z"},"|":{"ha":326,"x_min":28,"x_max":322,"o":"m 86 307 q 44 295 59 307 q 31 252 28 282 l 31 252 q 111 -315 53 63 l 111 -315 q 134 -464 115 -343 q 167 -690 153 -586 q 191 -882 181 -795 l 191 -882 q 214 -923 194 -911 q 261 -935 234 -935 l 261 -935 q 316 -882 322 -935 l 316 -882 q 287 -655 303 -769 q 256 -442 271 -542 q 236 -315 240 -343 l 236 -315 q 156 252 178 63 l 156 252 q 133 295 153 282 q 86 307 113 307 l 86 307 z"},"¦":{"ha":326,"x_min":30,"x_max":317,"o":"m 185 -394 q 145 -404 161 -394 q 129 -438 129 -415 l 129 -438 q 130 -449 129 -445 l 130 -449 l 191 -882 q 215 -923 195 -911 q 261 -935 234 -935 l 261 -935 q 317 -892 317 -935 l 317 -892 q 316 -882 317 -886 l 316 -882 l 255 -449 q 232 -406 251 -419 q 185 -394 212 -394 l 185 -394 z m 86 307 q 46 297 62 307 q 30 263 30 287 l 30 263 q 31 252 30 256 l 31 252 l 92 -181 q 116 -222 96 -210 q 162 -234 135 -234 l 162 -234 q 218 -191 218 -234 l 218 -191 q 217 -181 218 -185 l 217 -181 l 156 252 q 133 295 152 282 q 86 307 113 307 l 86 307 z"},"^":{"ha":700,"x_min":88,"x_max":577,"o":"m 196 -83 q 171 -56 186 -65 q 139 -47 156 -47 l 139 -47 q 103 -59 118 -47 q 88 -90 88 -71 l 88 -90 q 97 -120 88 -104 l 97 -120 l 327 -530 q 356 -560 338 -550 q 392 -571 373 -571 l 392 -571 q 425 -560 410 -571 q 445 -530 439 -550 l 445 -530 l 574 -121 q 577 -100 577 -111 l 577 -100 q 561 -61 577 -76 q 523 -47 544 -47 l 523 -47 q 496 -56 508 -47 q 477 -83 483 -65 l 477 -83 l 377 -415 l 196 -83 z"},"´":{"ha":600,"x_min":268,"x_max":486,"o":"m 303 -532 q 279 -542 289 -532 q 268 -568 268 -553 l 268 -568 q 273 -587 268 -575 l 273 -587 l 366 -795 q 390 -824 375 -815 q 422 -834 404 -834 l 422 -834 q 467 -816 447 -834 q 486 -771 486 -798 l 486 -771 q 464 -715 486 -743 l 464 -715 l 335 -549 q 303 -532 322 -532 l 303 -532 z"},"¸":{"ha":600,"x_min":58,"x_max":346,"o":"m 159 250 q 97 245 121 250 l 97 245 q 58 201 58 238 l 58 201 q 98 156 58 156 l 98 156 q 111 157 106 156 l 111 157 q 164 161 138 161 l 164 161 q 227 145 204 161 q 249 94 249 128 l 249 94 q 228 55 249 69 q 169 40 206 40 l 169 40 q 129 33 143 40 q 115 9 115 26 l 115 9 q 116 0 115 3 l 116 0 q 132 -29 120 -20 q 169 -39 144 -39 l 169 -39 l 195 -39 q 305 -6 264 -39 q 346 86 346 27 l 346 86 q 324 171 346 133 q 259 229 301 208 q 159 250 216 250 l 159 250 z"},"¨":{"ha":600,"x_min":135,"x_max":490,"o":"m 203 -532 q 153 -549 171 -532 q 135 -604 135 -567 l 135 -604 q 157 -666 135 -644 q 214 -689 178 -689 l 214 -689 q 264 -671 246 -689 q 282 -617 282 -654 l 282 -617 q 261 -554 282 -577 q 203 -532 239 -532 l 203 -532 z m 411 -532 q 361 -549 379 -532 q 343 -604 343 -567 l 343 -604 q 365 -666 343 -644 q 422 -689 386 -689 l 422 -689 q 472 -671 454 -689 q 490 -617 490 -654 l 490 -617 q 469 -554 490 -577 q 411 -532 447 -532 l 411 -532 z"},"`":{"ha":600,"x_min":121,"x_max":338,"o":"m 303 -532 q 272 -549 285 -532 l 272 -549 l 143 -715 q 121 -771 121 -743 l 121 -771 q 141 -817 121 -799 q 185 -835 160 -835 l 185 -835 q 217 -825 202 -835 q 241 -795 232 -815 l 241 -795 l 334 -587 q 338 -568 338 -578 l 338 -568 q 328 -542 338 -553 q 303 -532 317 -532 l 303 -532 z"},"¯":{"ha":600,"x_min":144,"x_max":465,"o":"m 189 -532 q 156 -543 167 -532 q 144 -574 144 -554 l 144 -574 q 158 -612 144 -598 q 197 -626 172 -626 l 197 -626 l 420 -626 q 454 -615 442 -626 q 465 -587 465 -605 l 465 -587 q 451 -546 465 -561 q 412 -532 437 -532 l 412 -532 l 189 -532 z"}}}
